<?xml version="1.0" encoding="utf-8"?>
<!-- Generator: Adobe Illustrator 24.3.0, SVG Export Plug-In . SVG Version: 6.00 Build 0)  -->
<svg version="1.1" id="Layer_1" xmlns="http://www.w3.org/2000/svg" xmlns:xlink="http://www.w3.org/1999/xlink" x="0px" y="0px"
	 viewBox="0 0 110 135" style="enable-background:new 0 0 110 135;" xml:space="preserve" fill="#ffffff">
<style type="text/css">
	.st0{fill-rule:evenodd;clip-rule:evenodd;}
</style>
<path class="st0" d="M83.4,92.1C81,91,78.1,90,75,89.2c-0.9,2.6-1.9,4.9-3.1,7.1c-1.4,2.6-3.1,4.9-4.9,6.8c5.6-1.9,10.5-5,14.6-9.1
	C82.2,93.5,82.8,92.8,83.4,92.1z M43,103.1c-1.8-1.9-3.5-4.2-4.9-6.8c-1.2-2.1-2.2-4.5-3.1-7.1c-3.1,0.8-6,1.8-8.4,2.9
	c0.6,0.7,1.2,1.3,1.8,2C32.5,98.1,37.4,101.3,43,103.1z M24.2,89.1c2.8-1.4,6-2.5,9.7-3.5c-1.4-4.9-2.2-10.5-2.3-16.3H17.5
	C17.8,76.7,20.3,83.5,24.2,89.1L24.2,89.1z M13.6,67.5c0-11.4,4.6-21.8,12.1-29.2c7.5-7.5,17.8-12.1,29.2-12.1s21.8,4.6,29.2,12.1
	c7.5,7.5,12.1,17.8,12.1,29.2s-4.6,21.8-12.1,29.2c-7.5,7.5-17.8,12.1-29.2,12.1s-21.8-4.6-29.2-12.1C18.3,89.3,13.6,78.9,13.6,67.5
	z M17.5,65.6h14.1c0.1-5.8,1-11.3,2.3-16.3c-3.6-0.9-6.9-2.1-9.7-3.5C20.3,51.5,17.8,58.3,17.5,65.6L17.5,65.6z M26.6,42.9
	C29,44,31.9,45,35,45.8c0.9-2.6,1.9-4.9,3.1-7.1c1.4-2.6,3.1-4.9,4.9-6.8c-5.6,1.9-10.5,5-14.6,9.1C27.8,41.5,27.2,42.2,26.6,42.9z
	 M67,31.9c1.8,1.9,3.5,4.2,4.9,6.8c1.2,2.1,2.2,4.5,3.1,7.1c3.1-0.8,6-1.8,8.4-2.9c-0.6-0.7-1.2-1.3-1.8-2
	C77.5,36.9,72.6,33.7,67,31.9z M85.8,45.9c-2.8,1.4-6,2.5-9.7,3.5c1.4,4.9,2.2,10.4,2.3,16.3h14.1C92.2,58.3,89.7,51.5,85.8,45.9
	L85.8,45.9z M92.5,69.4H78.4c-0.1,5.8-1,11.3-2.3,16.3c3.6,0.9,6.9,2.1,9.7,3.5C89.7,83.5,92.2,76.7,92.5,69.4L92.5,69.4z
	 M56.9,30.1v18c5.2-0.1,10-0.6,14.4-1.5c-0.8-2.2-1.7-4.3-2.7-6.1C65.5,34.7,61.4,30.9,56.9,30.1L56.9,30.1z M56.9,51.8v13.8h17.8
	c-0.1-5.5-0.9-10.8-2.2-15.4C67.7,51.1,62.4,51.7,56.9,51.8L56.9,51.8z M56.9,69.4v13.8c5.5,0.1,10.8,0.7,15.6,1.6
	c1.3-4.7,2.1-9.9,2.2-15.4L56.9,69.4L56.9,69.4z M56.9,86.9c5.2,0.1,10,0.6,14.4,1.5c-0.8,2.2-1.7,4.3-2.7,6.1
	c-3.1,5.7-7.2,9.6-11.7,10.4L56.9,86.9z M53.1,104.9c-4.5-0.8-8.6-4.7-11.7-10.4c-1-1.9-1.9-3.9-2.7-6.1c4.4-0.9,9.3-1.4,14.4-1.5
	L53.1,104.9z M53.1,83.2V69.4H35.3c0.1,5.5,0.9,10.8,2.2,15.4C42.3,83.8,47.6,83.3,53.1,83.2L53.1,83.2z M53.1,65.6V51.8
	c-5.5-0.1-10.8-0.7-15.6-1.6c-1.3,4.7-2.1,9.9-2.2,15.4L53.1,65.6z M53.1,48.1v-18c-4.5,0.8-8.6,4.7-11.7,10.4
	c-1,1.9-1.9,3.9-2.7,6.1C43.1,47.4,48,48,53.1,48.1L53.1,48.1z"/>
</svg>
