<?xml version="1.0" encoding="utf-8"?>
<!-- Generator: Adobe Illustrator 24.3.0, SVG Export Plug-In . SVG Version: 6.00 Build 0)  -->
<svg version="1.1" id="Layer_1" xmlns="http://www.w3.org/2000/svg" xmlns:xlink="http://www.w3.org/1999/xlink" x="0px" y="0px"
	 viewBox="0 0 90 112.5" style="enable-background:new 0 0 90 112.5;" xml:space="preserve">
<g fill="#ffffff">
	<path d="M56.6,19.6c1.3,0.1,1.4,0.5,1.2,1.8c-1.7,11.1-1.6,23.8,1,34.9l-3.9,0c-1,0-0.9-0.1-1.1-0.7c-0.4-1.4-0.9-3-1.9-3.7
		c-1-0.7-2.2-1.1-3.2-0.9l-12.5,2.7C33,46,30.8,37.9,30.3,28.1c-0.1-1.8-0.1-2.6,1.3-3.5C39.2,19.7,48.3,19.2,56.6,19.6z"/>
	<path d="M68.5,26.6c1,0.4,0.8,0.6,0.4,1.4c-4,9.1-5.5,19.2-7,28.3l-1.4,0c-1.9-9.5-2.5-21.2-1.7-30.6
		C62.1,25.2,65.4,25.5,68.5,26.6z"/>
	<path d="M68.2,34.3c2.2,0.3,4.3,1.4,5.8,2.8c0.5,0.5,0.3,0.8,0.1,1c-3.3,2.9-6.2,7-8.7,11.6h-1C65.5,43.8,66.9,38.6,68.2,34.3z"/>
	<path d="M48.8,52.9c1.9-0.3,3,1.2,3.1,2.7l1.7,14.7c0,1.1-0.7,2.2-1.9,2.8c-1.2,0.6-2.7,0.6-3.9,0c-1.1-0.6-1.5-1.6-1.9-3l-2-8.2
		c-0.3-1.2-1.5-1.1-1.3,0.1L44.8,74c0.5,2.8-2.8,7.1-9.3,6.1c-1.2-0.3-1,1.5,0.2,1.6c4.1,0.6,7-0.8,8.9-2.7c0,1.2,0.3,2.3,0.8,3.3
		c0.4,0.8,1,1.5,1.7,1.9c-0.7,0.5-1.3,1.1-1.7,1.9c-0.9,1.7-0.9,3.8,0,5.5c0.4,0.7,0.6,1.2-0.2,1.2l-10.4,0c-1.3,0-2-0.3-2.6-0.8
		c-0.6-0.5-1.1-1.2-1.6-2.1c-0.2-0.3-0.4-0.4-0.8-0.4h-1.5c-1.1,0-1.2-0.5-1.1-1.5c1.4-7.7,1.8-14.8-0.1-22.2
		c-0.3-1.1-0.2-1.1,0.5-1.9l5.5-6.4c1.3-1.5,2.4-2.4,4.8-2.8L48.8,52.9z"/>
	<path d="M65.8,58.1c1.1,0,2.2,0.7,2.8,1.9c0.6,1.2,0.6,2.7,0,3.9c-0.4,0.7-0.9,1.5-2,1.5l-11.7,0L54,58.1L65.8,58.1z"/>
	<path d="M15.8,63.8c3.1,9.6,2.5,17.9,0,28.3C15.6,93,16,93,16.6,93h6.6c1.1,0,1.2,0,1.4-0.9c2.3-10.1,3-18.3,0.2-27.5
		c-0.5-1.7-0.8-1.6-2.7-1.6h-5.7C15.4,62.9,15.6,63.1,15.8,63.8z"/>
	<path d="M64.3,67.1c1.1,0,2.2,0.7,2.8,1.9c0.6,1.2,0.6,2.7,0,3.9c-0.6,1.2-1.7,1.9-2.8,1.9l-9.7-0.5c-0.4,0-0.6-0.7-0.3-1.1
		c0.5-0.9,1.2-1.9,1.1-2.9L55,67.1L64.3,67.1z"/>
	<path d="M49.7,75.7c4.5,0.2,9.1,0.5,13.6,0.7c1.1,0.1,2.2,0.7,2.8,1.9c0.6,1.2,0.6,2.7,0,3.9c-0.6,1.2-1.7,1.9-2.8,1.9L50,83.4
		c0,0-0.1,0-0.1,0c-1.1,0-2.2-0.7-2.8-1.9c-0.6-1.2-0.8-2.9-0.3-4C47.4,76.4,48.5,75.7,49.7,75.7z"/>
	<path d="M49.9,85.2l12.6,0.6c0.5,0.3,0.9,0.8,1.2,1.4c0.6,1.2,0.6,2.7,0,3.9c-0.6,1.2-1.7,1.9-2.7,1.9l-10.7,0
		c-1.4,0-2.7-0.9-3.2-2c-0.6-1.2-0.6-2.7,0-3.9C47.7,85.9,48.7,85.2,49.9,85.2z"/>
</g>
</svg>
