<?xml version="1.0" encoding="utf-8"?>
<!-- Generator: Adobe Illustrator 24.3.0, SVG Export Plug-In . SVG Version: 6.00 Build 0)  -->
<svg version="1.1" id="Layer_1" xmlns="http://www.w3.org/2000/svg" xmlns:xlink="http://www.w3.org/1999/xlink" x="0px" y="0px"
	 viewBox="0 0 110 135" style="enable-background:new 0 0 110 135;" xml:space="preserve">
<style type="text/css">
	.st0{fill-rule:evenodd;clip-rule:evenodd;}
</style>
<path class="st0" fill="#ffffff" d="M28.6,102.2l5.1,8.8l17.5-10.1l-5.1-8.8L28.6,102.2L28.6,102.2z M56.1,32.7v9c2.4-0.1,4.6-0.7,6.7-1.7
	C61.4,36.7,59.1,33.4,56.1,32.7L56.1,32.7z M67.3,37.1c-0.8,0.7-1.7,1.4-2.7,2c-0.8-2-1.9-3.8-3.2-5.3
	C63.6,34.5,65.6,35.6,67.3,37.1z M48.6,33.7c-2.2,0.8-4.1,1.9-5.9,3.4c0.8,0.7,1.7,1.4,2.7,2C46.2,37.1,47.2,35.2,48.6,33.7z
	 M41.1,38.5c1.1,1,2.2,1.8,3.5,2.5c-0.9,2.9-1.5,6.1-1.6,9.6h-7.2C36.1,46,38.1,41.7,41.1,38.5L41.1,38.5z M35.8,52.9
	c0.3,4.7,2.2,9,5.3,12.2c1.1-1,2.2-1.8,3.5-2.5c-0.9-2.9-1.5-6.1-1.6-9.6L35.8,52.9z M42.7,66.5c0.8-0.7,1.7-1.4,2.7-2
	c0.8,2,1.9,3.8,3.2,5.3C46.4,69.1,44.4,67.9,42.7,66.5z M61.4,69.9c2.2-0.8,4.1-1.9,5.9-3.4c-0.8-0.7-1.7-1.4-2.7-2
	C63.8,66.5,62.8,68.4,61.4,69.9z M68.9,65c-1.1-1-2.2-1.8-3.5-2.5c0.9-2.9,1.5-6.1,1.6-9.6h7.2C73.9,57.6,71.9,61.8,68.9,65L68.9,65
	z M74.2,50.7c-0.3-4.7-2.2-9-5.3-12.2c-1.1,1-2.2,1.8-3.5,2.5c0.9,2.9,1.5,6.1,1.6,9.6L74.2,50.7z M56.1,43.8v6.9h8.7
	c-0.1-3.1-0.6-6.1-1.4-8.7C61.2,43.1,58.7,43.7,56.1,43.8z M53.9,43.8c-2.6-0.1-5.1-0.8-7.4-1.8c-0.8,2.6-1.3,5.5-1.4,8.7h8.7
	L53.9,43.8z M47.3,40c1.4-3.4,3.6-6.6,6.7-7.3v9C51.6,41.5,49.3,41,47.3,40L47.3,40z M46.5,61.5c2.3-1,4.8-1.6,7.4-1.8v-6.9h-8.7
	C45.3,56,45.8,58.9,46.5,61.5z M56.1,59.7c2.6,0.1,5.1,0.8,7.4,1.8c0.8-2.6,1.3-5.5,1.4-8.7h-8.7L56.1,59.7z M62.7,63.5
	c-1.4,3.4-3.6,6.6-6.7,7.3v-9C58.4,62,60.7,62.6,62.7,63.5L62.7,63.5z M53.9,61.9c-2.4,0.1-4.6,0.7-6.7,1.7c1.4,3.4,3.6,6.6,6.7,7.3
	V61.9L53.9,61.9z M30.6,59.7c0.2,0.6-0.1,1.2-0.7,1.4c-0.6,0.2-1.2-0.1-1.4-0.7c-3.3-10-0.6-20.9,6.8-28.3
	c12.2-12.2,32.5-10.4,42.4,3.7l0.8-2.9c0.2-0.6,0.7-0.9,1.3-0.8c0.6,0.2,0.9,0.7,0.8,1.3l-1.4,5.2c-0.1,0.6-0.7,1-1.3,0.8L72.6,38
	c-0.6-0.2-0.9-0.7-0.8-1.3s0.7-0.9,1.3-0.8l2.6,0.7c-9.3-12.7-27.7-14.2-38.9-3C30.1,40.4,27.6,50.5,30.6,59.7L30.6,59.7z
	 M37.4,65.5l-5.3-1.4c-0.6-0.2-1.2,0.2-1.3,0.8l-1.4,5.2c-0.2,0.6,0.2,1.2,0.8,1.3c0.6,0.2,1.2-0.2,1.3-0.8l0.8-2.9
	c9.9,14.1,30.2,15.9,42.4,3.7c7.4-7.4,10-18.3,6.8-28.3c-0.2-0.6-0.8-0.9-1.4-0.7c-0.6,0.2-0.9,0.8-0.7,1.4c3,9.2,0.5,19.3-6.3,26.1
	c-11.2,11.2-29.6,9.7-38.9-3l2.6,0.7c0.6,0.2,1.2-0.2,1.3-0.8C38.3,66.3,38,65.7,37.4,65.5L37.4,65.5z M31.9,86.4l-12.7-6.9
	c-1.1-0.6-1.5-1.3-1.4-2c0.2-2,3.8-4.2,6.9-2.6l13.3,7c2.3,1.2,3.8,2.7,5.1,5h0l1.9,3.4l-17.6,10.1l-0.4-0.7
	c-6.4-9.7-15.3-10.8-15.6-18L9.8,48.2c-0.2-3.4,5.1-4.2,5.8-0.9l5.3,25.1c-1.1,0.2-2,0.7-2.8,1.2c-2.8,2-3.5,5.8,0.2,7.8l12.7,6.9
	c0.5,0.3,1.2,0.1,1.5-0.4S32.4,86.6,31.9,86.4L31.9,86.4z M79.1,88.2l12.7-6.9c1.9-1.1,2.7-2.5,2.5-4c-0.2-2.5-2.8-4.5-5.2-5
	l5.3-25.1c0.7-3.3,5.9-2.5,5.8,0.9l-1.7,33.5c-0.4,7.2-9.2,8.3-15.6,18l-0.4,0.7L64.9,90.2l1.9-3.4c1.3-2.2,2.9-3.8,5.1-5l13.3-7
	c1.9-1,4-0.6,5.4,0.4c1.6,1.1,2.3,2.9,0.1,4.2l-12.7,6.9c-0.5,0.3-0.7,0.9-0.4,1.5C77.9,88.3,78.6,88.5,79.1,88.2L79.1,88.2z
	 M63.8,92.1l-5.1,8.8L76.3,111l5.1-8.8L63.8,92.1L63.8,92.1z"/>
</svg>
