<?xml version="1.0" encoding="utf-8"?>
<!-- Generator: Adobe Illustrator 24.3.0, SVG Export Plug-In . SVG Version: 6.00 Build 0)  -->
<svg version="1.1" id="Layer_1" xmlns="http://www.w3.org/2000/svg" xmlns:xlink="http://www.w3.org/1999/xlink" x="0px" y="0px"
	 viewBox="0 0 110 135" style="enable-background:new 0 0 110 135;" xml:space="preserve">
<g fill="#ffffff">
	<path d="M74.2,48.5c-4-10-12.6-17.8-23.1-20.6c3.3,4.7,5.7,11.9,6.9,20.6H74.2z"/>
	<path d="M53.3,48.5c-2-13.3-6.8-21.8-11.3-21.8c-4.5,0-9.3,8.5-11.3,21.8H53.3L53.3,48.5z"/>
	<path d="M29.9,61.2c0,2.8,0.1,5.6,0.4,8.1h23.6c0.2-2.6,0.4-5.3,0.4-8.1c0-2.8-0.1-5.6-0.4-8.1H30.2C30,55.7,29.9,58.4,29.9,61.2z"
		/>
	<path d="M25.3,61.2c0-2.8,0.1-5.5,0.3-8.1l-17.1,0c-0.6,2.6-1,5.3-1,8.1c0,2.8,0.4,5.5,1,8.1h17.1C25.4,66.8,25.3,64,25.3,61.2
		L25.3,61.2z"/>
	<path d="M30.8,73.9c2,13.3,6.8,21.8,11.3,21.8c4.5,0,9.3-8.5,11.3-21.8H30.8L30.8,73.9z"/>
	<path d="M58.8,61.2c0,2.8-0.1,5.5-0.3,8.1h6.1c0.2-1.1,0.6-2.1,1.3-3c1.3-1.6,3.1-2.5,5.1-2.5c1,0,2.1,0.2,3,0.7l2.3,1.2
		c0.2-1.5,0.3-3,0.3-4.6c0-2.8-0.4-5.5-1-8.1H58.5C58.7,55.7,58.8,58.4,58.8,61.2L58.8,61.2z"/>
	<path d="M33.1,27.9C22.5,30.8,13.9,38.5,10,48.5h16.2C27.4,39.7,29.8,32.6,33.1,27.9L33.1,27.9z"/>
	<path d="M58,73.9c-1.2,8.8-3.7,16-6.9,20.6c6.4-1.7,12.1-5.3,16.5-10.1l-2.4-10.5H58z"/>
	<path d="M10,73.9c4,10,12.6,17.8,23.1,20.6c-3.3-4.7-5.7-11.9-6.9-20.6L10,73.9z"/>
	<path d="M101.5,84.1L71.9,68.7c-1.5-0.8-3.2,0.5-2.8,2.2l7.5,32.4c0.4,1.6,2.5,2.1,3.5,0.7l5.2-7.6l8.6,11.2c0.7,0.8,1.9,1,2.7,0.3
		l4.2-3.3c0.8-0.7,1-1.9,0.3-2.7l-8.6-11.2l8.6-3.2C102.8,87,102.9,84.8,101.5,84.1L101.5,84.1z"/>
</g>
</svg>
