<?xml version="1.0" encoding="utf-8"?>
<!-- Generator: Adobe Illustrator 24.3.0, SVG Export Plug-In . SVG Version: 6.00 Build 0)  -->
<svg version="1.1" id="Layer_1" xmlns="http://www.w3.org/2000/svg" xmlns:xlink="http://www.w3.org/1999/xlink" x="0px" y="0px"
	 viewBox="0 0 100 125" style="enable-background:new 0 0 100 125;" xml:space="preserve">
<path fill="#ffffff" d="M41.1,26.9c0-4.9,4-8.9,8.9-8.9c4.9,0,8.9,4,8.9,8.9s-4,8.9-8.9,8.9C45.1,35.8,41.1,31.8,41.1,26.9
	C41.1,26.9,41.1,26.9,41.1,26.9z M58.8,38H41.2c-5,0-9,4-9,9v20.4c0,2.2,1.5,4,3.3,4c1.8,0,3.3-1.8,3.3-4V50.3
	c0-0.6,0.5-1.1,1.1-1.1s1.1,0.5,1.1,1.1v53.3c0,1.6,1.1,3,2.6,3.4c1.8,0.4,3.6-0.8,4-2.6c0-0.2,0.1-0.4,0.1-0.7v-30
	c0-1.2,1-2.2,2.2-2.2c1.2,0,2.2,1,2.2,2.2v29.9c0,1.6,1.1,3,2.6,3.4c1.8,0.4,3.6-0.8,3.9-2.6c0-0.2,0.1-0.4,0.1-0.6V50.3
	c0-0.6,0.5-1.1,1.1-1.1s1.1,0.5,1.1,1.1v17.1c0,2.2,1.5,4,3.3,4s3.3-1.8,3.3-4V47C67.8,42.1,63.8,38,58.8,38z"/>
</svg>
