<?xml version="1.0" encoding="utf-8"?>
<!-- Generator: Adobe Illustrator 24.3.0, SVG Export Plug-In . SVG Version: 6.00 Build 0)  -->
<svg version="1.1" id="Layer_1" xmlns="http://www.w3.org/2000/svg" xmlns:xlink="http://www.w3.org/1999/xlink" x="0px" y="0px"
	 viewBox="0 0 100 125" style="enable-background:new 0 0 100 125;" xml:space="preserve">
<path fill="#ffffff" d="M41.1,26.9c0-4.9,4-8.9,8.9-8.9s8.9,4,8.9,8.9s-4,8.9-8.9,8.9C45.1,35.8,41.1,31.8,41.1,26.9C41.1,26.9,41.1,26.9,41.1,26.9
	z M72.4,64.1L64.5,42c-0.8-2.4-3.1-4-5.6-4H41.2c-2.5,0-4.8,1.6-5.6,4l-7.9,22.1c-0.6,1.7,0.3,3.7,2,4.3c0.2,0.1,0.4,0.1,0.6,0.1
	c1.7,0.2,3.3-0.8,3.8-2.4l7.2-18.5c0.1-0.4,0.5-0.6,0.9-0.6h0.1c0.6,0,1,0.4,1,1c0,0.1,0,0.3-0.1,0.4L30.5,81.7
	c-0.2,0.5,0.1,1.1,0.6,1.3c0.1,0,0.2,0.1,0.4,0.1h9c0.6,0,1,0.4,1,1v19.4c0,1.7,1.1,3.1,2.7,3.5c1.8,0.4,3.6-0.8,3.9-2.6
	c0-0.2,0.1-0.4,0.1-0.7V84.1c0-0.6,0.4-1,1-1h1.8c0.6,0,1,0.4,1,1v19.4c0,1.7,1.1,3.1,2.7,3.5c1.8,0.4,3.6-0.8,3.9-2.6
	c0-0.2,0.1-0.4,0.1-0.7V84.1c0-0.6,0.4-1,1-1h9c0.6,0,1-0.4,1-1c0-0.1,0-0.2-0.1-0.4L56.9,48.3c-0.2-0.5,0.1-1.1,0.6-1.3
	c0.1,0,0.2-0.1,0.4-0.1h0.1c0.4,0,0.8,0.3,0.9,0.6L66,66c0.5,1.6,2.1,2.6,3.8,2.4c1.8-0.3,3.1-2,2.8-3.8
	C72.5,64.4,72.5,64.2,72.4,64.1z"/>
</svg>
