<?xml version="1.0" encoding="utf-8"?>
<!-- Generator: Adobe Illustrator 24.3.0, SVG Export Plug-In . SVG Version: 6.00 Build 0)  -->
<svg version="1.1" id="Layer_1" xmlns="http://www.w3.org/2000/svg" xmlns:xlink="http://www.w3.org/1999/xlink" x="0px" y="0px"
	 viewBox="0 0 5000 2916" style="enable-background:new 0 0 5000 2916;" xml:space="preserve">
<style type="text/css">
	.st0{clip-path:url(#SVGID_2_);fill:#4377B2;}
	.st1{clip-path:url(#SVGID_4_);fill:#4377B2;}
</style>
<g>
	<g>
		<defs>
			<path id="SVGID_1_" d="M4084.3,767.5c17.9-13.9,34.4-29.4,49.5-46.4c28.5-3.4,55.5-8.2,81.1-14.5
				C4177.7,733.4,4133.6,753.2,4084.3,767.5 M3991.9,786.5c16.4-17.8,31.1-37.6,44.5-58.9c31.6-0.4,61.8-2.4,90.6-5.6
				c-16.1,17.7-33.8,33.8-53.1,48.1C4048,777.1,4020.6,782.5,3991.9,786.5z M3936,837.3c18.6-13.9,35.7-29.5,51.7-46.4
				c27.4-3.6,53.7-8.4,78.6-14.7C4028.4,802.8,3984.6,822.8,3936,837.3z M3896.3,794.3c14.4-21.4,27.5-44.5,39.1-69.5
				c33.1,2.2,65.2,3.3,95.8,3.1c-13.9,21.6-29.1,41.5-46.1,59.5C3956.8,791.1,3927.2,793.4,3896.3,794.3z M3846.1,856.4
				c17.2-17.7,32.9-37.2,47.5-58.3c30.3-0.8,59.5-2.8,87.4-6.2c-17.1,17.6-35.4,33.8-55.3,48
				C3900.4,846.8,3873.8,852.2,3846.1,856.4z M3787.9,907c19.2-13.9,37.1-29.4,53.9-46.3c26.4-3.7,51.8-8.6,76-14.9
				C3879.3,872.1,3836,892.5,3787.9,907z M3798.4,793.2c12.6-24.4,23.9-50.6,33.9-78.7c33.9,4.3,67,7.7,98.9,9.9
				c-11.9,25.3-25.2,48.6-40,70.2C3861.4,795.3,3830.4,794.9,3798.4,793.2z M3753.8,864.8c15.4-21.1,29.7-43.7,42.6-68.2
				c31.8,1.8,62.5,2.3,92.1,1.7c-15,21.4-31.3,41.1-49,59C3812.1,861.1,3783.5,863.6,3753.8,864.8z M3700.6,926.2
				c17.9-17.6,34.7-36.8,50.3-57.8c29.1-1,57.2-3.3,84.2-6.8c-17.9,17.6-37,33.7-57.5,47.9C3753,916.4,3727.3,922,3700.6,926.2z
				 M3641,976c19.3-13.7,37.7-28.9,55-45.5c25.5-3.8,49.9-8.9,73.5-15C3730.8,941.1,3688,961.3,3641,976z M3699.3,784.9
				c11.4-27,21.7-55.5,30.8-85.8c33.7,5.9,66.7,10.9,98.8,15c-10.2,28.3-21.9,54.5-34.7,79C3763.5,791.4,3731.9,788.6,3699.3,784.9z
				 M3659.9,864.6c13.9-23.9,26.7-49.4,38.3-76.7c32.2,3.8,63.6,6.7,94,8.5c-13.2,24.7-27.7,47.4-43.4,68.6
				C3720.1,866.1,3690.5,865.9,3659.9,864.6z M3611.5,935.3c16.4-20.9,32-43.1,46.3-67.4c30.3,1.4,59.7,1.7,88.1,0.8
				c-16,21.2-33.4,40.7-51.9,58.4C3667.4,931.1,3639.9,933.8,3611.5,935.3z M3555.3,996c18.7-17.5,36.4-36.4,53.1-57.2
				c28-1.3,55-3.8,81.1-7.4c-18.8,17.6-38.6,33.6-59.7,47.8C3605.8,986.1,3581,991.7,3555.3,996z M3495.7,1044.1
				c19.1-13.3,37.4-27.9,54.9-43.8c24.5-3.9,48-9.1,70.9-15.2C3583,1009.8,3541,1029.4,3495.7,1044.1z M3602.5,771
				c10.7-28.8,20.5-59.1,29.4-91c32.4,6.9,64.1,13,95.2,18.4c-9.2,30.4-19.6,59.1-31.1,86.1C3665.6,781,3634.4,776.3,3602.5,771z
				 M3565.6,857.5c12.9-26.3,24.9-54.1,36-83.5c31.8,5.3,63,9.9,93.3,13.5c-11.8,27.5-25,53-39.1,77
				C3626.5,863.2,3596.4,860.8,3565.6,857.5z M3521.4,936.1c15.2-23.5,29.5-48.7,42.8-75.5c30.6,3.4,60.4,5.8,89.4,7.2
				c-14.5,24.4-30.4,46.8-47.1,67.7C3578.9,936.8,3550.6,937,3521.4,936.1z M3469.3,1005.7c17.5-20.6,34.2-42.6,49.8-66.4
				c28.9,1,57,0.9,84.3-0.2c-17.1,21-35.4,40.2-54.7,57.8C3523.1,1001,3496.6,1004,3469.3,1005.7z M3410.2,1065.8
				c19.5-17.3,38.1-36.1,55.8-56.6c26.8-1.6,52.8-4.3,78-8.1c-19.6,17.5-40.2,33.5-61.9,47.7
				C3459,1055.8,3434.9,1061.3,3410.2,1065.8z M3350.8,1112.1c18.8-12.8,37-26.9,54.5-42.2c23.5-4,46.1-9.3,68.2-15.4
				C3435.5,1078.5,3394.5,1097.5,3350.8,1112.1z M3510.2,753.6c10.5-30.1,20.3-61.5,29.4-94.5c30.4,7.4,60.2,14,89.6,20.3
				c-8.9,32-18.8,62.4-29.6,91.2C3570.4,765.7,3540.4,759.8,3510.2,753.6z M3474.1,845.2c12.5-28.1,24.2-57.7,35.2-88.8
				c30.3,6.3,60.1,12.1,89.3,17c-11.2,29.6-23.2,57.5-36.3,83.8C3533.5,854.1,3504.1,850,3474.1,845.2z M3431.7,930.2
				c14.5-25.8,28.2-53.2,41.2-82.1c29.9,4.8,59.4,9,88,12.2c-13.5,27-28.1,52.1-43.6,75.7C3489.5,935,3461,933.1,3431.7,930.2z
				 M3383,1007.5c16.5-23.1,32.2-48,47.2-74.3c29,2.9,57.2,4.9,84.8,6c-15.9,24-32.9,46.1-50.7,66.8
				C3437.9,1007.5,3410.8,1008,3383,1007.5z M3327.2,1076.1c18.5-20.3,36.3-42,53.3-65.5c27.6,0.6,54.4,0.2,80.5-1.1
				c-18.2,20.8-37.3,39.8-57.4,57.2C3378.9,1070.9,3353.4,1074.1,3327.2,1076.1z M3266.3,1134.8c19.9-16.9,39.1-35.3,57.5-55.2
				c25.7-1.8,50.6-4.8,74.9-8.7c-20,17.1-40.9,32.6-62.6,46.6C3313.6,1124.5,3290.2,1130.1,3266.3,1134.8z M3206.5,1180.1
				c18.5-12.3,36.3-26,53.8-40.5c22.5-4.1,44.3-9.4,65.6-15.5C3288.4,1147.1,3248.5,1165.6,3206.5,1180.1z M3423.9,734.2
				c10.7-31.1,20.8-63.4,30.3-97.2c27.8,7.5,55.6,14.9,82.7,21.5c-9.1,33-18.9,64.5-29.5,94.6C3480.1,747.4,3452,740.9,3423.9,734.2
				z M3387.3,829.5c12.5-29.6,24.5-60.2,35.7-92.7c28.1,6.7,56.2,13.3,83.4,19c-11,31.2-22.8,60.8-35.4,88.9
				C3443.7,840.4,3415.7,835.2,3387.3,829.5z M3345.3,919.4c14.2-27.7,28-56.5,40.9-87.2c28.3,5.7,56.3,11,83.7,15.4
				c-13,29-26.8,56.4-41.5,82.2C3401.3,927.2,3373.6,923.7,3345.3,919.4z M3297.8,1002.9c16-25.4,31.5-52.2,46.2-80.6
				c28.2,4.3,55.8,7.9,82.9,10.6c-15.2,26.5-31.2,51.2-48,74.5C3352.5,1006.7,3325.4,1005.3,3297.8,1002.9z M3244.6,1078.9
				c17.8-22.8,35-47.1,51.4-73c27.4,2.4,54.2,4,80.4,4.7c-17.2,23.6-35.3,45.5-54.1,65.9C3297,1078.2,3271.2,1079,3244.6,1078.9z
				 M3185.4,1146.5c19.5-20,38.4-41.4,56.6-64.5c26.2,0.3,51.8-0.5,76.9-2.1c-19.2,20.5-39.2,39.3-60,56.6
				C3235,1140.9,3210.5,1144.2,3185.4,1146.5z M3123.5,1203.2c20-16.4,39.4-34.1,58.2-53.3c24.6-2.1,48.5-5.3,71.9-9.4
				c-20,16.3-40.7,31.3-62.1,44.8C3169.5,1192.5,3146.8,1198.3,3123.5,1203.2z M3062.7,1247.9c18.5-12.1,36.5-25.5,54.1-39.6
				c20.9-4.1,41.6-8.8,61.6-14.7C3141.6,1215.6,3103,1233.7,3062.7,1247.9z M3344.4,714.2c11.2-31.8,22-64.7,32.3-98.8
				c25.2,7.2,50.3,14.3,75,21c-9.5,33.8-19.6,66.2-30.3,97.3C3396,727.5,3370.3,721,3344.4,714.2z M3306.8,812.1
				c12.7-30.5,24.9-62.3,36.6-95.4c26,6.9,51.7,13.5,77,19.6c-11.2,32.5-23.4,63.1-35.9,92.7C3359,823.9,3333.1,818.2,3306.8,812.1z
				 M3264,905.5c14.3-29,28.3-59.1,41.6-90.9c26.3,6.2,52.3,11.9,77.9,17.1c-13,30.7-26.8,59.6-41.1,87.3
				C3316.7,915.1,3290.6,910.6,3264,905.5z M3216.3,993.7c15.9-27.2,31.6-55.4,46.5-85.5c26.5,5.1,52.6,9.7,78.3,13.6
				c-14.8,28.5-30.4,55.3-46.5,80.8C3268.9,1000.3,3242.9,997.4,3216.3,993.7z M3163.7,1075.6c17.5-25,34.6-51.2,51.1-79.1
				c26.5,3.8,52.4,6.7,77.9,9.1c-16.7,26.1-34.1,50.3-52.1,73.2C3215.5,1078.5,3189.9,1077.5,3163.7,1075.6z M3106.3,1150.2
				c19-22.5,37.5-46.3,55.5-71.8c25.9,2,51.2,3,76.1,3.4c-18.5,23.3-37.7,44.8-57.5,64.9C3156.3,1148.8,3131.6,1150,3106.3,1150.2z
				 M3045,1215.7c20-19.4,39.5-40.1,58.5-62.4c25-0.1,49.4-1.2,73.3-3.1c-19.8,19.8-40.2,38.1-61.2,54.9
				C3092.6,1209.7,3069,1213.1,3045,1215.7z M2981.2,1271.5c20.2-16,40-33.2,59.3-51.8c23.2-2.3,46.1-5.3,68.4-9.5
				c-20,15.6-40.4,30-61.4,43C3025.9,1260.4,3003.8,1266.4,2981.2,1271.5z M2919.5,1315.7c18.6-12,36.8-25.2,54.7-39.1
				c20-4.2,39.8-8.9,59.1-14.8C2996.8,1283.3,2958.8,1301.3,2919.5,1315.7z M3272.8,694.8c12.2-32,23.9-65.2,35.5-99.4
				c22.3,6.8,44,12.9,65.9,19.1c-10.3,34.2-21.1,67.1-32.4,98.9C3319,707.5,3296.2,701.5,3272.8,694.8z M3232.8,794.1
				c13.4-31,26.4-63.5,39.1-96.8c23.3,6.6,46.2,12.7,69,18.8c-11.8,33.1-24,64.9-36.8,95.4C3280.6,806,3256.9,800.3,3232.8,794.1z
				 M3188.7,890c14.7-29.8,29-61.1,43-93.4c24.1,6.3,47.8,12,71.3,17.5c-13.3,31.8-27.3,61.9-41.7,91
				C3237.3,900.4,3213.3,895.5,3188.7,890z M3140.1,981.6c16.1-28.4,31.8-58.1,47.2-89.1c24.6,5.6,48.8,10.5,72.7,15.2
				c-15,30.1-30.7,58.3-46.7,85.6C3189.3,989.9,3165,986.2,3140.1,981.6z M3087,1068c17.6-26.7,34.9-54.4,51.7-83.8
				c24.8,4.6,49.2,8.4,73.2,11.8c-16.6,28-33.8,54.2-51.4,79.3C3136.3,1073.5,3111.9,1071.2,3087,1068z M3029.7,1148.1
				c18.9-24.5,37.5-50.1,55.6-77.4c24.8,3.2,49.1,5.6,73.1,7.5c-18.2,25.6-36.9,49.4-56.1,72
				C3078.5,1150.2,3054.3,1149.6,3029.7,1148.1z M2968.9,1220.6c19.9-21.8,39.5-44.8,58.6-69.4c24.5,1.5,48.4,2.1,72,2
				c-19.5,22.7-39.5,43.6-60,63.3C3016.4,1218.8,2992.8,1220,2968.9,1220.6z M2905.1,1284.7c20.6-18.9,40.8-39.1,60.6-60.8
				c23.4-0.5,46.6-1.4,69.3-3.6c-20.1,19.1-40.8,36.6-61.8,52.9C2951,1278.1,2928.2,1281.9,2905.1,1284.7z M2839.5,1339.7
				c20.6-15.7,41-32.8,61-51c22.3-2.6,44.2-5.9,65.8-10.2c-20.4,15.4-41.1,29.6-62.3,42.6
				C2882.8,1328.1,2861.3,1334.4,2839.5,1339.7z M2776.4,1383.5c18.9-11.9,37.4-25,55.8-38.8c19.3-4.4,38.4-9.3,57.2-15.2
				C2852.8,1350.8,2815.1,1369,2776.4,1383.5z M3210.7,676.4c13.4-32.1,26.5-65.2,39.4-99.3c18.6,5.9,37.5,12,55.9,17.7
				c-11.5,34.2-23.3,67.4-35.5,99.4C3250.7,688.5,3230.7,682.4,3210.7,676.4z M3167.3,776.3c14.4-31.3,28.5-64,42.4-97.4
				c20,6,40.1,12.1,59.8,17.7c-12.7,33.4-25.8,65.8-39.2,96.8C3209.5,788,3188.4,782.2,3167.3,776.3z M3120.5,873.6
				c15.5-30.4,30.6-62.3,45.6-94.8c21.2,6,42.2,11.7,63,17.1c-14,32.3-28.4,63.6-43.1,93.5C3164.4,884.4,3142.6,879.2,3120.5,873.6z
				 M3070.1,967.5c16.6-29.1,32.9-59.9,49.1-91.4c22.1,5.6,43.9,10.8,65.6,15.7c-15.4,31-31.2,60.8-47.3,89.2
				C3115.2,976.9,3092.8,972.5,3070.1,967.5z M3015.9,1057.1c17.8-27.6,35.3-56.9,52.6-87c22.7,5,45.1,9.4,67.3,13.5
				c-16.8,29.4-34.1,57.3-51.7,83.9C3061.7,1064.6,3038.9,1061.1,3015.9,1057.1z M2957.9,1141.5c19-25.9,37.7-53.2,56.2-81.7
				c23.1,4,45.8,7.4,68.2,10.4c-18.2,27.4-36.9,53.2-55.9,77.8C3003.9,1146.6,2981,1144.1,2957.9,1141.5z M2896.4,1219.7
				c20.1-23.8,40-48.8,59.5-75.3c23,2.7,45.8,5,68.2,6.5c-19.3,24.8-39.1,48.1-59.3,70C2942.4,1221.2,2919.5,1220.7,2896.4,1219.7z
				 M2831.9,1290.7c20.9-21.4,41.7-43.9,62.1-68c22.8,1.1,45.3,1.8,67.5,1.5c-20.2,21.9-40.9,42.2-61.9,61.3
				C2877.3,1288.1,2854.8,1289.8,2831.9,1290.7z M2765.2,1353.8c21.4-18.7,42.6-38.5,63.6-59.7c22.3-0.8,44.4-2.2,66.1-4.6
				c-20.8,18.7-42,36.1-63.5,52.1C2809.6,1346.5,2787.6,1350.6,2765.2,1353.8z M2697.6,1407.9c21.3-15.6,42.3-32.3,63.2-50.3
				c21.4-2.9,42.5-6.5,63.3-11c-20.7,15.2-41.7,29.2-63,42C2740.2,1395.9,2719.1,1402.4,2697.6,1407.9z M2632,1451.8
				c19.7-12.1,39.3-25.1,58.7-39c18.6-4.5,37-9.7,55.3-15.6C2708.7,1418.6,2670.8,1437.1,2632,1451.8z M3158.1,660.4
				c14.5-32,28.9-64.8,43.1-98.8c15.7,5.1,31.1,9.8,46.6,14.7c-12.9,34.1-26.1,67.2-39.5,99.3C3191.6,670.7,3175,665.8,3158.1,660.4
				z M3110.8,759.9c15.5-31.6,31.1-63.5,46.3-97.1c16.9,5.3,33.6,10.3,50.3,15.3c-14,33.4-28.1,66.1-42.5,97.5
				C3147,770.6,3128.9,765.3,3110.8,759.9z M3060.6,857.5c16.5-30.8,32.8-62.4,49-95.3c18.1,5.4,36.2,10.8,54.1,15.8
				c-15,32.6-30.2,64.5-45.8,94.9C3099.1,868.1,3079.8,862.8,3060.6,857.5z M3007.5,952.7c17.4-29.8,34.7-60.7,51.9-92.7
				c19.2,5.3,38.4,10.7,57.3,15.5c-16.2,31.6-32.5,62.3-49.2,91.5C3047.7,962.6,3027.6,957.6,3007.5,952.7z M2951.2,1044.5
				c18.4-28.6,36.7-58.5,54.8-89.4c20,5,40.1,10,59.8,14.4c-17.4,30.2-34.9,59.5-52.8,87.1
				C2992.7,1053.1,2971.9,1048.8,2951.2,1044.5z M2891.6,1132.1c19.4-27.1,38.7-55.6,57.8-85.1c20.7,4.3,41.4,8.7,61.7,12.3
				c-18.5,28.5-37.2,56-56.3,81.8C2934.1,1138.8,2912.9,1135.5,2891.6,1132.1z M2828.9,1214.7c20.4-25.3,40.6-52,60.7-79.9
				c21.2,3.4,42.3,6.8,63,9.3c-19.6,26.5-39.5,51.7-59.7,75.6C2871.9,1218.6,2850.5,1216.8,2828.9,1214.7z M2763.1,1291.2
				c21.3-23.4,42.5-47.8,63.5-73.7c21.4,2.2,42.7,4.1,63.7,5.1c-20.5,24.1-41.3,46.9-62.4,68.3
				C2806.6,1291.7,2785,1291.8,2763.1,1291.2z M2695.1,1360.8c21.9-21,43.8-43,65.4-66.7c21.5,0.7,42.8,0.8,63.8,0.1
				c-21.2,21.4-42.7,41.5-64.4,60.2C2738.6,1357.4,2717,1359.5,2695.1,1360.8z M2625.6,1422.8c22.2-18.4,44.3-37.7,66.3-58.6
				c21.3-1.2,42.4-3.1,63.2-5.7c-21.5,18.3-43.2,35.5-65.1,51.3C2668.7,1414.9,2647.3,1419.3,2625.6,1422.8z M2555.8,1476.2
				c21.9-15.5,43.8-31.8,65.5-49.7c20.6-3.1,40.9-7.1,61-11.8c-21,14.9-42.2,28.8-63.6,41.5
				C2597.9,1463.7,2577,1470.5,2555.8,1476.2z M2490.2,1518.8c19.9-12,39.8-24.2,59.5-38c17.9-4.6,35.7-10.1,53.4-16.1
				C2565.9,1485.7,2528.3,1504,2490.2,1518.8z M3114.6,646.3c15.8-31.7,31.5-64.6,47.2-97.8c12.4,4.1,24.8,8.4,37.1,12.4
				c-14.2,34-28.6,66.8-43.1,98.8C3142.2,655.4,3128.4,650.8,3114.6,646.3z M3063.9,745.6c16.6-31.2,33.1-64,49.6-97
				c13.8,4.5,27.7,9.1,41.4,13.4c-15.3,33.6-30.8,65.5-46.4,97.1C3093.7,754.8,3078.8,750.3,3063.9,745.6z M3009.5,843.3
				c17.8-31.1,35.5-62.3,53.1-95.3c15,4.7,29.9,9.2,44.7,13.6c-16.2,32.9-32.6,64.5-49.1,95.3C3042.1,852.4,3026,848.1,3009.5,843.3
				z M2952.8,938.9c18.5-30.1,37-61.1,55.4-93.2c16.5,4.8,32.5,9.1,48.7,13.6c-17.2,32-34.5,63-52,92.8
				C2987.6,947.8,2970.4,943.7,2952.8,938.9z M2893.6,1031.9c19.3-29.1,38.6-59.4,57.8-90.6c17.6,4.7,34.8,9,52.1,13.2
				c-18.2,30.9-36.5,60.8-55,89.4C2930.3,1040.1,2912.1,1036.2,2893.6,1031.9z M2831.6,1121.6c20.2-27.9,40.3-57.2,60.3-87.3
				c18.5,4.4,36.7,8.4,54.8,12.2c-19.2,29.6-38.5,58.1-58,85.2C2869.8,1128.6,2850.8,1125.3,2831.6,1121.6z M2766.9,1207.2
				c21-26.4,41.9-54.4,62.8-83.2c19.2,3.8,38.2,7.2,57,10.3c-20.2,27.9-40.5,54.7-60.9,80.1
				C2806.3,1212.4,2786.8,1210.1,2766.9,1207.2z M2699.8,1287.9c21.7-24.7,43.4-51,65-78.1c19.7,2.9,39.3,5.4,58.6,7.4
				c-21.1,26-42.3,50.6-63.7,74C2739.9,1290.5,2720,1289.5,2699.8,1287.9z M2630,1362.7c22.5-22.8,44.9-46.8,67.3-72.1
				c20.1,1.7,40,2.8,59.7,3.5c-21.8,23.7-43.8,45.9-65.8,67C2670.9,1362.2,2650.6,1362.9,2630,1362.7z M2558.6,1430.9
				c22.9-20.6,45.8-42.1,68.6-65.2c20.3,0.2,40.5-0.3,60.4-1.3c-22.2,21-44.5,40.6-67,59.1
				C2600.1,1426.6,2579.5,1429.2,2558.6,1430.9z M2486.4,1491.7c22.9-18.1,45.9-37.1,68.7-57.5c20.4-1.5,40.5-3.9,60.5-6.9
				c-22.1,18-44.4,34.9-66.8,50.5C2528.3,1483.2,2507.5,1488,2486.4,1491.7z M2415.2,1543.9c22.3-15.2,44.5-31.1,66.8-48.5
				c19.9-3.4,39.6-7.8,59.2-12.7c-21.3,14.6-42.7,28.4-64.2,40.9C2456.5,1531.3,2435.9,1538.1,2415.2,1543.9z M2351.5,1584.1
				c18.9-11.1,37.7-22.4,56.5-35.1c17.6-4.8,35.1-10.7,52.6-16.7C2424.5,1552.4,2388.1,1569.6,2351.5,1584.1z M3080.5,635.3
				c17.5-31.8,35-63.2,52.5-96.5c8.9,3,17.8,6.1,26.6,9c-15.7,33.2-31.4,66.1-47.3,97.9C3101.8,642.2,3091.2,638.8,3080.5,635.3z
				 M3025.1,733.6c18.1-31.3,36.1-63.3,54.2-96c10.7,3.6,21.3,6.9,31.9,10.4c-16.5,33-33,65.9-49.6,97
				C3049.4,741.2,3037.4,737.5,3025.1,733.6z M2967.9,830.6c18.6-30.4,37.2-62.6,55.9-94.8c12.3,4,24.4,7.7,36.6,11.5
				c-17.6,33-35.4,64.3-53.2,95.4C2994.2,838.8,2981,834.6,2967.9,830.6z M2907.4,926c19.7-30.3,39.4-60.9,59.1-93.1
				c13.1,4,26.4,8.3,39.4,12.2c-18.4,32.1-36.9,63.1-55.4,93.2C2936.2,934.4,2921.7,930.1,2907.4,926z M2844.4,1019.5
				c20.5-29.6,41-59.7,61.5-91.2c14.4,4.1,28.9,8.4,43.1,12.3c-19.3,31.2-38.6,61.5-57.9,90.6
				C2875.6,1027.5,2860,1023.6,2844.4,1019.5z M2779.1,1110.6c21.2-28.5,42.4-58.1,63.6-88.7c15.7,4.1,31.2,8,46.7,11.7
				c-20.1,30.1-40.3,59.5-60.5,87.4C2812.4,1117.7,2795.9,1114.4,2779.1,1110.6z M2711.5,1198.5c21.9-27.3,43.8-55.9,65.7-85.4
				c16.8,3.8,33.3,7.1,49.8,10.4c-21,28.8-42,56.8-63,83.3C2746.6,1204.2,2729.2,1201.7,2711.5,1198.5z M2641.9,1282.3
				c22.5-25.8,45-53.1,67.5-81.2c17.7,3.3,35,5.7,52.4,8.2c-21.7,27.2-43.5,53.5-65.3,78.2
				C2678.4,1286.1,2660.3,1284.7,2641.9,1282.3z M2570.4,1361.1c23-24.1,46.1-49.8,69.1-76.2c18.4,2.4,36.4,3.9,54.4,5.5
				c-22.4,25.3-44.9,49.5-67.5,72.3C2607.9,1362.5,2589.3,1362.3,2570.4,1361.1z M2497,1434.1c23.5-22.3,47.1-45.7,70.7-70.4
				c18.8,1.3,37.4,1.6,55.9,1.8c-23,23.2-46,44.9-69.1,65.5C2535.5,1432.6,2516.3,1433.9,2497,1434.1z M2422.9,1500.5
				c23.6-20.1,47.3-40.9,71.1-63.4c19.2-0.2,38.2-1.4,57.1-2.8c-23.2,20.7-46.5,39.8-69.8,58
				C2461.9,1495.7,2442.5,1498.5,2422.9,1500.5z M2349.2,1559.4c23.1-17.4,46.3-35.6,69.6-55.2c19.5-1.9,38.8-4.8,58-8
				c-23.1,17.9-46.2,34.3-69.3,49.8C2388.1,1551.2,2368.7,1555.6,2349.2,1559.4z M2277.7,1609.8c21.9-14.5,43.8-29.5,65.8-46
				c19.1-3.6,38.1-8.2,57-13.1c-22.2,14.7-44.4,28.2-66.6,40.8C2315.3,1598.5,2296.5,1604.2,2277.7,1609.8z M2214,1649.3
				c18.3-10.7,36.6-21.5,55-33.5c16.7-4.8,33.4-10.3,50-16.1C2283.9,1618.9,2248.9,1635,2214,1649.3z M3356.4,76.4
				c-8.6,17.2-17.2,34.3-25.7,51c13.5-30.2,26.9-59.9,40.4-91C3366.1,49.7,3361.3,63.2,3356.4,76.4z M2996.2,724
				c19.5-30.9,39.1-62,58.7-94.4c7.5,2.5,14.7,4.8,22.1,7.2c-18.1,32.7-36.2,64.8-54.2,96C3014,730,3005.1,726.9,2996.2,724z
				 M2934.1,820c20.2-30.6,40.4-61.8,60.7-93.9c8.9,2.9,17.8,6,26.7,8.9c-18.6,32.2-37.3,64.4-55.9,94.8
				C2955.1,826.7,2944.6,823.4,2934.1,820z M2870.2,915.4c20.7-30,41.6-61.4,62.5-93.1c10.6,3.4,21.1,6.6,31.5,9.8
				c-19.7,32.2-39.4,62.9-59.1,93.2C2893.4,922,2881.9,918.9,2870.2,915.4z M2803.7,1008.8c21.5-29.5,43.1-59.8,64.8-91.1
				c11.8,3.6,23.3,6.6,35,10c-20.6,31.5-41.1,61.7-61.6,91.3C2829.2,1015.6,2816.6,1012.3,2803.7,1008.8z M2735,1099.9
				c22.3-28.9,44.6-58.1,67.1-88.9c12.8,3.6,25.5,6.9,38.2,10.3c-21.3,30.6-42.5,60.2-63.8,88.7
				C2762.8,1106.9,2748.9,1103.4,2735,1099.9z M2664.3,1188.7c22.9-27.8,45.8-56.6,68.9-86.4c13.8,3.5,27.7,7.1,41.4,10.3
				c-22,29.5-44,58.1-65.9,85.5C2694.1,1195.3,2679.1,1191.8,2664.3,1188.7z M2591.9,1274.3c23.4-26.6,46.9-54.5,70.5-83.2
				c14.8,3.2,29.7,6.6,44.3,9.4c-22.6,28.1-45.2,55.4-67.8,81.3C2623.3,1279.7,2607.6,1276.9,2591.9,1274.3z M2517.8,1356
				c23.8-25.2,47.7-51.8,71.8-79.1c15.7,2.6,31.5,5.4,47,7.5c-23.2,26.5-46.4,52.2-69.5,76.4
				C2550.8,1359.6,2534.3,1357.8,2517.8,1356z M2442.5,1432.8c24.1-23.4,48.3-48.5,72.6-74.1c16.5,1.8,33,3.6,49.3,4.8
				c-23.7,24.7-47.4,48.3-71,70.6C2476.6,1434.2,2459.5,1433.5,2442.5,1432.8z M2365.8,1503.9c24.4-21.7,48.9-44.3,73.6-68.2
				c17.1,0.8,34.1,1.4,51,1.3c-24.1,22.7-48.1,43.8-72.1,64.1C2400.9,1502.7,2383.3,1503.3,2365.8,1503.9z M2289.2,1568.7
				c24.3-19.5,48.6-39.7,73.1-61.5c17.5-0.6,34.9-1.3,52.3-2.8c-23.9,20.1-47.7,38.6-71.5,56.4
				C2325.2,1564.1,2307.2,1566.4,2289.2,1568.7z M2213.7,1626.2c23.5-17,47.2-34.7,71-53.8c17.7-2.1,35.4-4.3,52.9-7.4
				c-23.1,17.1-46.1,32.7-69.1,47.7C2250.3,1618,2232,1622.2,2213.7,1626.2z M2141.2,1675.5c22-14.2,44.1-28.9,66.4-44.9
				c17.4-3.7,34.8-7.2,52.1-11.9c-21.5,13.7-42.8,26.1-64.2,38.1C2177.5,1663.8,2159.4,1669.8,2141.2,1675.5z M2077.6,1714.2
				c18-10.3,36.1-21.1,54.4-32.6c15.3-4.6,30.6-9.1,45.9-14.5C2144.2,1685.2,2110.9,1700.4,2077.6,1714.2z M3276.6,241.8
				c-7.7,12.9-15.5,25.8-23.2,38.6c15.4-28.8,31-59.1,46.5-89.2C3292.1,208.3,3284.3,225.1,3276.6,241.8z M3325.1,159.6
				c-12.3,21.1-24.5,41.8-36.7,62.4c9.3-20.2,18.6-41.6,27.8-62.2c11-21.3,21.9-42.2,32.9-63.9
				C3341.2,117.2,3333.2,138.8,3325.1,159.6z M3373.7,74.8c-13.6,23.8-27.2,47.8-40.6,70.9c8.5-22.2,16.9-45.9,25.4-68.7
				c12.1-24,24.2-48.9,36.3-73.6C3387.8,27.2,3380.9,51.6,3373.7,74.8z M2909.9,812.5c21.5-30.2,43.2-61.2,65-92.9
				c5.9,2,11.8,3.9,17.7,5.9c-20.3,32-40.6,63.3-60.8,93.9C2924.5,817,2917.3,814.9,2909.9,812.5z M2841.4,906.5
				c22.2-30,44.5-60.3,67-91.8c7.4,2.4,14.7,4.6,22,6.9c-20.9,31.6-41.8,63.2-62.6,93.1C2859,912,2850.2,909.2,2841.4,906.5z
				 M2771.4,999.3c22.6-29.3,45.4-59.8,68.3-90.7c8.8,2.7,17.7,5.7,26.4,8.3c-21.7,31.2-43.3,61.7-64.8,91.1
				C2791.5,1005.3,2781.4,1002.2,2771.4,999.3z M2699.4,1090.8c23.2-28.7,46.7-58.8,70.3-89.2c10,2.9,20.1,6,30.1,8.8
				c-22.5,30.8-44.9,60.1-67.2,88.9C2721.5,1096.6,2710.5,1093.8,2699.4,1090.8z M2624.7,1180.3c24.2-28.3,48.3-56.9,72.8-87.1
				c11.1,3,22.2,5.7,33.2,8.5c-23.1,29.8-46.1,58.6-69,86.5C2649.4,1185.6,2637.1,1183.2,2624.7,1180.3z M2548.8,1266.9
				c24.4-27.2,49-55.1,73.9-84.2c12.5,3,24.7,5.3,37.1,7.9c-23.7,28.7-47.2,56.6-70.7,83.3
				C2575.6,1271.7,2562.3,1269.5,2548.8,1266.9z M2471.7,1350.2c24.8-25.9,49.8-53,74.9-80.9c13.5,2.7,26.8,4.9,40.1,7.1
				c-24.1,27.4-48.2,54-72.1,79.2C2500.4,1354.1,2486.1,1352.3,2471.7,1350.2z M2393.5,1429.7c25-24.5,50.3-50.4,75.7-76.9
				c14.3,2.1,28.6,4,42.7,5.6c-24.5,25.7-48.9,50.8-73.1,74.3C2423.9,1432,2408.7,1431,2393.5,1429.7z M2314.7,1504.4
				c25.1-22.8,50.5-47.2,76-72.1c15.1,1.3,30.1,2.6,45,3.3c-24.8,24-49.4,46.8-73.9,68.5C2346.2,1504.7,2330.5,1504.7,2314.7,1504.4
				z M2235.1,1573.7c25.3-21.2,50.7-43.1,76.4-66.3c15.7,0.3,31.4,0.5,46.9,0.1c-24.8,21.9-49.5,42.3-74,61.9
				C2268,1571.3,2251.5,1572.7,2235.1,1573.7z M2156.1,1636.7c24.9-19.1,49.9-38.7,75.2-59.8c16.2-0.9,32.4-2.1,48.6-3.9
				c-24.4,19.4-48.5,37.3-72.6,54.6C2190.3,1631.2,2173.2,1634.2,2156.1,1636.7z M2079.1,1692.8c23.9-16.6,48-33.8,72.3-52.4
				c16.6-2.4,33.3-5,49.9-8.3c-23.4,16.6-46.5,31.8-69.6,46.4C2114.2,1683.9,2096.6,1688.7,2079.1,1692.8z M2005.9,1741.1
				c22.1-13.8,44.4-28.2,66.8-43.7c16.6-3.8,33.1-7.9,49.7-12.7c-21.5,13.4-42.8,25.6-64.1,37.3
				C2040.8,1728.9,2023.3,1735.3,2005.9,1741.1z M1942.5,1778.9c17.7-10,35.6-20.6,53.5-31.7c14.4-4.6,28.8-9.2,43.3-14.5
				C2006.8,1750,1974.5,1765.4,1942.5,1778.9z M3235.6,328.3c-14.8,21.9-29.5,43.7-44.1,65c11.9-21.5,23.9-43,35.8-65
				c13.1-21.5,26.3-43.7,39.4-65.8C3256.3,284.7,3246,306.6,3235.6,328.3z M3290.6,246.5c-15.7,23.6-31.2,46.5-46.8,69.6
				c11.6-24.3,23.2-48.4,34.8-73.4c13.6-22.8,27.1-45.2,40.7-68.4C3309.8,198.7,3300.2,222.7,3290.6,246.5z M3345.8,161.9
				c-16.3,25.1-32.7,50.6-48.9,75c10.1-25.3,20.3-50.5,30.4-76.5c14.3-24.5,28.7-50.1,43.2-75.4
				C3362.3,111.2,3354,136.5,3345.8,161.9z M3398.8,80.5c-16.2,25.2-32.3,49.5-48.4,74.2c8.5-26.3,17-52.1,25.4-79.2
				c14.1-24.7,28.1-48.9,42.3-73.9C3411.9,28.5,3405.3,54.4,3398.8,80.5z M2822,900.3c23.2-29.2,46.9-59.9,70.5-90.6
				c4.5,1.5,9,2.9,13.5,4.4c-22.5,31.4-44.8,61.8-67,91.7C2833.4,904,2827.7,902.1,2822,900.3z M2747.3,992.3
				c24.2-29.4,48.5-59,73.1-89.8c5.7,1.8,11.4,3.7,17.1,5.5c-22.9,30.8-45.8,61.4-68.4,90.7C2761.8,996.5,2754.6,994.5,2747.3,992.3
				z M2671.1,1083.4c24.6-28.8,49.4-58.6,74.4-88.9c7.3,2.2,14.5,4.3,21.8,6.4c-23.6,30.4-47.1,60.6-70.3,89.3
				C2688.3,1087.9,2679.8,1085.9,2671.1,1083.4z M2594,1172.5c24.7-27.8,50-57.4,75.2-86.9c8.7,2.4,17.3,4.6,25.9,6.9
				c-24.5,30.2-48.8,58.9-73,87.2C2612.8,1177.5,2603.3,1174.9,2594,1172.5z M2514.3,1259.4c25.7-27.6,51.5-55.3,77.7-84.7
				c9.3,2.4,18.8,5.1,28,7.4c-24.8,29.1-49.5,57-74,84.2C2535.6,1264.2,2524.9,1261.7,2514.3,1259.4z M2433.5,1344
				c26-26.5,52.2-53.8,78.7-82.2c10.6,2.3,21.2,4.8,31.8,6.9c-25.2,27.9-50.3,55.1-75.2,81C2457,1348,2445.3,1346.1,2433.5,1344z
				 M2351.6,1425.5c26.2-25.3,52.7-51.8,79.4-79c11.8,2.1,23.6,4,35.3,5.7c-25.5,26.6-50.9,52.6-76,77.1
				C2377.4,1428.2,2364.6,1427.1,2351.6,1425.5z M2269.2,1503.3c26.2-23.9,52.8-49.2,79.6-75c13,1.6,25.8,2.7,38.7,3.8
				c-25.6,25-51.2,49.4-76.4,72.3C2297.2,1504.1,2283.3,1504.1,2269.2,1503.3z M2187.1,1576c26-22.2,52.4-45.9,79-70
				c14,0.9,27.8,1,41.7,1.2c-25.8,23.3-51.4,45.5-76.7,66.7C2216.4,1574.8,2201.8,1575.9,2187.1,1576z M2104.7,1643.3
				c26.1-20.6,52.3-41.8,78.9-64.4c14.6-0.1,29.1-1,43.6-1.8c-25.6,21.3-51,41.1-76.1,60.3C2135.7,1639.7,2120.2,1642,2104.7,1643.3
				z M2023.8,1704.7c25.4-18.5,51-37.6,77-58.1c15.2-1.3,30.5-3.3,45.7-5.4c-24.9,18.8-49.5,36.4-73.9,53.2
				C2056.2,1698.2,2040,1701.9,2023.8,1704.7z M1945.4,1759.4c24.2-16.2,48.6-33,73.3-50.9c15.8-2.6,31.5-6,47.3-9.6
				c-23.6,16.1-47,31-70.2,45.3C1979,1749.7,1962.2,1755,1945.4,1759.4z M1871.6,1806.5c22.1-13.4,44.4-27.6,67-42.5
				c15.8-4,31.6-8.6,47.5-13.6c-21.5,13-42.7,25-63.8,36.5C1905.3,1793.8,1888.3,1800.7,1871.6,1806.5z M1817.5,1838.8
				c14.4-8.1,29.1-17.4,43.7-26.1c13.6-4.5,27.3-9.6,41-14.9C1873.6,1812.8,1845.3,1826.5,1817.5,1838.8z M3064.9,581.3
				c-8.5,10.8-17,21.6-25.5,32.4c19.6-27,39.7-55.6,59.6-84.1C3087.5,547.4,3076.3,563.9,3064.9,581.3z M3105.8,529.4
				c-8,10.3-15.8,20-23.9,30.3c6.9-10.6,13.7-20.6,20.6-31.4C3103.6,528.7,3104.7,529.1,3105.8,529.4z M3129.3,498.9
				c-7.3,9.4-14.6,19.2-21.9,28.5c-1.2-0.4-2.4-0.8-3.6-1.2c6.3-9.9,12.7-20.2,19-30.1c14.5-20.7,28.8-40.5,43.4-61.6
				C3153.8,456.3,3141.5,477.7,3129.3,498.9z M3256.1,331.4c-18.2,24.4-36.1,47.8-54.1,71.6c11.9-24,23.8-49.1,35.7-73.9
				c16.3-24.1,32.5-47.7,48.9-72.4C3276.4,281.9,3266.3,307.1,3256.1,331.4z M3318,246.8c-18.6,25.5-37.5,51.6-55.8,76.3
				c10.3-24.6,20.4-50.5,30.7-75.9c16.6-25,33.6-51.5,50.4-77.4C3334.8,195.7,3326.5,221.9,3318,246.8z M3377.7,165.2
				c-18.5,25.5-36.7,50.2-55,75.2c8.5-25.1,16.8-51.8,25.2-77.7c16.5-25.2,32.8-50.1,49.4-75.7
				C3390.8,113.1,3384.4,139.9,3377.7,165.2z M3436.9,82c-18.5,26-37.2,52.8-55.3,77.9c6.7-25.4,12.9-52.5,19.4-78.7
				c16.3-25.4,33-52.4,49.5-78.7C3446,29,3441.8,56.4,3436.9,82z M3109.6,528.1c3.4-4.4,6.8-8.8,10.2-13.2
				c-2.7,4.7-5.4,9.3-8.1,13.9L3109.6,528.1z M3036.7,620.6c4.4-5.6,8.7-11,13.1-16.6c-3.8,5.8-7.6,11.5-11.4,17.2
				C3037.9,621,3037.3,620.8,3036.7,620.6z M2732.3,987.9c25.1-28.5,50.8-59,76.4-89.2c3.1,1,6.2,2,9.4,3
				c-24.6,30.8-48.9,60.5-73.1,89.9C2740.7,990.3,2736.6,989.2,2732.3,987.9z M2651.8,1077.7c26-28.7,52.1-57.4,78.6-87.6
				c4.3,1.3,8.5,2.5,12.7,3.7c-25,30.3-49.8,60.1-74.4,88.9C2663.1,1081.1,2657.4,1079.3,2651.8,1077.7z M2570.3,1166.3
				c26.2-28.1,52.8-56.9,79.5-86.4c5.6,1.6,11.3,3.4,16.9,5.1c-25.2,29.5-50.5,59.2-75.2,86.9
				C2584.5,1170.1,2577.4,1168.2,2570.3,1166.3z M2487.7,1253.7c26.5-27.2,53.5-56.3,80.5-85.1c7.1,1.9,14.2,3.8,21.3,5.6
				c-26.2,29.4-52,57.2-77.8,84.7C2503.7,1257.2,2495.7,1255.5,2487.7,1253.7z M2403,1338.7c27.2-26.8,54.5-54.1,82.3-82.7
				c8.1,1.9,16.1,3.5,24.2,5.2c-26.6,28.4-52.8,55.7-78.9,82.3C2421.4,1342,2412.3,1340.5,2403,1338.7z M2318,1420.7
				c27.3-25.8,54.8-52.1,82.7-79.7c9.2,1.8,18.3,3.4,27.5,5c-26.8,27.3-53.4,53.8-79.7,79.2
				C2338.4,1423.9,2328.2,1422.3,2318,1420.7z M2232.4,1499.8c27.3-24.6,55-50.2,82.9-76.5c10.1,1.5,20.3,3.4,30.3,4.7
				c-26.9,25.9-53.6,51.2-79.9,75.1C2254.7,1502.3,2243.6,1500.8,2232.4,1499.8z M2147,1575c27.1-23.1,54.7-47.7,82.5-72.6
				c11.1,1.1,22.3,2.5,33.3,3.3c-26.7,24.2-53.3,48-79.4,70.2C2171.3,1575.9,2159.1,1575.4,2147,1575z M2061.8,1645.7
				c26.8-21.5,54.1-44.4,81.6-67.8c12.1,0.4,24.3,0.9,36.4,0.9c-26.7,22.7-53.2,44.1-79.3,64.7
				C2087.7,1644.6,2074.7,1645.2,2061.8,1645.7z M1977.1,1711.2c26.7-20,53.5-40.4,80.8-62.3c12.9-0.5,25.8-1.1,38.6-2.1
				c-26.3,20.7-52.2,39.9-78,58.6C2004.8,1707.7,1990.9,1709.6,1977.1,1711.2z M1894.7,1770.8c25.6-17.8,51.4-36.2,77.6-55.8
				c13.8-1.6,27.5-3.5,41.3-5.8c-25.3,18.3-50.3,35.3-75.1,51.7C1923.9,1764.5,1909.2,1767.8,1894.7,1770.8z M1816.1,1823.5
				c23.8-15.3,47.8-31.4,72.2-48.3c14.4-2.8,28.9-6.2,43.4-9.7c-23.8,15.6-47.3,30.2-70.6,44.2
				C1846.1,1814.6,1831.1,1819.3,1816.1,1823.5z M1745,1867.9c20.4-12.1,41.1-25.2,62-38.5c14.5-4,29.1-8.7,43.7-13.4
				c-21.3,12.6-42.5,24.5-63.4,35.7C1773.2,1857.4,1759.1,1862.7,1745,1867.9z M1690,1899.6c12.9-7.2,26.1-15,39.3-22.6
				c12.1-4.2,24.5-9.3,36.8-14.1C1740.4,1876.1,1715,1888.4,1690,1899.6z M2933.4,752.8c-12.4,14-24.4,27.3-36.7,41.1
				c21.4-26,43-52.1,64.6-78.8C2952.1,727.5,2942.7,740.6,2933.4,752.8z M2965.1,716.3c-4.2,4.8-8.5,9.8-12.6,14.6
				c3.7-4.9,7.4-10,11.1-15L2965.1,716.3z M3008.6,666.3c-13.9,16.1-27.8,32.1-41.6,47.9l-1.7-0.6c9.7-13,19.3-26.1,29-39.2
				c13.5-16.8,27.1-34.3,40.8-51.8c0.6,0.2,1.3,0.4,1.9,0.7C3027.5,637.8,3018,652.3,3008.6,666.3z M3043.8,625.7
				c-7.9,9.2-15.8,18.2-23.8,27.4c6.4-9.5,12.8-19.4,19.2-29C3040.7,624.7,3042.3,625.2,3043.8,625.7z M3079,584.7
				c-11.2,13.1-22.4,26.1-33.5,39c-1.6-0.5-3.3-1.1-4.9-1.7c8.7-13.2,17.5-26.2,26.3-39.6c13.8-17.6,27.4-34.6,41.1-52.2l2.5,0.8
				C3100,549.1,3089.5,567.2,3079,584.7z M3121.1,534.6c-11.2,13.3-22.4,26.9-33.4,39.8c8.3-14,16.6-28.4,25-42.7
				C3115.4,532.7,3118.2,533.7,3121.1,534.6z M3286.9,334.3c-21,25.9-42.4,52.5-63.1,77.6c11.5-26.3,23-52.5,34.4-79.7
				c18.8-25.2,38.1-52,57.2-78.1C3306,281.5,3296.4,307.9,3286.9,334.3z M3353.3,252.6c-20.8,25.8-41.4,51-62.1,76.4
				c9.7-26.9,19.4-53.5,28.9-81.4c18.6-25.4,37.2-50.6,55.9-76.4C3368.6,199.1,3360.9,225.7,3353.3,252.6z M3418.9,170.1
				c-20.7,26.1-41.6,52.7-62,78c7.7-27.2,15.5-54,23-82.2c18.4-25.4,37.3-52.3,55.9-78.6C3430.4,115.8,3424.6,142.7,3418.9,170.1z
				 M3483.4,88.3c-20.5,26-41,52.2-61.3,77.8c5.7-27.7,11.7-54.7,17.1-83.4c18.3-25.7,36.8-51.9,55.2-78
				C3491,33.5,3487.1,60.6,3483.4,88.3z M3125,533.3c7-8.3,13.9-16.5,20.8-24.8c-4.6,8.9-9.2,18.4-13.8,27.2L3125,533.3z
				 M3081,585.8c13.9-16.3,28.1-33.4,42.3-50.4l7.6,2.6c-17.5,33.3-35,64.8-52.6,96.6c-7.4-2.4-14.6-4.6-22-7.1
				C3064.5,613.8,3072.8,599.6,3081,585.8z M3047.8,624.5c8.2-9.4,16.3-18.7,24.6-28.4c-6.1,10.2-12.2,20.5-18.3,30.6
				C3052,626,3049.9,625.2,3047.8,624.5z M3010.5,667.4c11.9-13.7,23.7-27.3,35.5-40.9c2.2,0.8,4.5,1.6,6.7,2.3
				c-19.7,32.3-39.2,63.6-58.7,94.4c-5.8-1.9-11.7-3.9-17.5-5.8C2987.8,700.9,2999.1,684.3,3010.5,667.4z M2969.2,715
				c10-11.5,19.9-22.8,29.9-34.4c-8.3,12.3-16.6,24.1-24.9,36.1C2972.6,716.1,2970.9,715.5,2969.2,715z M2935.4,754
				c10.5-11.9,21.3-24.6,32.1-36.9c1.8,0.6,3.5,1.2,5.3,1.8c-21.8,31.6-43.5,62.9-65.1,93c-4.5-1.4-8.9-2.7-13.4-4.2
				C2907.9,789.8,2921.5,772.3,2935.4,754z M2889,805.8c9-10,18.1-20,27.2-30.2c-8.2,10.7-16.2,20.7-24.3,31.2
				C2891,806.4,2890,806.1,2889,805.8z M2866,831.4c7.1-7.9,14.2-15.8,21.2-23.6c1,0.3,2.1,0.7,3.1,1.1
				c-23.6,30.7-47.3,61.5-70.5,90.7c-3.1-1-6.2-2-9.2-3C2829,874.9,2847.3,853.8,2866,831.4z M2808,895.8c2.1-2.3,4.1-4.6,6.2-6.8
				c-2,2.3-3.9,4.6-5.9,6.9L2808,895.8z M2724.7,985.7c27-28.9,53.9-57.7,81.4-87.8l0.3,0.1c-25.6,30.2-51.3,60.5-76.4,89.2
				C2728.2,986.7,2726.5,986.2,2724.7,985.7z M2641.1,1074.5c26.8-27.9,54.2-57.3,81.5-86.6c1.8,0.6,3.6,1.1,5.3,1.6
				c-26.6,30.3-52.5,58.7-78.6,87.5C2646.7,1076.1,2643.9,1075.3,2641.1,1074.5z M2555.3,1162.3c27.7-28,55.4-56.3,83.7-85.7
				c2.8,0.8,5.6,1.7,8.4,2.5c-26.8,29.6-53.3,58.3-79.6,86.5C2563.7,1164.5,2559.5,1163.5,2555.3,1162.3z M2468.2,1249.2
				c28-27.6,56.3-55.6,84.9-84.6c4.2,1.2,8.4,2.2,12.6,3.3c-27.1,29-54.2,57.9-80.7,85.2C2479.4,1251.8,2473.8,1250.6,2468.2,1249.2
				z M2381.1,1333.9c27.8-26.5,56.3-54.5,84.8-82.5c5.6,1.4,11.1,2.7,16.7,4c-27.8,28.6-55.1,55.8-82.3,82.7
				C2394,1336.8,2387.5,1335.2,2381.1,1333.9z M2292.4,1416.5c28.4-26,57.1-52.7,86.2-80.4c6.5,1.4,13,2.9,19.4,4.3
				c-28,27.7-55.6,53.9-83,79.8C2307.5,1419.1,2300,1417.8,2292.4,1416.5z M2202.7,1496.8c28.7-25.3,57.6-50.9,87.1-77.8
				c7.6,1.3,15.2,2.6,22.7,3.7c-28.1,26.5-55.8,52-83.2,76.7C2220.4,1498.6,2211.6,1497.9,2202.7,1496.8z M2113,1574
				c28.5-24,57.4-48.8,86.6-74.5c8.9,1.1,17.7,1.8,26.6,2.6c-27.9,25.1-55.7,49.6-83,72.8C2133.2,1574.7,2123.2,1574.7,2113,1574z
				 M2024.9,1646.8c27.9-22.3,56.4-46.1,85-70.1c10,0.7,20,0.9,29.9,1.2c-27.6,23.5-55.1,46.5-82,68.1
				C2046.8,1646.4,2035.8,1646.7,2024.9,1646.8z M1937.4,1715c27.5-20.8,55.4-42.8,83.7-65.4c10.9,0,21.7-0.1,32.5-0.5
				c-27.6,22-54.6,42.6-81.5,62.7C1960.6,1713.2,1949,1714.2,1937.4,1715z M1851.2,1778.3c27.1-19.3,54.2-38.9,82.1-60
				c11.4-0.8,22.7-1.5,34.1-2.7c-26.8,20-53,38.5-79,56.6C1875.9,1774.5,1863.6,1776.4,1851.2,1778.3z M1768.1,1835.6
				c25.6-17.2,51.5-34.9,77.9-53.6c12-1.7,23.9-3.2,36-5.4c-25.3,17.5-50.2,33.8-74.9,49.6C1794,1829.8,1781.1,1832.7,1768.1,1835.6
				z M1690.2,1886.3c23.4-14.6,47.2-30.1,71.2-46.1c12.3-2.7,24.5-5.1,36.9-8.2c-23.2,14.7-46.2,28.7-68.8,41.9
				C1716.2,1878.4,1703.2,1882.2,1690.2,1886.3z M1622.2,1928c19.1-11.1,38.8-23.7,58.3-35.8c12-3.6,23.9-7,36-10.9
				c-20,11.5-40,22.8-59.6,33.2C1645.1,1919.5,1633.7,1923.5,1622.2,1928z M1563.5,1960.5c13.9-7.6,27.8-15.1,41.9-23.2
				c8.6-3.2,17.1-6.4,25.7-9.7C1608.3,1939.3,1585.7,1950.4,1563.5,1960.5z M3166.1,430.6l-1.7-0.6c11.4-18.2,22.7-35.6,34.1-54.1
				c-6.9,12.5-13.8,25.2-20.7,37.5C3173.9,419.2,3169.9,425.1,3166.1,430.6z M3177.9,434.8c-2.6-0.9-5.2-1.8-7.8-2.7
				c3.2-5.8,6.5-11.9,9.8-17.7c16.4-23.8,33-48.4,49.5-73c-11.7,24.2-23.4,48.3-35.1,71.8C3188.8,420.4,3183.3,427.6,3177.9,434.8z
				 M3182.5,436.4c-0.8-0.3-1.6-0.6-2.4-0.8l8.6-11.3C3186.6,428.4,3184.5,432.3,3182.5,436.4z M3198.7,442
				c-4.7-1.6-9.4-3.2-14.1-4.9c3.9-7.8,7.8-15.2,11.7-23c18.6-24.6,37-48.5,55.8-73.6c-11.2,26.5-22.4,52.3-33.6,77.9
				C3211.9,426.4,3205.4,434,3198.7,442z M3207.2,444.8c-2.1-0.7-4.1-1.3-6.2-2c4.9-5.9,9.7-11.5,14.5-17.3
				C3212.7,431.8,3210,438.6,3207.2,444.8z M3241.1,456.1c-10.6-3.5-21.1-6.9-31.8-10.5c3.8-8.5,7.5-17.5,11.3-26.1
				c21-25.5,42.7-52.5,64.1-78.9C3270.3,380.1,3255.8,418.6,3241.1,456.1z M3285.9,470.9c-14.1-4.6-28.3-9.3-42.6-14.1
				c15.4-39.4,30.6-79.9,45.7-121.6c20.9-25.7,41.7-51.2,62.8-77.3C3330.6,332.2,3308.8,403.9,3285.9,470.9z M3339.8,488.3
				c-17.1-5.4-34.3-11-51.6-16.7c23.4-68.6,45.6-142,67.3-218.1c20.6-25.5,41.6-52.2,62.5-78.5
				C3394.4,287.4,3368.4,392.1,3339.8,488.3z M3404,508.1c-20.5-6.2-41.1-12.5-61.9-19.1c29-97.6,55.3-203.8,79-318.1
				c20.4-25.7,41.2-52.2,61.8-78.3C3462.4,246,3436,384.4,3404,508.1z M3478.3,530.2c-23.8-6.9-47.8-14-72-21.4
				c32.3-124.9,58.8-264.8,79.3-419.8c15.9-20.2,31.6-39.8,47.8-60.6c4.5-5.7,8.9-11.4,13.3-17
				C3535.3,208.6,3512.3,381.4,3478.3,530.2z M4280.2,651.2c29.5-3.2,57.4-8,83.6-14.3c-36.7,26.9-80.8,46.8-130.9,60.8
				C4250.2,683.8,4266,668.3,4280.2,651.2z M4179.6,656.9c32.8-0.1,64-1.7,93.7-4.7c-15.3,17.7-32.3,33.8-50.9,48.2
				c-26.6,6.9-54.7,12.4-84.5,16.2C4153.4,698.5,4167.4,678.6,4179.6,656.9z M4074.5,652.6c34.5,2.5,68,4.1,100,4.1
				c-12.7,22.2-27.3,42.3-43.5,60.7c-29.3,3.5-59.8,5.7-92,6.3C4052.5,702,4064.4,678.4,4074.5,652.6z M3966.2,641.1
				c35.8,4.8,70.5,8.5,104.1,11.1c-10.4,26-22.6,49.8-36.5,71.8c-31.1,0.4-63.2-0.2-96.8-2.4
				C3948.3,696.8,3957.9,669.8,3966.2,641.1z M3858.4,624.1c35.7,6.4,70.5,12,104.4,16.5c-8.5,28.8-18.4,55.7-29.9,80.7
				c-32.2-2.1-65.5-5.4-99.7-9.7C3842.8,684.1,3851.2,655,3858.4,624.1z M3754.1,603.4c34.4,7.5,68.1,14.2,101.1,20.2
				c-7.3,30.8-15.7,60.1-25.5,87.5c-32.1-4.1-65.1-9-98.9-14.9C3739.7,666.8,3747.5,636,3754.1,603.4z M3655.5,580.6
				c32.5,8,64.4,15.3,95.8,22.2c-6.7,32.6-14.6,63.5-23.4,92.9c-31.1-5.4-62.8-11.4-95.3-18.3
				C3641.1,646.5,3648.8,614.4,3655.5,580.6z M3564,557.2c30.1,8.1,59.5,15.5,88.8,22.7c-6.7,33.8-14.5,66-23,96.7
				c-29.4-6.3-59.2-12.9-89.6-20.3C3548.8,624.7,3556.8,591.8,3564,557.2z M3480.2,533.5c27.3,7.9,54.6,15.8,81.2,23
				c-7.2,34.5-15.2,67.6-23.9,99.3c-27.1-6.6-54.8-14-82.6-21.4C3463.9,602,3472.2,568.2,3480.2,533.5z M3405.7,511.3
				c24.2,7.4,48.2,14.6,72,21.4c-7.9,34.7-16.3,68.5-25.3,100.9c-24.7-6.6-49.7-13.6-75-20.9
				C3387.3,580.1,3396.7,546.2,3405.7,511.3z M3341.3,491.5c20.9,6.6,41.4,12.9,62,19.1c-9.1,34.9-18.5,68.8-28.3,101.5
				c-21.9-6.3-43.6-12.4-65.9-19.1C3320.1,560.2,3330.9,526.5,3341.3,491.5z M3287.3,474c17.3,5.6,34.6,11.4,51.8,16.8
				c-10.4,35-21.2,68.7-32.3,101.5c-18.4-5.6-37.2-11.8-55.8-17.7C3263.3,542.1,3275.4,508.7,3287.3,474z M3242.4,459.2
				c14.3,4.8,28.5,9.5,42.7,14.1c-11.9,34.7-24,68.1-36.4,100.7c-15.5-4.9-30.8-9.6-46.5-14.7
				C3215.8,526.8,3229.1,493.1,3242.4,459.2z M3208.3,447.9c10.7,3.6,21.2,7,31.9,10.5c-13.3,34-26.7,67.6-40.2,100.1
				c-12.3-4-24.7-8.2-37.1-12.3C3178.1,514.1,3193.3,481.7,3208.3,447.9z M3199.3,444.9c2.3,0.8,4.6,1.5,6.9,2.3
				c-15.1,33.8-30.2,66.2-45.4,98.3c-8.8-3-17.7-6-26.5-9c6-11.6,12.1-23.9,18.1-35.6C3168,482,3183.4,464,3199.3,444.9z
				 M3183.5,439.4c4.5,1.6,9,3.2,13.5,4.7c-13.6,16.4-26.8,31.9-40.3,48C3165.6,474.7,3174.6,457.1,3183.5,439.4z M3178.5,437.6
				c0.9,0.3,1.9,0.7,2.8,1c-10.4,20.6-20.7,41.1-31.1,61.2c-9.2,11-18.3,21.8-27.5,32.8l-8.9-3c5.8-9.9,11.6-19.7,17.4-29.7
				C3146.9,479.6,3162.8,458.3,3178.5,437.6z M3168.9,434.2c2.5,0.9,5,1.8,7.5,2.6c-11.9,15.6-23.8,31.5-35.6,46.9
				C3150.1,467.5,3159.5,450.9,3168.9,434.2z M3163,432.2l1.6,0.6c-6.7,9.7-13.3,19.1-20,28.6C3150.8,451.6,3156.9,442,3163,432.2z
				 M2103.2,0c357.4,162.7,721.4,314.7,1057.7,431.4c-13.4,21.3-26.7,42.4-40,63.6c-7,10-14,19.8-21.1,29.8
				C2708.4,389.8,2276.5,200.2,1862,0h-5.2c415.5,200.9,848.7,391.3,1241.4,526.9c-22,31.2-44,62.4-65.7,92.3
				c-442-151-939.4-381.5-1402.3-619.1h-4.8c463.6,238.2,962.2,469.5,1405.5,621.2c-13.1,18-25.8,34.8-38.8,52.3
				c-10.5,13.2-20.9,25.8-31.3,38.6C2473.4,547.9,1914.6,273.7,1413.6,0h-4.6c501.5,274.2,1061.5,549.2,1550.2,714.3
				c-24.8,30.6-49.5,60.7-74,90.2C2356.4,629.6,1739.8,308,1211.1,0h-4.3c529.1,308.4,1146.7,630.8,1676.7,806.5
				c-6.4,7.7-12.9,15.9-19.3,23.5c-19.5,21.7-39.2,43.8-58.5,65C2239.5,712.8,1569,339.7,1023.3,0h-4.2
				c545.8,340,1217.2,713.9,1784.6,897.1c-27.5,30.1-54.4,58.8-81.5,87.8C2121.5,798.4,1400.9,368.4,849.3,0h-4
				c551.5,368.5,1273,799.5,1874.9,987.1c-27.4,29.4-54.8,58.6-81.6,86.6C2005,887.2,1237,393.3,689.9,0h-3.8
				C1233,393.3,2001.7,888.1,2636.6,1075.9c-28.3,29.5-56.1,57.7-83.8,85.8C1887.2,979.3,1075.5,413.1,544.5,0h-3.6
				c530.6,413,1342.9,980.1,2009.7,1163.9c-28.7,29.1-56.9,57-85,84.6C1767.7,1075.5,916.3,426.1,413.3,0h-3.4
				c502.4,425.8,1354.4,1076.1,2053.5,1250.7c-28.6,28.1-57.1,56-85,82.5C1646.3,1176.5,758.8,429.6,296.5,0h-3.2
				c461.6,429.1,1349.3,1176.9,2082.6,1335.6c-29.2,27.7-57.9,54.4-86.4,80.5C1519.1,1282.5,600.9,418.8,194,0H191
				c405.9,418,1324.3,1282.7,2095.9,1418.5c-29.6,27.1-58.5,52.6-87.4,78C1382.9,1394.3,439.2,384.8,106.1,0h-2.9
				C435,383.6,1378.8,1394.2,2196.5,1499.2c-29.3,25.7-58.2,50.5-86.8,74.5C1230.5,1513.5,263.2,304.2,33.1,0h-2.8
				C258.6,301.9,1226,1512.8,2106.6,1576.3c-28.8,24.2-57.5,47.9-85.5,70.4C1089.1,1644.4,140.8,252.5,0,37.8v4
				c147.4,224.2,1089.9,1601.3,2017.4,1607.7c-28.4,22.6-56.5,44.8-84.1,65.7C992.7,1780.9,133.4,353.3,0,120.9v4.5
				c139.3,242,993.4,1653.7,1929.1,1593.2c-28.2,21.3-55.6,40.9-83,60.4C887.3,1918.6,124.5,458.2,0,205.3v5
				c130.5,264.1,888.6,1705.2,1841,1572.3c-26.9,19.1-53.3,37-79.4,54.4C774.4,2057.2,114.7,571.5,0,292.1v5.9
				c120.2,291.4,776.1,1754.3,1754.8,1543.7c-25.1,16.6-49.7,32.4-74.1,47.5C654.4,2195.7,103,695.8,0,382.9v7.2
				c108.2,326.5,656.8,1797.7,1671,1505c-22,13.5-43.9,26.8-65.3,39.1C531.2,2332.1,89.7,841.1,0,481.8v9.3
				c94.3,373,533.8,1826.1,1588.9,1452.4c-17.1,9.6-34.2,19.4-51,28.2C413.5,2460.7,74.8,1027.4,0,600.6v13.1
				c78.2,437.1,414.2,1812.9,1497.4,1378.6C332.6,2577.3,61.7,1308.3,0,780.3v19.4c66.8,546.1,350.8,1803.7,1537.5,1175.3
				c38.8-16.9,78.5-35.7,119.2-57.3c42.5-17.8,86.1-39.1,130.5-62.9c44.2-18.1,89.3-39.8,135.1-64.8c44.8-18,90.2-39.5,136.2-64.9
				c45.5-17.9,91.3-39.3,137.4-65.1c46.1-17.7,92.3-39.1,138.5-65.3c48.1-18,95.8-40.3,143.2-67.8c48-17.6,95.3-40,141.8-67.4
				c48.6-17.5,96.2-39.7,142.5-67.5c49.3-17.2,97.1-39.5,143.1-67.6c50-16.9,98-39.4,143.7-67.7c50.8-16.6,98.9-39.2,144.2-67.8
				c51.6-16.4,99.8-39.1,144.7-67.9c52.8-16.2,101.6-39.3,146.4-68.7c54.1-16.1,103.3-39.5,147.9-69.6
				c54.8-15.9,104.2-39.2,148.1-69.6c55.6-15.7,105.1-38.9,148.3-69.6c56.3-15.6,106.2-38.5,148.5-69.6
				c57.1-15.5,107.2-38.2,148.8-69.7c58-15.2,108.2-38,148.9-69.7C4611.2,573.4,4705,381.9,4573,0h-3.3
				c128.5,373.8,39.7,564.3-188.1,627.9c128.9-106.7,160-306.2,54.3-627.9h-3c106.6,325.8,72.5,525.8-61.9,630.6
				c-27.2,7-56.2,12.4-87,16c99.9-124.2,116.7-332,21.3-646.6h-3c95.6,316.4,77.2,524.3-25.3,647.5c-30.2,3.4-61.8,5.4-95.3,5.7
				c75.6-138.3,82.6-350.1,0-653.3h-2.8c82.5,303.9,74.6,515.6-2.4,653.3c-32.1,0.1-65.9-1.4-100.6-3.9
				c56.9-148.5,58.4-360.6-10-649.5h-2.7c68.2,289.1,66.2,501,8.5,649.1c-33.7-2.5-68.8-6.2-104.8-11c44.3-154.9,44.6-364.4-9-638.1
				h-2.6c53.5,273.7,52.9,483.1,8.2,637.6c-33.9-4.5-68.7-10-104.5-16.4c36.4-158.2,38.3-363-0.8-621.2h-2.5
				c39,258.2,36.8,462.7,0.2,620.6c-33-5.9-66.7-12.6-101.2-20c32.2-159,37.9-357.6,12.6-600.6h-2.4c25.2,242.9,19.3,441.2-13.1,600
				c-31.4-6.8-63.3-14.1-95.8-22.1c31-157.8,41.7-349.4,29.4-577.9h-2.4c12.2,228.3,1.4,419.7-29.7,577.2
				c-29.2-7.2-58.6-14.5-88.7-22.6c31.9-155.3,48.4-339.7,48.2-554.6h-2.4c0.2,214.7-16.4,398.9-48.4,553.9
				c-26.7-7.2-54-15.2-81.2-23c34.1-149.9,57.1-323.9,68.4-522.7l6.4-8.2h-2.8l-3.4,4.4l0.2-4.4h-2.3l-0.4,7.6
				c-5.1,6.5-10.2,13-15.3,19.6c-15.4,19.8-30.3,38.4-45.4,57.6c3.7-27.9,7.6-55,10.9-83.9l0.6-0.8h-2.8l0,0.2
				c-18.2,25.8-36.5,51.8-54.7,77.3c4.7-24.9,8.8-51.6,13.1-77.4h-3.8c-15.7,25-31.5,50.7-46.9,74.7c6.1-24.9,12.4-49.3,18.4-74.7
				h-4.4c-12.5,22.1-24.9,43.4-37.4,65.3c6.5-21.1,12.7-43.5,19.1-65.3h-4.1c-9.5,19.3-19,38.7-28.4,57.6
				c7-19.1,14.1-38.1,21.1-57.6h-3c-23.2,54.5-46.3,107.4-69.5,158.8c-29.8,57.7-59.5,114.2-89,168.6c-21.1,34.8-42.1,68.5-63,101.9
				C2827.3,313.3,2464.8,162,2108.6,0L2103.2,0L2103.2,0z"/>
		</defs>
		<use xlink:href="#SVGID_1_"  style="overflow:visible;fill:#4377B2;"/>
		<clipPath id="SVGID_2_">
			<use xlink:href="#SVGID_1_"  style="overflow:visible;"/>
		</clipPath>
		<rect y="0" class="st0" width="4705" height="2603.4"/>
	</g>
</g>
<g>
	<g>
		<defs>
			<path id="SVGID_3_" d="M4084.3-767.5c17.9,13.9,34.4,29.4,49.5,46.4c28.5,3.4,55.5,8.2,81.1,14.5
				C4177.7-733.4,4133.6-753.2,4084.3-767.5 M3991.9-786.5c16.4,17.8,31.1,37.6,44.5,58.9c31.6,0.4,61.8,2.4,90.6,5.6
				c-16.1-17.7-33.8-33.8-53.1-48.1C4048-777.1,4020.6-782.5,3991.9-786.5z M3936-837.3c18.6,13.9,35.7,29.5,51.7,46.4
				c27.4,3.6,53.7,8.4,78.6,14.7C4028.4-802.8,3984.6-822.8,3936-837.3z M3896.3-794.3c14.4,21.4,27.5,44.5,39.1,69.5
				c33.1-2.2,65.2-3.3,95.8-3.1c-13.9-21.6-29.1-41.5-46.1-59.5C3956.8-791.1,3927.2-793.4,3896.3-794.3z M3846.1-856.4
				c17.2,17.7,32.9,37.2,47.5,58.3c30.3,0.8,59.5,2.8,87.4,6.2c-17.1-17.6-35.4-33.8-55.3-48
				C3900.4-846.8,3873.8-852.2,3846.1-856.4z M3787.9-907c19.2,13.9,37.1,29.4,53.9,46.3c26.4,3.7,51.8,8.6,76,14.9
				C3879.3-872.1,3836-892.5,3787.9-907z M3798.4-793.2c12.6,24.4,23.9,50.6,33.9,78.7c33.9-4.3,67-7.7,98.9-9.9
				c-11.9-25.3-25.2-48.6-40-70.2C3861.4-795.3,3830.4-794.9,3798.4-793.2z M3753.8-864.8c15.4,21.1,29.7,43.7,42.6,68.2
				c31.8-1.8,62.5-2.3,92.1-1.7c-15-21.4-31.3-41.1-49-59C3812.1-861.1,3783.5-863.6,3753.8-864.8z M3700.6-926.2
				c17.9,17.6,34.7,36.8,50.3,57.8c29.1,1,57.2,3.3,84.2,6.8c-17.9-17.6-37-33.7-57.5-47.9C3753-916.4,3727.3-922,3700.6-926.2z
				 M3641-976c19.3,13.7,37.7,28.9,55,45.5c25.5,3.8,49.9,8.9,73.5,15C3730.8-941.1,3688-961.3,3641-976z M3699.3-784.8
				c11.4,27,21.7,55.5,30.8,85.8c33.7-5.9,66.7-10.9,98.8-15c-10.2-28.3-21.9-54.5-34.7-79C3763.5-791.4,3731.9-788.6,3699.3-784.8z
				 M3659.9-864.6c13.9,23.9,26.7,49.4,38.3,76.7c32.2-3.8,63.6-6.7,94-8.5c-13.2-24.7-27.7-47.4-43.4-68.6
				C3720.1-866.1,3690.5-865.9,3659.9-864.6z M3611.5-935.3c16.4,20.9,32,43.1,46.3,67.4c30.3-1.4,59.7-1.7,88.1-0.8
				c-16-21.2-33.4-40.7-51.9-58.4C3667.4-931.1,3639.9-933.8,3611.5-935.3z M3555.3-996c18.7,17.5,36.4,36.4,53.1,57.2
				c28,1.3,55,3.8,81.1,7.4c-18.8-17.6-38.6-33.6-59.7-47.8C3605.8-986.1,3581-991.7,3555.3-996z M3495.7-1044.1
				c19.1,13.3,37.4,27.9,54.9,43.8c24.5,3.9,48,9.1,70.9,15.2C3583-1009.8,3541-1029.4,3495.7-1044.1z M3602.5-771
				c10.7,28.8,20.5,59.1,29.4,91c32.4-6.9,64.1-13,95.2-18.4c-9.2-30.4-19.6-59.1-31.1-86.1C3665.6-781,3634.4-776.3,3602.5-771z
				 M3565.6-857.5c12.9,26.3,24.9,54.1,36,83.5c31.8-5.3,63-9.9,93.3-13.5c-11.8-27.5-25-53-39.1-77
				C3626.5-863.2,3596.4-860.8,3565.6-857.5z M3521.4-936.1c15.2,23.5,29.5,48.7,42.8,75.5c30.6-3.4,60.4-5.8,89.4-7.2
				c-14.5-24.4-30.4-46.8-47.1-67.7C3578.9-936.8,3550.6-937,3521.4-936.1z M3469.3-1005.7c17.5,20.6,34.2,42.6,49.8,66.4
				c28.9-1,57-0.9,84.3,0.2c-17.1-21-35.4-40.2-54.7-57.8C3523.1-1001,3496.6-1004,3469.3-1005.7z M3410.2-1065.8
				c19.5,17.3,38.1,36.1,55.8,56.6c26.8,1.6,52.8,4.3,78,8.1c-19.6-17.5-40.2-33.5-61.9-47.7
				C3459-1055.8,3434.9-1061.3,3410.2-1065.8z M3350.8-1112.1c18.8,12.8,37,26.9,54.5,42.2c23.5,4,46.1,9.3,68.2,15.4
				C3435.5-1078.5,3394.5-1097.5,3350.8-1112.1z M3510.2-753.6c10.5,30.1,20.3,61.5,29.4,94.5c30.4-7.4,60.2-14,89.6-20.3
				c-8.9-32-18.8-62.4-29.6-91.2C3570.4-765.7,3540.4-759.8,3510.2-753.6z M3474.1-845.2c12.5,28.1,24.2,57.7,35.2,88.8
				c30.3-6.3,60.1-12.1,89.3-17c-11.2-29.6-23.2-57.5-36.3-83.8C3533.5-854.1,3504.1-850,3474.1-845.2z M3431.7-930.2
				c14.5,25.8,28.2,53.2,41.2,82.1c29.9-4.8,59.4-9,88-12.2c-13.5-27-28.1-52.1-43.6-75.7C3489.5-935,3461-933.1,3431.7-930.2z
				 M3383-1007.5c16.5,23.1,32.2,48,47.2,74.3c29-2.9,57.2-4.9,84.8-6c-15.9-24-32.9-46.1-50.7-66.8
				C3437.9-1007.5,3410.8-1008,3383-1007.5z M3327.2-1076.1c18.5,20.3,36.3,42,53.3,65.5c27.6-0.6,54.4-0.2,80.5,1.1
				c-18.2-20.8-37.3-39.8-57.4-57.2C3378.9-1070.9,3353.4-1074.1,3327.2-1076.1z M3266.3-1134.8c19.9,16.9,39.1,35.3,57.5,55.2
				c25.7,1.8,50.6,4.8,74.9,8.7c-20-17.1-40.9-32.6-62.6-46.6C3313.6-1124.5,3290.2-1130.1,3266.3-1134.8z M3206.5-1180.1
				c18.5,12.3,36.3,26,53.8,40.5c22.5,4.1,44.3,9.4,65.6,15.5C3288.4-1147.1,3248.5-1165.6,3206.5-1180.1z M3423.9-734.2
				c10.7,31.1,20.8,63.4,30.3,97.2c27.8-7.5,55.6-14.9,82.7-21.5c-9.1-33-18.9-64.5-29.5-94.6C3480.1-747.4,3452-740.9,3423.9-734.2
				z M3387.3-829.5c12.5,29.6,24.5,60.2,35.7,92.7c28.1-6.7,56.2-13.3,83.4-19c-11-31.2-22.8-60.8-35.4-88.9
				C3443.7-840.4,3415.7-835.2,3387.3-829.5z M3345.3-919.4c14.2,27.7,28,56.5,40.9,87.2c28.3-5.7,56.3-11,83.7-15.4
				c-13-29-26.8-56.4-41.5-82.2C3401.3-927.2,3373.6-923.7,3345.3-919.4z M3297.8-1002.9c16,25.4,31.5,52.2,46.2,80.6
				c28.2-4.3,55.8-7.9,82.9-10.6c-15.2-26.5-31.2-51.2-48-74.5C3352.5-1006.7,3325.4-1005.3,3297.8-1002.9z M3244.6-1078.9
				c17.8,22.8,35,47.1,51.4,73c27.4-2.4,54.2-4,80.4-4.7c-17.2-23.6-35.3-45.5-54.1-65.9C3297-1078.2,3271.2-1079,3244.6-1078.9z
				 M3185.4-1146.5c19.5,20,38.4,41.4,56.6,64.5c26.2-0.3,51.8,0.5,76.9,2.1c-19.2-20.5-39.2-39.3-60-56.6
				C3235-1140.9,3210.5-1144.2,3185.4-1146.5z M3123.5-1203.2c20,16.4,39.4,34.1,58.2,53.3c24.6,2.1,48.5,5.3,71.9,9.4
				c-20-16.3-40.7-31.3-62.1-44.8C3169.5-1192.5,3146.8-1198.3,3123.5-1203.2z M3062.7-1247.9c18.5,12.1,36.5,25.5,54.1,39.6
				c20.9,4.1,41.6,8.8,61.6,14.7C3141.6-1215.6,3103-1233.7,3062.7-1247.9z M3344.4-714.2c11.2,31.8,22,64.7,32.3,98.8
				c25.2-7.2,50.3-14.3,75-21c-9.5-33.8-19.6-66.2-30.3-97.3C3396-727.5,3370.3-721,3344.4-714.2z M3306.8-812.1
				c12.7,30.5,24.9,62.3,36.6,95.4c26-6.9,51.7-13.5,77-19.6c-11.2-32.5-23.4-63.1-35.9-92.7C3359-823.9,3333.1-818.2,3306.8-812.1z
				 M3264-905.5c14.3,29,28.3,59.1,41.6,90.9c26.3-6.2,52.3-11.9,77.9-17.1c-13-30.7-26.8-59.6-41.1-87.3
				C3316.7-915.1,3290.6-910.6,3264-905.5z M3216.3-993.7c15.9,27.2,31.6,55.4,46.5,85.5c26.5-5.1,52.6-9.7,78.3-13.6
				c-14.8-28.5-30.4-55.3-46.5-80.8C3268.9-1000.3,3242.9-997.4,3216.3-993.7z M3163.7-1075.6c17.5,25,34.6,51.2,51.1,79.1
				c26.5-3.8,52.4-6.7,77.9-9.1c-16.7-26.1-34.1-50.3-52.1-73.2C3215.5-1078.5,3189.9-1077.5,3163.7-1075.6z M3106.3-1150.2
				c19,22.5,37.5,46.3,55.5,71.8c25.9-2,51.2-3,76.1-3.4c-18.5-23.3-37.7-44.8-57.5-64.9C3156.3-1148.8,3131.6-1150,3106.3-1150.2z
				 M3045-1215.7c20,19.4,39.5,40.1,58.5,62.4c25,0.1,49.4,1.2,73.3,3.1c-19.8-19.8-40.2-38.1-61.2-54.9
				C3092.6-1209.7,3069-1213.1,3045-1215.7z M2981.2-1271.5c20.2,16,40,33.2,59.3,51.8c23.2,2.3,46.1,5.3,68.4,9.5
				c-20-15.6-40.4-30-61.4-43C3025.9-1260.3,3003.8-1266.4,2981.2-1271.5z M2919.5-1315.7c18.6,12,36.8,25.2,54.7,39.1
				c20,4.2,39.8,8.9,59.1,14.8C2996.8-1283.3,2958.8-1301.3,2919.5-1315.7z M3272.8-694.8c12.2,32,23.9,65.2,35.5,99.4
				c22.3-6.8,44-12.9,65.9-19.1c-10.3-34.2-21.1-67.1-32.4-98.9C3319-707.5,3296.2-701.5,3272.8-694.8z M3232.8-794.1
				c13.4,31,26.4,63.5,39.1,96.8c23.3-6.6,46.2-12.7,69-18.8c-11.8-33.1-24-64.9-36.8-95.4C3280.6-806,3256.9-800.3,3232.8-794.1z
				 M3188.7-890c14.7,29.8,29,61.1,43,93.4c24.1-6.3,47.8-12,71.3-17.5c-13.3-31.8-27.3-61.9-41.7-91
				C3237.3-900.4,3213.3-895.5,3188.7-890z M3140.1-981.6c16.1,28.4,31.8,58.1,47.2,89.1c24.6-5.6,48.8-10.5,72.7-15.2
				c-15-30.1-30.7-58.3-46.7-85.6C3189.3-989.9,3165-986.1,3140.1-981.6z M3087-1068c17.6,26.7,34.9,54.4,51.7,83.8
				c24.8-4.6,49.2-8.4,73.2-11.8c-16.6-28-33.8-54.2-51.4-79.3C3136.3-1073.5,3111.9-1071.2,3087-1068z M3029.7-1148.1
				c18.9,24.5,37.5,50.1,55.6,77.4c24.8-3.2,49.1-5.6,73.1-7.5c-18.2-25.6-36.9-49.4-56.1-72
				C3078.5-1150.2,3054.3-1149.6,3029.7-1148.1z M2968.9-1220.6c19.9,21.8,39.5,44.8,58.6,69.4c24.5-1.5,48.4-2.1,72-2
				c-19.5-22.7-39.5-43.6-60-63.3C3016.4-1218.8,2992.8-1220,2968.9-1220.6z M2905.1-1284.7c20.6,18.9,40.8,39.1,60.6,60.8
				c23.4,0.5,46.6,1.4,69.3,3.6c-20.1-19.1-40.8-36.6-61.8-52.9C2951-1278.1,2928.2-1281.9,2905.1-1284.7z M2839.5-1339.7
				c20.6,15.7,41,32.8,61,51c22.3,2.6,44.2,5.9,65.8,10.2c-20.4-15.4-41.1-29.6-62.3-42.6
				C2882.8-1328.1,2861.3-1334.4,2839.5-1339.7z M2776.4-1383.5c18.9,11.9,37.4,25,55.8,38.8c19.3,4.4,38.4,9.3,57.2,15.2
				C2852.8-1350.8,2815.1-1369,2776.4-1383.5z M3210.7-676.4c13.4,32.1,26.5,65.2,39.4,99.3c18.6-5.9,37.5-12,55.9-17.7
				c-11.5-34.2-23.3-67.4-35.5-99.4C3250.7-688.5,3230.7-682.4,3210.7-676.4z M3167.3-776.3c14.4,31.3,28.5,64,42.4,97.4
				c20-6,40.1-12.1,59.8-17.7c-12.7-33.4-25.8-65.8-39.2-96.8C3209.5-788,3188.4-782.2,3167.3-776.3z M3120.5-873.6
				c15.5,30.4,30.6,62.3,45.6,94.8c21.2-6,42.2-11.7,63-17.1c-14-32.3-28.4-63.6-43.1-93.5C3164.4-884.4,3142.6-879.2,3120.5-873.6z
				 M3070.1-967.5c16.6,29.1,32.9,59.9,49.1,91.4c22.1-5.6,43.9-10.8,65.6-15.7c-15.4-31-31.2-60.8-47.3-89.2
				C3115.2-976.9,3092.8-972.5,3070.1-967.5z M3015.9-1057.1c17.8,27.6,35.3,56.9,52.6,87c22.7-5,45.1-9.4,67.3-13.5
				c-16.8-29.4-34.1-57.3-51.7-83.9C3061.7-1064.6,3038.9-1061.1,3015.9-1057.1z M2957.9-1141.5c19,25.9,37.7,53.2,56.2,81.7
				c23.1-4,45.8-7.4,68.2-10.4c-18.2-27.4-36.9-53.2-55.9-77.8C3003.9-1146.6,2981-1144.1,2957.9-1141.5z M2896.4-1219.7
				c20.1,23.8,40,48.8,59.5,75.3c23-2.7,45.8-5,68.2-6.5c-19.3-24.8-39.1-48.1-59.3-70C2942.4-1221.2,2919.5-1220.7,2896.4-1219.7z
				 M2831.9-1290.7c20.9,21.4,41.7,43.9,62.1,68c22.8-1.1,45.3-1.8,67.5-1.5c-20.2-21.9-40.9-42.2-61.9-61.3
				C2877.3-1288.1,2854.8-1289.8,2831.9-1290.7z M2765.2-1353.8c21.4,18.7,42.6,38.5,63.6,59.7c22.3,0.8,44.4,2.2,66.1,4.6
				c-20.8-18.7-42-36.1-63.5-52.1C2809.6-1346.5,2787.6-1350.6,2765.2-1353.8z M2697.6-1407.9c21.3,15.6,42.3,32.3,63.2,50.3
				c21.4,2.9,42.5,6.5,63.3,11c-20.7-15.2-41.7-29.2-63-42C2740.2-1395.9,2719.1-1402.4,2697.6-1407.9z M2632-1451.8
				c19.7,12.1,39.3,25.1,58.7,39c18.6,4.5,37,9.7,55.3,15.6C2708.7-1418.6,2670.8-1437.1,2632-1451.8z M3158.1-660.4
				c14.5,32,28.9,64.8,43.1,98.8c15.7-5.1,31.1-9.8,46.6-14.7c-12.9-34.1-26.1-67.2-39.5-99.3C3191.6-670.7,3175-665.7,3158.1-660.4
				z M3110.8-759.9c15.5,31.6,31.1,63.5,46.3,97.1c16.9-5.3,33.6-10.3,50.3-15.3c-14-33.4-28.1-66.1-42.5-97.5
				C3147-770.6,3128.9-765.3,3110.8-759.9z M3060.6-857.5c16.5,30.8,32.8,62.4,49,95.3c18.1-5.4,36.2-10.8,54.1-15.8
				c-15-32.6-30.2-64.5-45.8-94.9C3099.1-868.1,3079.8-862.8,3060.6-857.5z M3007.5-952.7c17.4,29.8,34.7,60.7,51.9,92.7
				c19.2-5.3,38.4-10.7,57.3-15.5c-16.2-31.6-32.5-62.3-49.2-91.5C3047.7-962.6,3027.6-957.6,3007.5-952.7z M2951.2-1044.5
				c18.4,28.6,36.7,58.5,54.8,89.4c20-5,40.1-10,59.8-14.4c-17.4-30.2-34.9-59.5-52.8-87.1
				C2992.7-1053.1,2971.9-1048.8,2951.2-1044.5z M2891.6-1132.1c19.4,27.1,38.7,55.6,57.8,85.1c20.7-4.3,41.4-8.7,61.7-12.3
				c-18.5-28.5-37.2-56-56.3-81.8C2934.1-1138.7,2912.9-1135.5,2891.6-1132.1z M2828.9-1214.7c20.4,25.3,40.6,52,60.7,79.9
				c21.2-3.4,42.3-6.8,63-9.3c-19.6-26.5-39.5-51.7-59.7-75.6C2871.9-1218.6,2850.5-1216.8,2828.9-1214.7z M2763.1-1291.2
				c21.3,23.4,42.5,47.8,63.5,73.7c21.4-2.2,42.7-4.1,63.7-5.1c-20.5-24.1-41.3-46.9-62.4-68.3
				C2806.6-1291.7,2785-1291.8,2763.1-1291.2z M2695.1-1360.8c21.9,21,43.8,43,65.4,66.7c21.5-0.7,42.8-0.8,63.8-0.1
				c-21.2-21.4-42.7-41.5-64.4-60.2C2738.6-1357.4,2717-1359.5,2695.1-1360.8z M2625.6-1422.8c22.2,18.4,44.3,37.7,66.3,58.6
				c21.3,1.2,42.4,3.1,63.2,5.7c-21.5-18.3-43.2-35.5-65.1-51.3C2668.7-1414.9,2647.3-1419.3,2625.6-1422.8z M2555.8-1476.2
				c21.9,15.5,43.8,31.8,65.5,49.7c20.6,3.1,40.9,7.1,61,11.8c-21-14.9-42.2-28.8-63.6-41.5
				C2597.9-1463.7,2577-1470.5,2555.8-1476.2z M2490.2-1518.8c19.9,12,39.8,24.2,59.5,38c17.9,4.6,35.7,10.1,53.4,16.1
				C2565.9-1485.7,2528.3-1504,2490.2-1518.8z M3114.6-646.3c15.8,31.7,31.5,64.6,47.2,97.8c12.4-4.1,24.8-8.4,37.1-12.4
				c-14.2-34-28.6-66.8-43.1-98.8C3142.2-655.4,3128.4-650.8,3114.6-646.3z M3063.9-745.6c16.6,31.2,33.1,64,49.6,97
				c13.8-4.5,27.7-9.1,41.4-13.4c-15.3-33.6-30.8-65.5-46.4-97.1C3093.7-754.8,3078.8-750.3,3063.9-745.6z M3009.5-843.3
				c17.8,31.1,35.5,62.3,53.1,95.3c15-4.7,29.9-9.2,44.7-13.6c-16.2-32.9-32.6-64.5-49.1-95.3C3042.1-852.4,3026-848.1,3009.5-843.3
				z M2952.8-938.9c18.5,30.1,37,61.1,55.4,93.2c16.5-4.8,32.5-9.1,48.7-13.6c-17.2-32-34.5-63-52-92.8
				C2987.6-947.8,2970.4-943.7,2952.8-938.9z M2893.6-1031.9c19.3,29.1,38.6,59.4,57.8,90.6c17.6-4.7,34.8-9,52.1-13.2
				c-18.2-30.9-36.5-60.8-55-89.4C2930.3-1040.1,2912.1-1036.2,2893.6-1031.9z M2831.6-1121.6c20.2,27.9,40.3,57.2,60.3,87.3
				c18.5-4.4,36.7-8.4,54.8-12.2c-19.2-29.6-38.5-58.1-58-85.2C2869.8-1128.6,2850.8-1125.3,2831.6-1121.6z M2766.9-1207.2
				c21,26.4,41.9,54.4,62.8,83.2c19.2-3.8,38.2-7.2,57-10.3c-20.2-27.9-40.5-54.7-60.9-80.1
				C2806.3-1212.4,2786.8-1210.1,2766.9-1207.2z M2699.8-1287.9c21.7,24.7,43.4,51,65,78.1c19.7-2.9,39.3-5.4,58.6-7.4
				c-21.1-26-42.3-50.6-63.7-74C2739.9-1290.5,2720-1289.5,2699.8-1287.9z M2630-1362.7c22.5,22.8,44.9,46.8,67.3,72.1
				c20.1-1.7,40-2.8,59.7-3.5c-21.8-23.7-43.8-45.9-65.8-67C2670.9-1362.2,2650.6-1362.8,2630-1362.7z M2558.6-1430.9
				c22.9,20.6,45.8,42.1,68.6,65.2c20.3-0.2,40.5,0.3,60.4,1.3c-22.2-21-44.5-40.6-67-59.1
				C2600.1-1426.6,2579.5-1429.2,2558.6-1430.9z M2486.4-1491.7c22.9,18.1,45.9,37.1,68.7,57.5c20.4,1.5,40.5,3.9,60.5,6.9
				c-22.1-18-44.4-34.9-66.8-50.5C2528.3-1483.1,2507.5-1488,2486.4-1491.7z M2415.2-1543.9c22.3,15.2,44.5,31.1,66.8,48.5
				c19.9,3.4,39.6,7.8,59.2,12.7c-21.3-14.6-42.7-28.4-64.2-40.9C2456.5-1531.3,2435.9-1538.1,2415.2-1543.9z M2351.5-1584.1
				c18.9,11.1,37.7,22.4,56.5,35.1c17.6,4.8,35.1,10.7,52.6,16.7C2424.5-1552.4,2388.1-1569.5,2351.5-1584.1z M3080.5-635.3
				c17.5,31.8,35,63.2,52.5,96.5c8.9-3,17.8-6.1,26.6-9c-15.7-33.2-31.4-66.1-47.3-97.9C3101.8-642.2,3091.2-638.8,3080.5-635.3z
				 M3025.1-733.6c18.1,31.3,36.1,63.3,54.2,96c10.7-3.6,21.3-6.9,31.9-10.4c-16.5-33-33-65.9-49.6-97
				C3049.4-741.2,3037.4-737.5,3025.1-733.6z M2967.9-830.6c18.6,30.4,37.2,62.6,55.9,94.8c12.3-4,24.4-7.7,36.6-11.5
				c-17.6-33-35.4-64.3-53.2-95.4C2994.2-838.8,2981-834.6,2967.9-830.6z M2907.4-926c19.7,30.3,39.4,60.9,59.1,93.1
				c13.1-4,26.4-8.3,39.4-12.2c-18.4-32.1-36.9-63.1-55.4-93.2C2936.2-934.4,2921.7-930.1,2907.4-926z M2844.4-1019.5
				c20.5,29.6,41,59.7,61.5,91.2c14.4-4.1,28.9-8.4,43.1-12.3c-19.3-31.2-38.6-61.5-57.9-90.6
				C2875.6-1027.5,2860-1023.6,2844.4-1019.5z M2779.1-1110.6c21.2,28.5,42.4,58.1,63.6,88.7c15.7-4.1,31.2-8,46.7-11.7
				c-20.1-30.1-40.3-59.5-60.5-87.4C2812.4-1117.7,2795.9-1114.4,2779.1-1110.6z M2711.5-1198.5c21.9,27.3,43.8,55.9,65.7,85.4
				c16.8-3.8,33.3-7.1,49.8-10.4c-21-28.8-42-56.8-63-83.3C2746.6-1204.2,2729.2-1201.7,2711.5-1198.5z M2641.9-1282.3
				c22.5,25.8,45,53.1,67.5,81.2c17.7-3.3,35-5.7,52.4-8.2c-21.7-27.2-43.5-53.5-65.3-78.2
				C2678.4-1286.1,2660.3-1284.7,2641.9-1282.3z M2570.4-1361.1c23,24.1,46.1,49.8,69.1,76.2c18.4-2.4,36.4-3.9,54.4-5.5
				c-22.4-25.3-44.9-49.5-67.5-72.3C2607.9-1362.5,2589.3-1362.3,2570.4-1361.1z M2497-1434.1c23.5,22.3,47.1,45.7,70.7,70.4
				c18.8-1.3,37.4-1.6,55.9-1.8c-23-23.2-46-44.9-69.1-65.5C2535.5-1432.6,2516.3-1433.9,2497-1434.1z M2422.9-1500.5
				c23.6,20.1,47.3,40.9,71.1,63.4c19.2,0.2,38.2,1.4,57.1,2.8c-23.2-20.7-46.5-39.8-69.8-58
				C2461.9-1495.7,2442.5-1498.5,2422.9-1500.5z M2349.2-1559.4c23.1,17.4,46.3,35.6,69.6,55.2c19.5,1.9,38.8,4.8,58,8
				c-23.1-17.9-46.2-34.3-69.3-49.8C2388.1-1551.2,2368.7-1555.6,2349.2-1559.4z M2277.7-1609.8c21.9,14.5,43.8,29.5,65.8,46
				c19.1,3.6,38.1,8.2,57,13.1c-22.2-14.7-44.4-28.2-66.6-40.8C2315.3-1598.5,2296.5-1604.2,2277.7-1609.8z M2214-1649.3
				c18.3,10.7,36.6,21.5,55,33.5c16.7,4.8,33.4,10.3,50,16.1C2283.9-1618.9,2248.9-1635,2214-1649.3z M3356.4-76.4
				c-8.6-17.2-17.2-34.3-25.7-51c13.5,30.2,26.9,59.9,40.4,91C3366.1-49.7,3361.3-63.2,3356.4-76.4z M2996.2-724
				c19.5,30.9,39.1,62,58.7,94.4c7.5-2.5,14.7-4.8,22.1-7.2c-18.1-32.7-36.2-64.8-54.2-96C3014-730,3005.1-726.9,2996.2-724z
				 M2934.1-820c20.2,30.6,40.4,61.8,60.7,93.9c8.9-2.9,17.8-6,26.7-8.9c-18.6-32.2-37.3-64.4-55.9-94.8
				C2955.1-826.7,2944.6-823.4,2934.1-820z M2870.2-915.4c20.7,30,41.6,61.4,62.5,93.1c10.6-3.4,21.1-6.6,31.5-9.8
				c-19.7-32.2-39.4-62.9-59.1-93.2C2893.4-922,2881.9-918.9,2870.2-915.4z M2803.7-1008.8c21.5,29.5,43.1,59.8,64.8,91.1
				c11.8-3.6,23.3-6.6,35-10c-20.6-31.5-41.1-61.7-61.6-91.3C2829.2-1015.6,2816.6-1012.3,2803.7-1008.8z M2735-1099.9
				c22.3,28.9,44.6,58.1,67.1,88.9c12.8-3.6,25.5-6.9,38.2-10.3c-21.3-30.6-42.5-60.2-63.8-88.7
				C2762.8-1106.9,2748.9-1103.4,2735-1099.9z M2664.3-1188.7c22.9,27.8,45.8,56.6,68.9,86.4c13.8-3.5,27.7-7.1,41.4-10.3
				c-22-29.5-44-58.1-65.9-85.5C2694.1-1195.3,2679.1-1191.8,2664.3-1188.7z M2591.9-1274.3c23.4,26.6,46.9,54.5,70.5,83.2
				c14.8-3.2,29.7-6.6,44.3-9.4c-22.6-28.1-45.2-55.4-67.8-81.3C2623.3-1279.7,2607.6-1276.9,2591.9-1274.3z M2517.8-1356
				c23.8,25.2,47.7,51.8,71.8,79.1c15.7-2.6,31.5-5.4,47-7.5c-23.2-26.5-46.4-52.2-69.5-76.4
				C2550.8-1359.6,2534.3-1357.8,2517.8-1356z M2442.5-1432.8c24.1,23.4,48.3,48.5,72.6,74.1c16.5-1.8,33-3.6,49.3-4.8
				c-23.7-24.7-47.4-48.3-71-70.6C2476.6-1434.2,2459.5-1433.5,2442.5-1432.8z M2365.8-1503.9c24.4,21.7,48.9,44.3,73.6,68.2
				c17.1-0.8,34.1-1.4,51-1.3c-24.1-22.7-48.1-43.8-72.1-64.1C2400.9-1502.7,2383.3-1503.3,2365.8-1503.9z M2289.2-1568.7
				c24.3,19.5,48.6,39.7,73.1,61.5c17.5,0.6,34.9,1.3,52.3,2.8c-23.9-20.1-47.7-38.6-71.5-56.4
				C2325.2-1564.1,2307.2-1566.4,2289.2-1568.7z M2213.7-1626.2c23.5,17,47.2,34.7,71,53.8c17.7,2.1,35.4,4.3,52.9,7.4
				c-23.1-17.1-46.1-32.7-69.1-47.7C2250.3-1618,2232-1622.2,2213.7-1626.2z M2141.2-1675.5c22,14.2,44.1,28.9,66.4,44.9
				c17.4,3.7,34.8,7.2,52.1,11.9c-21.5-13.7-42.8-26.1-64.2-38.1C2177.5-1663.8,2159.4-1669.8,2141.2-1675.5z M2077.6-1714.2
				c18,10.3,36.1,21.1,54.4,32.6c15.3,4.6,30.6,9.1,45.9,14.5C2144.2-1685.2,2110.9-1700.4,2077.6-1714.2z M3276.6-241.8
				c-7.7-12.9-15.5-25.8-23.2-38.6c15.4,28.8,31,59.1,46.5,89.2C3292.1-208.3,3284.3-225.1,3276.6-241.8z M3325.1-159.6
				c-12.3-21.1-24.5-41.8-36.7-62.4c9.3,20.2,18.6,41.6,27.8,62.2c11,21.3,21.9,42.2,32.9,63.9
				C3341.2-117.2,3333.2-138.7,3325.1-159.6z M3373.7-74.8c-13.6-23.8-27.2-47.8-40.6-70.9c8.5,22.2,16.9,45.9,25.4,68.7
				c12.1,24,24.2,48.9,36.3,73.6C3387.8-27.2,3380.9-51.6,3373.7-74.8z M2909.9-812.5c21.5,30.2,43.2,61.2,65,92.9
				c5.9-2,11.8-3.9,17.7-5.9c-20.3-32-40.6-63.3-60.8-93.9C2924.5-817,2917.3-814.9,2909.9-812.5z M2841.4-906.5
				c22.2,30,44.5,60.3,67,91.8c7.4-2.4,14.7-4.6,22-6.9c-20.9-31.6-41.8-63.2-62.6-93.1C2859-912,2850.2-909.2,2841.4-906.5z
				 M2771.4-999.3c22.6,29.3,45.4,59.8,68.3,90.7c8.8-2.7,17.7-5.7,26.4-8.3c-21.7-31.2-43.3-61.7-64.8-91.1
				C2791.5-1005.3,2781.4-1002.2,2771.4-999.3z M2699.4-1090.8c23.2,28.7,46.7,58.8,70.3,89.2c10-2.9,20.1-6,30.1-8.8
				c-22.5-30.8-44.9-60.1-67.2-88.9C2721.5-1096.6,2710.5-1093.8,2699.4-1090.8z M2624.7-1180.3c24.2,28.3,48.3,56.9,72.8,87.1
				c11.1-3,22.2-5.7,33.2-8.5c-23.1-29.8-46.1-58.6-69-86.5C2649.4-1185.6,2637.1-1183.2,2624.7-1180.3z M2548.8-1266.9
				c24.4,27.2,49,55.1,73.9,84.2c12.5-3,24.7-5.3,37.1-7.9c-23.7-28.7-47.2-56.6-70.7-83.3
				C2575.6-1271.7,2562.3-1269.5,2548.8-1266.9z M2471.7-1350.2c24.8,25.9,49.8,53,74.9,80.9c13.5-2.7,26.8-4.9,40.1-7.1
				c-24.1-27.4-48.2-54-72.1-79.2C2500.4-1354.1,2486.1-1352.3,2471.7-1350.2z M2393.5-1429.7c25,24.5,50.3,50.4,75.7,76.9
				c14.3-2.1,28.6-4,42.7-5.6c-24.5-25.7-48.9-50.8-73.1-74.3C2423.9-1432,2408.7-1431,2393.5-1429.7z M2314.7-1504.4
				c25.1,22.8,50.5,47.2,76,72.1c15.1-1.3,30.1-2.6,45-3.3c-24.8-24-49.4-46.8-73.9-68.5C2346.2-1504.7,2330.5-1504.7,2314.7-1504.4
				z M2235.1-1573.7c25.3,21.2,50.7,43.1,76.4,66.3c15.7-0.3,31.4-0.5,46.9-0.1c-24.8-21.9-49.5-42.3-74-61.9
				C2268-1571.3,2251.5-1572.6,2235.1-1573.7z M2156.1-1636.7c24.9,19.1,49.9,38.7,75.2,59.8c16.2,0.9,32.4,2.1,48.6,3.9
				c-24.4-19.4-48.5-37.3-72.6-54.6C2190.3-1631.2,2173.2-1634.2,2156.1-1636.7z M2079.1-1692.8c23.9,16.6,48,33.8,72.3,52.4
				c16.6,2.4,33.3,5,49.9,8.3c-23.4-16.6-46.5-31.8-69.6-46.4C2114.2-1683.9,2096.6-1688.6,2079.1-1692.8z M2005.9-1741.1
				c22.1,13.8,44.4,28.2,66.8,43.7c16.6,3.8,33.1,7.9,49.7,12.7c-21.5-13.4-42.8-25.6-64.1-37.3
				C2040.8-1728.9,2023.3-1735.3,2005.9-1741.1z M1942.5-1778.9c17.7,10,35.6,20.6,53.5,31.7c14.4,4.6,28.8,9.2,43.3,14.5
				C2006.8-1750,1974.5-1765.4,1942.5-1778.9z M3235.6-328.2c-14.8-21.9-29.5-43.7-44.1-65c11.9,21.5,23.9,43,35.8,65
				c13.1,21.5,26.3,43.7,39.4,65.8C3256.3-284.7,3246-306.6,3235.6-328.2z M3290.6-246.5c-15.7-23.6-31.2-46.5-46.8-69.6
				c11.6,24.3,23.2,48.4,34.8,73.4c13.6,22.8,27.1,45.2,40.7,68.4C3309.8-198.7,3300.2-222.7,3290.6-246.5z M3345.8-161.9
				c-16.3-25.1-32.7-50.6-48.9-75c10.1,25.3,20.3,50.5,30.4,76.5c14.3,24.5,28.7,50.1,43.2,75.4
				C3362.3-111.2,3354-136.5,3345.8-161.9z M3398.8-80.5c-16.2-25.2-32.3-49.5-48.4-74.2c8.5,26.3,17,52.1,25.4,79.2
				c14.1,24.7,28.1,48.9,42.3,73.9C3411.9-28.5,3405.3-54.3,3398.8-80.5z M2822-900.3c23.2,29.2,46.9,59.9,70.5,90.6
				c4.5-1.5,9-2.9,13.5-4.4c-22.5-31.4-44.8-61.8-67-91.7C2833.4-904,2827.7-902.1,2822-900.3z M2747.3-992.3
				c24.2,29.4,48.5,59,73.1,89.8c5.7-1.8,11.4-3.7,17.1-5.5c-22.9-30.8-45.8-61.4-68.4-90.7C2761.8-996.5,2754.6-994.5,2747.3-992.3
				z M2671.1-1083.4c24.6,28.8,49.4,58.6,74.4,88.9c7.3-2.2,14.5-4.3,21.8-6.4c-23.6-30.4-47.1-60.6-70.3-89.3
				C2688.3-1087.9,2679.8-1085.9,2671.1-1083.4z M2594-1172.5c24.7,27.8,50,57.4,75.2,86.9c8.7-2.4,17.3-4.6,25.9-6.9
				c-24.5-30.2-48.8-58.9-73-87.2C2612.8-1177.5,2603.3-1174.8,2594-1172.5z M2514.3-1259.4c25.7,27.6,51.5,55.3,77.7,84.7
				c9.3-2.4,18.8-5.1,28-7.4c-24.8-29.1-49.5-57-74-84.2C2535.6-1264.2,2524.9-1261.7,2514.3-1259.4z M2433.5-1344
				c26,26.5,52.2,53.8,78.7,82.2c10.6-2.3,21.2-4.8,31.8-6.9c-25.2-27.9-50.3-55.1-75.2-81C2457-1348,2445.3-1346.1,2433.5-1344z
				 M2351.6-1425.5c26.2,25.3,52.7,51.8,79.4,79c11.8-2.1,23.6-4,35.3-5.7c-25.5-26.6-50.9-52.6-76-77.1
				C2377.4-1428.2,2364.6-1427.1,2351.6-1425.5z M2269.2-1503.2c26.2,23.9,52.8,49.2,79.6,75c13-1.6,25.8-2.7,38.7-3.8
				c-25.6-25-51.2-49.4-76.4-72.3C2297.2-1504.1,2283.3-1504.1,2269.2-1503.2z M2187.1-1576c26,22.2,52.4,45.9,79,70
				c14-0.9,27.8-1,41.7-1.2c-25.8-23.3-51.4-45.5-76.7-66.7C2216.4-1574.8,2201.8-1575.9,2187.1-1576z M2104.7-1643.3
				c26.1,20.6,52.3,41.8,78.9,64.4c14.6,0.1,29.1,1,43.6,1.8c-25.6-21.3-51-41.1-76.1-60.3C2135.7-1639.7,2120.2-1642,2104.7-1643.3
				z M2023.8-1704.7c25.4,18.5,51,37.6,77,58.1c15.2,1.3,30.5,3.3,45.7,5.4c-24.9-18.8-49.5-36.4-73.9-53.2
				C2056.2-1698.2,2040-1701.9,2023.8-1704.7z M1945.4-1759.3c24.2,16.2,48.6,33,73.3,50.9c15.8,2.6,31.5,6,47.3,9.6
				c-23.6-16.1-47-31-70.2-45.3C1979-1749.7,1962.2-1755,1945.4-1759.3z M1871.6-1806.5c22.1,13.4,44.4,27.6,67,42.5
				c15.8,4,31.6,8.6,47.5,13.6c-21.5-13-42.7-25-63.8-36.5C1905.3-1793.8,1888.3-1800.7,1871.6-1806.5z M1817.5-1838.8
				c14.4,8.1,29.1,17.4,43.7,26.1c13.6,4.5,27.3,9.6,41,14.9C1873.6-1812.8,1845.3-1826.5,1817.5-1838.8z M3064.9-581.3
				c-8.5-10.8-17-21.6-25.5-32.4c19.6,27,39.7,55.6,59.6,84.1C3087.5-547.4,3076.3-563.9,3064.9-581.3z M3105.8-529.4
				c-8-10.3-15.8-20-23.9-30.3c6.9,10.6,13.7,20.6,20.6,31.4C3103.6-528.7,3104.7-529.1,3105.8-529.4z M3129.3-498.9
				c-7.3-9.4-14.6-19.2-21.9-28.5c-1.2,0.4-2.4,0.8-3.6,1.2c6.3,9.9,12.7,20.2,19,30.1c14.5,20.7,28.8,40.5,43.4,61.6
				C3153.8-456.3,3141.5-477.7,3129.3-498.9z M3256.1-331.4c-18.2-24.4-36.1-47.8-54.1-71.6c11.9,24,23.8,49.1,35.7,73.9
				c16.3,24.1,32.5,47.7,48.9,72.4C3276.4-281.9,3266.3-307.1,3256.1-331.4z M3318-246.8c-18.6-25.5-37.5-51.6-55.8-76.3
				c10.3,24.6,20.4,50.5,30.7,75.9c16.6,25,33.6,51.5,50.4,77.4C3334.8-195.6,3326.5-221.9,3318-246.8z M3377.7-165.2
				c-18.5-25.5-36.7-50.2-55-75.2c8.5,25.1,16.8,51.8,25.2,77.7c16.5,25.2,32.8,50.1,49.4,75.7
				C3390.8-113.1,3384.4-139.9,3377.7-165.2z M3436.9-82c-18.5-26-37.2-52.8-55.3-77.9c6.7,25.4,12.9,52.5,19.4,78.7
				c16.3,25.4,33,52.4,49.5,78.7C3446-29,3441.8-56.4,3436.9-82z M3109.6-528.1c3.4,4.4,6.8,8.8,10.2,13.2
				c-2.7-4.7-5.4-9.3-8.1-13.9L3109.6-528.1z M3036.7-620.6c4.4,5.6,8.7,11,13.1,16.6c-3.8-5.8-7.6-11.5-11.4-17.2
				C3037.9-621,3037.3-620.8,3036.7-620.6z M2732.3-987.9c25.1,28.5,50.8,59,76.4,89.2c3.1-1,6.2-2,9.4-3
				c-24.6-30.8-48.9-60.5-73.1-89.9C2740.7-990.3,2736.6-989.2,2732.3-987.9z M2651.8-1077.7c26,28.7,52.1,57.4,78.6,87.6
				c4.3-1.3,8.5-2.5,12.7-3.7c-25-30.3-49.8-60.1-74.4-88.9C2663.1-1081.1,2657.4-1079.3,2651.8-1077.7z M2570.3-1166.3
				c26.2,28.1,52.8,56.9,79.5,86.4c5.6-1.6,11.3-3.4,16.9-5.1c-25.2-29.5-50.5-59.2-75.2-86.9
				C2584.5-1170,2577.4-1168.2,2570.3-1166.3z M2487.7-1253.7c26.5,27.2,53.5,56.3,80.5,85.1c7.1-1.9,14.2-3.8,21.3-5.6
				c-26.2-29.4-52-57.2-77.8-84.7C2503.7-1257.2,2495.7-1255.5,2487.7-1253.7z M2403-1338.7c27.2,26.8,54.5,54.1,82.3,82.7
				c8.1-1.9,16.1-3.5,24.2-5.2c-26.6-28.4-52.8-55.7-78.9-82.3C2421.4-1342,2412.3-1340.5,2403-1338.7z M2318-1420.7
				c27.3,25.8,54.8,52.1,82.7,79.7c9.2-1.8,18.3-3.4,27.5-5c-26.8-27.3-53.4-53.8-79.7-79.2
				C2338.4-1423.9,2328.2-1422.3,2318-1420.7z M2232.4-1499.8c27.3,24.6,55,50.2,82.9,76.5c10.1-1.5,20.3-3.4,30.3-4.7
				c-26.9-25.9-53.6-51.2-79.9-75.1C2254.7-1502.3,2243.6-1500.8,2232.4-1499.8z M2147-1575c27.1,23.1,54.7,47.7,82.5,72.6
				c11.1-1.1,22.3-2.5,33.3-3.3c-26.7-24.2-53.3-48-79.4-70.2C2171.3-1575.9,2159.1-1575.4,2147-1575z M2061.8-1645.7
				c26.8,21.5,54.1,44.4,81.6,67.8c12.1-0.4,24.3-0.9,36.4-0.9c-26.7-22.7-53.2-44.1-79.3-64.7
				C2087.7-1644.6,2074.7-1645.2,2061.8-1645.7z M1977.1-1711.2c26.7,20,53.5,40.4,80.8,62.3c12.9,0.5,25.8,1.1,38.6,2.1
				c-26.3-20.7-52.2-39.9-78-58.6C2004.8-1707.7,1990.9-1709.5,1977.1-1711.2z M1894.7-1770.8c25.6,17.8,51.4,36.2,77.6,55.8
				c13.8,1.6,27.5,3.5,41.3,5.8c-25.3-18.3-50.3-35.3-75.1-51.7C1923.9-1764.5,1909.2-1767.8,1894.7-1770.8z M1816.1-1823.5
				c23.8,15.3,47.8,31.4,72.2,48.3c14.4,2.8,28.9,6.2,43.4,9.7c-23.8-15.6-47.3-30.2-70.6-44.2
				C1846.1-1814.6,1831.1-1819.3,1816.1-1823.5z M1745-1867.9c20.4,12.1,41.1,25.2,62,38.5c14.5,4,29.1,8.7,43.7,13.4
				c-21.3-12.6-42.5-24.5-63.4-35.7C1773.2-1857.4,1759.1-1862.7,1745-1867.9z M1690-1899.6c12.9,7.2,26.1,15,39.3,22.6
				c12.1,4.2,24.5,9.3,36.8,14.1C1740.4-1876.1,1715-1888.4,1690-1899.6z M2933.4-752.8c-12.4-14-24.4-27.3-36.7-41.1
				c21.4,26,43,52.1,64.6,78.8C2952.1-727.5,2942.7-740.6,2933.4-752.8z M2965.1-716.3c-4.2-4.8-8.5-9.8-12.6-14.6
				c3.7,4.9,7.4,10,11.1,15L2965.1-716.3z M3008.6-666.3c-13.9-16.1-27.8-32.1-41.6-47.9l-1.7,0.6c9.7,13,19.3,26.1,29,39.2
				c13.5,16.8,27.1,34.3,40.8,51.8c0.6-0.2,1.3-0.4,1.9-0.7C3027.5-637.8,3018-652.3,3008.6-666.3z M3043.8-625.7
				c-7.9-9.2-15.8-18.2-23.8-27.4c6.4,9.5,12.8,19.4,19.2,29C3040.7-624.6,3042.3-625.2,3043.8-625.7z M3079-584.7
				c-11.2-13.1-22.4-26.1-33.5-39c-1.6,0.5-3.3,1.1-4.9,1.7c8.7,13.2,17.5,26.2,26.3,39.6c13.8,17.6,27.4,34.6,41.1,52.2l2.5-0.8
				C3100-549.1,3089.5-567.2,3079-584.7z M3121.1-534.6c-11.2-13.3-22.4-26.9-33.4-39.8c8.3,14,16.6,28.4,25,42.7
				C3115.4-532.7,3118.2-533.7,3121.1-534.6z M3286.9-334.3c-21-25.9-42.4-52.5-63.1-77.6c11.5,26.3,23,52.5,34.4,79.7
				c18.8,25.2,38.1,52,57.2,78.1C3306-281.5,3296.4-307.9,3286.9-334.3z M3353.3-252.6c-20.8-25.8-41.4-51-62.1-76.4
				c9.7,26.9,19.4,53.5,28.9,81.4c18.6,25.4,37.2,50.6,55.9,76.4C3368.6-199.1,3360.9-225.7,3353.3-252.6z M3418.9-170.1
				c-20.7-26.1-41.6-52.7-62-78c7.7,27.2,15.5,54,23,82.2c18.4,25.4,37.3,52.3,55.9,78.6C3430.4-115.8,3424.6-142.7,3418.9-170.1z
				 M3483.4-88.3c-20.5-26-41-52.2-61.3-77.8c5.7,27.7,11.7,54.7,17.1,83.4c18.3,25.7,36.8,51.9,55.2,78
				C3491-33.5,3487.1-60.6,3483.4-88.3z M3125-533.3c7,8.3,13.9,16.5,20.8,24.8c-4.6-8.9-9.2-18.4-13.8-27.2L3125-533.3z
				 M3081-585.8c13.9,16.3,28.1,33.4,42.3,50.4l7.6-2.6c-17.5-33.3-35-64.8-52.6-96.6c-7.4,2.4-14.6,4.6-22,7.1
				C3064.5-613.8,3072.8-599.6,3081-585.8z M3047.8-624.5c8.2,9.4,16.3,18.7,24.6,28.4c-6.1-10.2-12.2-20.5-18.3-30.6
				C3052-626,3049.9-625.2,3047.8-624.5z M3010.5-667.4c11.9,13.7,23.7,27.3,35.5,40.9c2.2-0.8,4.5-1.6,6.7-2.3
				c-19.7-32.3-39.2-63.6-58.7-94.4c-5.8,1.9-11.7,3.9-17.5,5.8C2987.8-700.9,2999.1-684.3,3010.5-667.4z M2969.2-715
				c10,11.5,19.9,22.8,29.9,34.4c-8.3-12.3-16.6-24.1-24.9-36.1C2972.6-716.1,2970.9-715.5,2969.2-715z M2935.4-754
				c10.5,11.9,21.3,24.6,32.1,36.9c1.8-0.6,3.5-1.2,5.3-1.8c-21.8-31.6-43.5-62.9-65.1-93c-4.5,1.4-8.9,2.7-13.4,4.2
				C2907.9-789.7,2921.5-772.3,2935.4-754z M2889-805.8c9,10,18.1,20,27.2,30.2c-8.2-10.7-16.2-20.7-24.3-31.2
				C2891-806.4,2890-806.1,2889-805.8z M2866-831.4c7.1,7.9,14.2,15.8,21.2,23.6c1-0.3,2.1-0.7,3.1-1.1
				c-23.6-30.7-47.3-61.5-70.5-90.7c-3.1,1-6.2,2-9.2,3C2829-874.9,2847.3-853.8,2866-831.4z M2808-895.8c2.1,2.3,4.1,4.6,6.2,6.8
				c-2-2.3-3.9-4.6-5.9-6.9L2808-895.8z M2724.7-985.7c27,28.9,53.9,57.7,81.4,87.8l0.3-0.1c-25.6-30.2-51.3-60.5-76.4-89.2
				C2728.2-986.7,2726.5-986.2,2724.7-985.7z M2641.1-1074.5c26.8,27.9,54.2,57.3,81.5,86.6c1.8-0.6,3.6-1.1,5.3-1.6
				c-26.6-30.3-52.5-58.7-78.6-87.5C2646.7-1076.1,2643.9-1075.3,2641.1-1074.5z M2555.3-1162.3c27.7,28,55.4,56.3,83.7,85.7
				c2.8-0.8,5.6-1.7,8.4-2.5c-26.8-29.6-53.3-58.3-79.6-86.5C2563.7-1164.5,2559.5-1163.5,2555.3-1162.3z M2468.2-1249.2
				c28,27.6,56.3,55.6,84.9,84.6c4.2-1.2,8.4-2.2,12.6-3.3c-27.1-29-54.2-57.9-80.7-85.2C2479.4-1251.8,2473.8-1250.6,2468.2-1249.2
				z M2381.1-1333.9c27.8,26.5,56.3,54.5,84.8,82.5c5.6-1.4,11.1-2.7,16.7-4c-27.8-28.6-55.1-55.8-82.3-82.7
				C2394-1336.8,2387.5-1335.2,2381.1-1333.9z M2292.4-1416.5c28.4,26,57.1,52.7,86.2,80.4c6.5-1.4,13-2.9,19.4-4.3
				c-28-27.7-55.6-53.9-83-79.8C2307.5-1419.1,2300-1417.8,2292.4-1416.5z M2202.7-1496.8c28.7,25.3,57.6,50.9,87.1,77.8
				c7.6-1.3,15.2-2.6,22.7-3.7c-28.1-26.5-55.8-52-83.2-76.7C2220.4-1498.6,2211.6-1497.9,2202.7-1496.8z M2113-1574
				c28.5,24,57.4,48.8,86.6,74.5c8.9-1.1,17.7-1.8,26.6-2.6c-27.9-25.1-55.7-49.6-83-72.8C2133.2-1574.7,2123.2-1574.7,2113-1574z
				 M2024.9-1646.8c27.9,22.3,56.4,46.1,85,70.1c10-0.7,20-0.9,29.9-1.2c-27.6-23.5-55.1-46.5-82-68.1
				C2046.8-1646.4,2035.8-1646.7,2024.9-1646.8z M1937.4-1715c27.5,20.8,55.4,42.8,83.7,65.4c10.9,0,21.7,0.1,32.5,0.5
				c-27.6-22-54.6-42.6-81.5-62.7C1960.6-1713.2,1949-1714.2,1937.4-1715z M1851.2-1778.3c27.1,19.3,54.2,38.9,82.1,60
				c11.4,0.8,22.7,1.5,34.1,2.7c-26.8-20-53-38.5-79-56.6C1875.9-1774.5,1863.6-1776.4,1851.2-1778.3z M1768.1-1835.6
				c25.6,17.2,51.5,34.9,77.9,53.6c12,1.7,23.9,3.2,36,5.4c-25.3-17.5-50.2-33.8-74.9-49.6C1794-1829.8,1781.1-1832.7,1768.1-1835.6
				z M1690.2-1886.3c23.4,14.6,47.2,30.1,71.2,46.1c12.3,2.7,24.5,5.1,36.9,8.2c-23.2-14.7-46.2-28.7-68.8-41.9
				C1716.2-1878.4,1703.2-1882.2,1690.2-1886.3z M1622.2-1928c19.1,11.1,38.8,23.7,58.3,35.8c12,3.6,23.9,7,36,10.9
				c-20-11.5-40-22.8-59.6-33.2C1645.1-1919.5,1633.7-1923.5,1622.2-1928z M1563.5-1960.5c13.9,7.6,27.8,15.1,41.9,23.2
				c8.6,3.2,17.1,6.4,25.7,9.7C1608.3-1939.3,1585.7-1950.4,1563.5-1960.5z M3166.1-430.6l-1.7,0.6c11.4,18.2,22.7,35.6,34.1,54.1
				c-6.9-12.5-13.8-25.2-20.7-37.5C3173.9-419.2,3169.9-425,3166.1-430.6z M3177.9-434.8c-2.6,0.9-5.2,1.8-7.8,2.7
				c3.2,5.8,6.5,11.9,9.8,17.7c16.4,23.8,33,48.4,49.5,73c-11.7-24.2-23.4-48.3-35.1-71.8C3188.8-420.4,3183.3-427.6,3177.9-434.8z
				 M3182.5-436.4c-0.8,0.3-1.6,0.6-2.4,0.8l8.6,11.3C3186.6-428.4,3184.5-432.3,3182.5-436.4z M3198.7-442
				c-4.7,1.6-9.4,3.2-14.1,4.9c3.9,7.8,7.8,15.2,11.7,23c18.6,24.6,37,48.5,55.8,73.6c-11.2-26.5-22.4-52.3-33.6-77.9
				C3211.9-426.4,3205.4-434,3198.7-442z M3207.2-444.8c-2.1,0.7-4.1,1.3-6.2,2c4.9,5.9,9.7,11.5,14.5,17.3
				C3212.7-431.8,3210-438.6,3207.2-444.8z M3241.1-456.1c-10.6,3.5-21.1,6.9-31.8,10.5c3.8,8.5,7.5,17.5,11.3,26.1
				c21,25.5,42.7,52.5,64.1,78.9C3270.3-380.1,3255.8-418.6,3241.1-456.1z M3285.9-470.9c-14.1,4.6-28.3,9.3-42.6,14.1
				c15.4,39.4,30.6,79.9,45.7,121.6c20.9,25.7,41.7,51.2,62.8,77.3C3330.6-332.2,3308.8-403.9,3285.9-470.9z M3339.8-488.3
				c-17.1,5.4-34.3,11-51.6,16.7c23.4,68.6,45.6,142,67.3,218.1c20.6,25.5,41.6,52.2,62.5,78.5
				C3394.4-287.4,3368.4-392.1,3339.8-488.3z M3404-508.1c-20.5,6.2-41.1,12.5-61.9,19.1c29,97.6,55.3,203.8,79,318.1
				c20.4,25.7,41.2,52.2,61.8,78.3C3462.4-246,3436-384.4,3404-508.1z M3478.3-530.2c-23.8,6.9-47.8,14-72,21.4
				c32.3,124.9,58.8,264.8,79.3,419.8c15.9,20.2,31.6,39.8,47.8,60.6c4.5,5.7,8.9,11.4,13.3,17
				C3535.3-208.6,3512.3-381.4,3478.3-530.2z M4280.2-651.2c29.5,3.2,57.4,8,83.6,14.3c-36.7-26.9-80.8-46.8-130.9-60.8
				C4250.2-683.8,4266-668.3,4280.2-651.2z M4179.6-656.9c32.8,0.1,64,1.7,93.7,4.7c-15.3-17.7-32.3-33.8-50.9-48.2
				c-26.6-6.9-54.7-12.4-84.5-16.2C4153.4-698.5,4167.4-678.6,4179.6-656.9z M4074.5-652.6c34.5-2.5,68-4.1,100-4.1
				c-12.7-22.2-27.3-42.3-43.5-60.7c-29.3-3.5-59.8-5.7-92-6.3C4052.5-702,4064.4-678.4,4074.5-652.6z M3966.2-641.1
				c35.8-4.8,70.5-8.5,104.1-11.1c-10.4-26-22.6-49.8-36.5-71.8c-31.1-0.4-63.2,0.2-96.8,2.4
				C3948.3-696.8,3957.9-669.8,3966.2-641.1z M3858.4-624.1c35.7-6.4,70.5-12,104.4-16.5c-8.5-28.8-18.4-55.7-29.9-80.7
				c-32.2,2.1-65.5,5.4-99.7,9.7C3842.8-684.1,3851.2-654.9,3858.4-624.1z M3754.1-603.4c34.4-7.5,68.1-14.2,101.1-20.2
				c-7.3-30.8-15.7-60.1-25.5-87.5c-32.1,4.1-65.1,9-98.9,14.9C3739.7-666.8,3747.5-635.9,3754.1-603.4z M3655.5-580.6
				c32.5-8,64.4-15.3,95.8-22.2c-6.7-32.6-14.6-63.5-23.4-92.9c-31.1,5.4-62.8,11.4-95.3,18.3
				C3641.1-646.5,3648.8-614.4,3655.5-580.6z M3564-557.2c30.1-8.1,59.5-15.5,88.8-22.7c-6.7-33.8-14.5-66-23-96.7
				c-29.4,6.3-59.2,12.9-89.6,20.3C3548.8-624.7,3556.8-591.8,3564-557.2z M3480.2-533.5c27.3-7.9,54.6-15.8,81.2-23
				c-7.2-34.5-15.2-67.6-23.9-99.3c-27.1,6.6-54.8,14-82.6,21.4C3463.9-602,3472.2-568.2,3480.2-533.5z M3405.7-511.3
				c24.2-7.4,48.2-14.6,72-21.4c-7.9-34.7-16.3-68.5-25.3-100.9c-24.7,6.6-49.7,13.6-75,20.9
				C3387.3-580.1,3396.7-546.2,3405.7-511.3z M3341.3-491.5c20.9-6.6,41.4-12.9,62-19.1c-9.1-34.9-18.5-68.8-28.3-101.5
				c-21.9,6.3-43.6,12.4-65.9,19.1C3320.1-560.1,3330.9-526.5,3341.3-491.5z M3287.3-474c17.3-5.6,34.6-11.4,51.8-16.8
				c-10.4-35-21.2-68.7-32.3-101.5c-18.4,5.6-37.2,11.8-55.8,17.7C3263.3-542.1,3275.4-508.7,3287.3-474z M3242.4-459.1
				c14.3-4.8,28.5-9.5,42.7-14.1c-11.9-34.7-24-68.1-36.4-100.7c-15.5,4.9-30.8,9.6-46.5,14.7
				C3215.8-526.8,3229.1-493.1,3242.4-459.1z M3208.3-447.9c10.7-3.6,21.2-7,31.9-10.5c-13.3-34-26.7-67.6-40.2-100.1
				c-12.3,4-24.7,8.2-37.1,12.3C3178.1-514.1,3193.3-481.7,3208.3-447.9z M3199.3-444.9c2.3-0.8,4.6-1.5,6.9-2.3
				c-15.1-33.8-30.2-66.2-45.4-98.3c-8.8,3-17.7,6-26.5,9c6,11.6,12.1,23.9,18.1,35.6C3168-482,3183.4-464,3199.3-444.9z
				 M3183.5-439.4c4.5-1.6,9-3.2,13.5-4.7c-13.6-16.4-26.8-31.9-40.3-48C3165.6-474.7,3174.6-457.1,3183.5-439.4z M3178.5-437.6
				c0.9-0.3,1.9-0.7,2.8-1c-10.4-20.6-20.7-41.1-31.1-61.2c-9.2-11-18.3-21.8-27.5-32.8l-8.9,3c5.8,9.9,11.6,19.7,17.4,29.7
				C3146.9-479.6,3162.8-458.3,3178.5-437.6z M3168.9-434.2c2.5-0.9,5-1.8,7.5-2.6c-11.9-15.6-23.8-31.5-35.6-46.9
				C3150.1-467.5,3159.5-450.9,3168.9-434.2z M3163-432.2l1.6-0.6c-6.7-9.7-13.3-19.1-20-28.6C3150.8-451.6,3156.9-442,3163-432.2z
				 M2103.2,0c357.4-162.7,721.4-314.7,1057.7-431.4c-13.4-21.3-26.7-42.4-40-63.6c-7-10-14-19.8-21.1-29.8
				C2708.4-389.8,2276.5-200.2,1862,0h-5.2c415.5-200.9,848.7-391.3,1241.4-526.9c-22-31.2-44-62.4-65.7-92.3
				c-442,151-939.4,381.5-1402.3,619.1h-4.8c463.6-238.2,962.2-469.5,1405.5-621.2c-13.1-18-25.8-34.8-38.8-52.3
				c-10.5-13.2-20.9-25.8-31.3-38.6C2473.4-547.9,1914.6-273.7,1413.6,0h-4.6c501.5-274.2,1061.5-549.2,1550.2-714.3
				c-24.8-30.6-49.5-60.7-74-90.2C2356.4-629.6,1739.8-308,1211.1,0h-4.3c529.1-308.4,1146.7-630.8,1676.7-806.5
				c-6.4-7.7-12.9-15.9-19.3-23.5c-19.5-21.7-39.2-43.8-58.5-65C2239.5-712.8,1569-339.7,1023.3,0h-4.2
				c545.8-340,1217.2-713.9,1784.6-897.1c-27.5-30.1-54.4-58.8-81.5-87.8C2121.5-798.4,1400.9-368.4,849.3,0h-4
				c551.5-368.5,1273-799.5,1874.9-987.1c-27.4-29.4-54.8-58.6-81.6-86.6C2005-887.2,1237-393.3,689.9,0h-3.8
				C1233-393.3,2001.7-888.1,2636.6-1075.9c-28.3-29.5-56.1-57.7-83.8-85.8C1887.2-979.3,1075.5-413.1,544.5,0h-3.6
				c530.6-413,1342.9-980.1,2009.7-1163.9c-28.7-29.1-56.9-57-85-84.6C1767.7-1075.5,916.3-426.1,413.3,0h-3.4
				c502.4-425.8,1354.4-1076.1,2053.5-1250.7c-28.6-28.1-57.1-56-85-82.5C1646.3-1176.5,758.8-429.6,296.5,0h-3.2
				c461.6-429.1,1349.3-1176.9,2082.6-1335.6c-29.2-27.7-57.9-54.4-86.4-80.5C1519.1-1282.5,600.9-418.8,194,0H191
				c405.9-418,1324.3-1282.7,2095.9-1418.5c-29.6-27.1-58.5-52.6-87.4-78C1382.9-1394.3,439.2-384.8,106.1,0h-2.9
				C435-383.6,1378.8-1394.2,2196.5-1499.2c-29.3-25.7-58.2-50.5-86.8-74.5C1230.5-1513.5,263.2-304.2,33.1,0h-2.8
				C258.6-301.9,1226-1512.8,2106.6-1576.3c-28.8-24.2-57.5-47.9-85.5-70.4C1089.1-1644.4,140.8-252.5,0-37.8v-4
				c147.4-224.2,1089.9-1601.3,2017.4-1607.7c-28.4-22.6-56.5-44.8-84.1-65.7C992.7-1780.9,133.4-353.3,0-120.9v-4.5
				c139.3-242,993.4-1653.7,1929.1-1593.2c-28.2-21.3-55.6-40.9-83-60.4C887.3-1918.6,124.5-458.2,0-205.3v-5
				c130.5-264.1,888.6-1705.2,1841-1572.3c-26.9-19.1-53.3-37-79.4-54.4C774.4-2057.2,114.7-571.5,0-292.1v-5.9
				c120.2-291.4,776.1-1754.3,1754.8-1543.7c-25.1-16.6-49.7-32.4-74.1-47.5C654.4-2195.7,103-695.8,0-382.9v-7.2
				c108.2-326.5,656.8-1797.7,1671-1505c-22-13.5-43.9-26.8-65.3-39.1C531.2-2332.1,89.7-841.1,0-481.8v-9.3
				c94.3-373,533.8-1826.1,1588.9-1452.4c-17.1-9.6-34.2-19.4-51-28.2C413.5-2460.7,74.8-1027.4,0-600.6v-13.1
				c78.2-437.1,414.2-1812.9,1497.4-1378.6C332.6-2577.3,61.7-1308.3,0-780.2v-19.4c66.8-546.1,350.8-1803.7,1537.5-1175.3
				c38.8,16.9,78.5,35.7,119.2,57.3c42.5,17.8,86.1,39.1,130.5,62.9c44.2,18.1,89.3,39.8,135.1,64.8c44.8,18,90.2,39.5,136.2,64.9
				c45.5,17.9,91.3,39.3,137.4,65.1c46.1,17.7,92.3,39.1,138.5,65.3c48.1,18,95.8,40.3,143.2,67.8c48,17.6,95.3,40,141.8,67.4
				c48.6,17.5,96.2,39.7,142.5,67.5c49.3,17.2,97.1,39.5,143.1,67.6c50,16.9,98,39.4,143.7,67.7c50.8,16.6,98.9,39.2,144.2,67.8
				c51.6,16.4,99.8,39.1,144.7,67.9c52.8,16.2,101.6,39.3,146.4,68.7c54.1,16.1,103.3,39.5,147.9,69.6
				c54.8,15.9,104.2,39.2,148.1,69.6c55.6,15.7,105.1,38.9,148.3,69.6c56.3,15.6,106.2,38.5,148.5,69.6
				c57.1,15.5,107.2,38.2,148.8,69.7c58,15.2,108.2,38,148.9,69.7C4611.2-573.4,4705-381.9,4573,0h-3.3
				c128.5-373.8,39.7-564.3-188.1-627.9c128.9,106.7,160,306.2,54.3,627.9h-3c106.6-325.8,72.5-525.8-61.9-630.6
				c-27.2-7-56.2-12.4-87-16c99.9,124.2,116.7,332,21.3,646.6h-3c95.6-316.4,77.2-524.3-25.3-647.5c-30.2-3.4-61.8-5.4-95.3-5.7
				c75.6,138.3,82.6,350.1,0,653.3h-2.8c82.5-303.9,74.6-515.6-2.4-653.3c-32.1-0.1-65.9,1.4-100.6,3.9
				c56.9,148.5,58.4,360.6-10,649.5h-2.7c68.2-289.1,66.2-501,8.5-649.1c-33.7,2.5-68.8,6.2-104.8,11c44.3,154.9,44.6,364.4-9,638.1
				h-2.6c53.5-273.7,52.9-483.1,8.2-637.6c-33.9,4.5-68.7,10-104.5,16.4c36.4,158.2,38.3,363-0.8,621.2h-2.5
				c39-258.2,36.8-462.7,0.2-620.6c-33,5.9-66.7,12.6-101.2,20c32.2,159,37.9,357.6,12.6,600.6h-2.4c25.2-242.9,19.3-441.2-13.1-600
				c-31.4,6.8-63.3,14.1-95.8,22.1c31,157.8,41.7,349.4,29.4,577.9h-2.4c12.2-228.3,1.4-419.7-29.7-577.2
				c-29.2,7.2-58.6,14.5-88.7,22.6c31.9,155.3,48.4,339.7,48.2,554.6h-2.4c0.2-214.7-16.4-398.9-48.4-553.9
				c-26.7,7.2-54,15.2-81.2,23c34.1,149.9,57.1,323.9,68.4,522.7l6.4,8.2h-2.8l-3.4-4.4l0.2,4.4h-2.3l-0.4-7.6
				c-5.1-6.5-10.2-13-15.3-19.6c-15.4-19.8-30.3-38.4-45.4-57.6c3.7,27.9,7.6,55,10.9,83.9l0.6,0.8h-2.8l0-0.2
				c-18.2-25.8-36.5-51.8-54.7-77.3c4.7,24.9,8.8,51.6,13.1,77.4h-3.8c-15.7-25-31.5-50.7-46.9-74.7c6.1,24.9,12.4,49.3,18.4,74.7
				h-4.4c-12.5-22.1-24.9-43.4-37.4-65.3c6.5,21.1,12.7,43.5,19.1,65.3h-4.1c-9.5-19.3-19-38.7-28.4-57.6
				c7,19.1,14.1,38.1,21.1,57.6h-3c-23.2-54.5-46.3-107.4-69.5-158.8c-29.8-57.7-59.5-114.2-89-168.6c-21.1-34.8-42.1-68.5-63-101.9
				C2827.3-313.3,2464.8-162,2108.6,0L2103.2,0L2103.2,0z"/>
		</defs>
		<use xlink:href="#SVGID_3_"  style="overflow:visible;fill:#4377B2;"/>
		<clipPath id="SVGID_4_">
			<use xlink:href="#SVGID_3_"  style="overflow:visible;"/>
		</clipPath>
		<rect y="-2603.4" class="st1" width="4705" height="2603.4"/>
	</g>
</g>
</svg>
