<svg xmlns="http://www.w3.org/2000/svg" xmlns:xlink="http://www.w3.org/1999/xlink" width="500" zoomAndPan="magnify" viewBox="0 0 375 374.999991" height="500" preserveAspectRatio="xMidYMid meet" version="1.0"><defs><g/><clipPath id="d609961c1b"><path d="M 109 210 L 115.273438 210 L 115.273438 214 L 109 214 Z M 109 210 " clip-rule="nonzero"/></clipPath><clipPath id="84b1c3127b"><path d="M 65.023438 210 L 110 210 L 110 214 L 65.023438 214 Z M 65.023438 210 " clip-rule="nonzero"/></clipPath><clipPath id="1ca8056231"><path d="M 115 209.074219 L 115.273438 209.074219 L 115.273438 215.074219 L 115 215.074219 Z M 115 209.074219 " clip-rule="nonzero"/></clipPath><clipPath id="fe27a6b4de"><path d="M 259.117188 213 L 266 213 L 266 217 L 259.117188 217 Z M 259.117188 213 " clip-rule="nonzero"/></clipPath><clipPath id="fa45e236f5"><path d="M 265 214 L 309.367188 214 L 309.367188 217 L 265 217 Z M 265 214 " clip-rule="nonzero"/></clipPath><clipPath id="2febd9175f"><path d="M 259.117188 212.226562 L 260 212.226562 L 260 218.226562 L 259.117188 218.226562 Z M 259.117188 212.226562 " clip-rule="nonzero"/></clipPath></defs><rect x="-37.5" width="450" fill="#ffffff" y="-37.499999" height="449.999989" fill-opacity="1"/><rect x="-37.5" width="450" fill="#4377b2" y="-37.499999" height="449.999989" fill-opacity="1"/><g fill="#ffffff" fill-opacity="1"><g transform="translate(71.374914, 186.986179)"><g><path d="M 37.9375 -32.546875 C 37.9375 -29.859375 37.015625 -27.539062 35.171875 -25.59375 C 33.335938 -23.65625 30.539062 -22.21875 26.78125 -21.28125 L 36.96875 -8.65625 C 38.207031 -7.113281 39.253906 -5.882812 40.109375 -4.96875 C 40.960938 -4.050781 42.019531 -3.21875 43.28125 -2.46875 C 44.539062 -1.71875 45.941406 -1.28125 47.484375 -1.15625 L 47.484375 0 L 36.015625 0 L 19.421875 -20.640625 L 15.1875 -20.640625 L 15.1875 -6.34375 C 15.1875 -4.46875 15.664062 -3.132812 16.625 -2.34375 C 17.582031 -1.550781 19.085938 -1.15625 21.140625 -1.15625 L 21.40625 -1.15625 L 21.40625 0 L 2.171875 0 L 2.171875 -1.15625 C 4.222656 -1.15625 5.75 -1.515625 6.75 -2.234375 C 7.757812 -2.960938 8.265625 -4.269531 8.265625 -6.15625 L 8.265625 -38 C 8.265625 -39.707031 7.757812 -40.945312 6.75 -41.71875 C 5.75 -42.488281 4.222656 -42.875 2.171875 -42.875 L 2.171875 -44.015625 L 22.75 -44.015625 C 26.9375 -44.015625 30.515625 -43.070312 33.484375 -41.1875 C 36.453125 -39.3125 37.9375 -36.429688 37.9375 -32.546875 Z M 15.1875 -40.625 L 15.1875 -22.8125 L 16.78125 -22.8125 C 21.101562 -22.8125 24.375 -23.65625 26.59375 -25.34375 C 28.8125 -27.03125 29.921875 -29.367188 29.921875 -32.359375 C 29.921875 -34.960938 29.078125 -37.179688 27.390625 -39.015625 C 25.703125 -40.859375 23.320312 -41.78125 20.25 -41.78125 C 18.582031 -41.78125 16.894531 -41.394531 15.1875 -40.625 Z M 15.1875 -40.625 "/></g></g></g><g fill="#ffffff" fill-opacity="1"><g transform="translate(120.770071, 186.986179)"><g><path d="M 8.71875 -46.140625 C 9.65625 -46.140625 10.441406 -45.816406 11.078125 -45.171875 C 11.722656 -44.535156 12.046875 -43.769531 12.046875 -42.875 C 12.046875 -41.925781 11.722656 -41.128906 11.078125 -40.484375 C 10.441406 -39.847656 9.65625 -39.53125 8.71875 -39.53125 C 7.820312 -39.53125 7.050781 -39.847656 6.40625 -40.484375 C 5.769531 -41.128906 5.453125 -41.925781 5.453125 -42.875 C 5.453125 -43.769531 5.769531 -44.535156 6.40625 -45.171875 C 7.050781 -45.816406 7.820312 -46.140625 8.71875 -46.140625 Z M 11.53125 -6.671875 C 11.53125 -4.578125 11.867188 -3.144531 12.546875 -2.375 C 13.234375 -1.601562 14.347656 -1.195312 15.890625 -1.15625 L 15.890625 0 L 1.46875 0 L 1.46875 -1.15625 C 3.21875 -1.15625 4.457031 -1.5625 5.1875 -2.375 C 5.914062 -3.1875 6.28125 -4.660156 6.28125 -6.796875 L 6.28125 -22.296875 C 6.28125 -23.453125 6.019531 -24.390625 5.5 -25.109375 C 4.988281 -25.835938 4.203125 -26.203125 3.140625 -26.203125 C 2.671875 -26.203125 2.242188 -26.097656 1.859375 -25.890625 L 1.46875 -27.046875 L 10.375 -30.4375 L 11.53125 -30.4375 Z M 11.53125 -6.671875 "/></g></g></g><g fill="#ffffff" fill-opacity="1"><g transform="translate(138.13205, 186.986179)"><g><path d="M 12.046875 -30.4375 C 13.285156 -30.4375 14.546875 -30.222656 15.828125 -29.796875 C 16.722656 -29.492188 17.445312 -29.34375 18 -29.34375 C 18.382812 -29.34375 18.789062 -29.472656 19.21875 -29.734375 L 20.375 -29.734375 L 20.375 -20.703125 L 19.21875 -20.703125 C 18.875 -23.046875 18.039062 -24.953125 16.71875 -26.421875 C 15.394531 -27.898438 13.796875 -28.640625 11.921875 -28.640625 C 10.421875 -28.640625 9.191406 -28.273438 8.234375 -27.546875 C 7.273438 -26.828125 6.796875 -25.847656 6.796875 -24.609375 C 6.796875 -23.617188 7.0625 -22.769531 7.59375 -22.0625 C 8.125 -21.363281 8.867188 -20.710938 9.828125 -20.109375 C 10.796875 -19.515625 12.304688 -18.6875 14.359375 -17.625 C 17.003906 -16.207031 19.03125 -14.816406 20.4375 -13.453125 C 21.851562 -12.085938 22.5625 -10.253906 22.5625 -7.953125 C 22.5625 -5.898438 22.035156 -4.207031 20.984375 -2.875 C 19.941406 -1.550781 18.679688 -0.59375 17.203125 0 C 15.734375 0.59375 14.335938 0.890625 13.015625 0.890625 C 11.722656 0.890625 9.988281 0.59375 7.8125 0 C 6.832031 -0.300781 6.171875 -0.453125 5.828125 -0.453125 C 5.273438 -0.453125 4.890625 -0.300781 4.671875 0 L 3.328125 0 L 3.328125 -10 L 4.421875 -10 C 4.722656 -7.34375 5.679688 -5.191406 7.296875 -3.546875 C 8.921875 -1.910156 10.847656 -1.09375 13.078125 -1.09375 C 14.398438 -1.09375 15.550781 -1.519531 16.53125 -2.375 C 17.507812 -3.226562 18 -4.296875 18 -5.578125 C 18 -7.066406 17.570312 -8.238281 16.71875 -9.09375 C 15.863281 -9.945312 14.910156 -10.679688 13.859375 -11.296875 C 12.816406 -11.921875 12.128906 -12.320312 11.796875 -12.5 C 11.617188 -12.625 11.019531 -12.960938 10 -13.515625 C 8.457031 -14.367188 7.226562 -15.125 6.3125 -15.78125 C 5.394531 -16.445312 4.625 -17.316406 4 -18.390625 C 3.382812 -19.460938 3.078125 -20.785156 3.078125 -22.359375 C 3.078125 -24.753906 3.921875 -26.695312 5.609375 -28.1875 C 7.296875 -29.6875 9.441406 -30.4375 12.046875 -30.4375 Z M 12.046875 -30.4375 "/></g></g></g><g fill="#ffffff" fill-opacity="1"><g transform="translate(162.797591, 186.986179)"><g><path d="M 11.53125 -24.15625 L 11.65625 -24.15625 C 13.070312 -26.082031 14.675781 -27.609375 16.46875 -28.734375 C 18.257812 -29.867188 20.03125 -30.4375 21.78125 -30.4375 C 24.300781 -30.4375 26.210938 -29.484375 27.515625 -27.578125 C 28.816406 -25.679688 29.46875 -23.34375 29.46875 -20.5625 L 29.46875 -6.859375 C 29.46875 -5.234375 29.640625 -4.015625 29.984375 -3.203125 C 30.328125 -2.390625 30.828125 -1.84375 31.484375 -1.5625 C 32.148438 -1.289062 33.101562 -1.15625 34.34375 -1.15625 L 34.34375 0 L 19.484375 0 L 19.484375 -1.15625 C 20.628906 -1.15625 21.535156 -1.28125 22.203125 -1.53125 C 22.867188 -1.789062 23.367188 -2.328125 23.703125 -3.140625 C 24.046875 -3.953125 24.21875 -5.171875 24.21875 -6.796875 L 24.21875 -21.40625 C 24.21875 -22.769531 23.78125 -23.960938 22.90625 -24.984375 C 22.03125 -26.015625 20.78125 -26.53125 19.15625 -26.53125 C 17.832031 -26.53125 16.582031 -26.21875 15.40625 -25.59375 C 14.238281 -24.976562 12.945312 -23.96875 11.53125 -22.5625 L 11.53125 -6.796875 C 11.53125 -5.128906 11.691406 -3.898438 12.015625 -3.109375 C 12.335938 -2.316406 12.847656 -1.789062 13.546875 -1.53125 C 14.253906 -1.28125 15.289062 -1.15625 16.65625 -1.15625 L 16.65625 0 L 1.609375 0 L 1.609375 -1.15625 C 2.753906 -1.15625 3.65625 -1.289062 4.3125 -1.5625 C 4.976562 -1.84375 5.472656 -2.398438 5.796875 -3.234375 C 6.117188 -4.066406 6.28125 -5.273438 6.28125 -6.859375 L 6.28125 -36.96875 C 6.28125 -38.769531 6 -39.957031 5.4375 -40.53125 C 4.882812 -41.101562 4.179688 -41.390625 3.328125 -41.390625 C 2.734375 -41.390625 2.160156 -41.265625 1.609375 -41.015625 L 1.21875 -42.09375 L 10.375 -45.9375 L 11.53125 -45.9375 Z M 11.53125 -24.15625 "/></g></g></g><g fill="#ffffff" fill-opacity="1"><g transform="translate(198.162213, 186.986179)"><g><path d="M 8.71875 -46.140625 C 9.65625 -46.140625 10.441406 -45.816406 11.078125 -45.171875 C 11.722656 -44.535156 12.046875 -43.769531 12.046875 -42.875 C 12.046875 -41.925781 11.722656 -41.128906 11.078125 -40.484375 C 10.441406 -39.847656 9.65625 -39.53125 8.71875 -39.53125 C 7.820312 -39.53125 7.050781 -39.847656 6.40625 -40.484375 C 5.769531 -41.128906 5.453125 -41.925781 5.453125 -42.875 C 5.453125 -43.769531 5.769531 -44.535156 6.40625 -45.171875 C 7.050781 -45.816406 7.820312 -46.140625 8.71875 -46.140625 Z M 11.53125 -6.671875 C 11.53125 -4.578125 11.867188 -3.144531 12.546875 -2.375 C 13.234375 -1.601562 14.347656 -1.195312 15.890625 -1.15625 L 15.890625 0 L 1.46875 0 L 1.46875 -1.15625 C 3.21875 -1.15625 4.457031 -1.5625 5.1875 -2.375 C 5.914062 -3.1875 6.28125 -4.660156 6.28125 -6.796875 L 6.28125 -22.296875 C 6.28125 -23.453125 6.019531 -24.390625 5.5 -25.109375 C 4.988281 -25.835938 4.203125 -26.203125 3.140625 -26.203125 C 2.671875 -26.203125 2.242188 -26.097656 1.859375 -25.890625 L 1.46875 -27.046875 L 10.375 -30.4375 L 11.53125 -30.4375 Z M 11.53125 -6.671875 "/></g></g></g><g fill="#ffffff" fill-opacity="1"><g transform="translate(215.524192, 186.986179)"><g><path d="M 11.796875 -45.9375 L 11.796875 -16.65625 L 20.953125 -25.375 C 21.722656 -26.0625 22.109375 -26.679688 22.109375 -27.234375 C 22.109375 -27.617188 21.90625 -27.9375 21.5 -28.1875 C 21.09375 -28.445312 20.503906 -28.578125 19.734375 -28.578125 L 19.734375 -29.734375 L 32.875 -29.734375 L 32.875 -28.578125 L 32.421875 -28.578125 C 30.410156 -28.578125 28.734375 -28.222656 27.390625 -27.515625 C 26.046875 -26.816406 24.5 -25.632812 22.75 -23.96875 L 16.78125 -18.328125 L 24.796875 -7.953125 C 26.296875 -6.023438 27.546875 -4.578125 28.546875 -3.609375 C 29.546875 -2.648438 30.472656 -2 31.328125 -1.65625 C 32.179688 -1.320312 33.144531 -1.15625 34.21875 -1.15625 L 34.21875 0 L 19.921875 0 L 19.921875 -1.15625 C 21.296875 -1.238281 21.984375 -1.644531 21.984375 -2.375 C 21.984375 -3.09375 21.554688 -3.945312 20.703125 -4.9375 L 11.921875 -16.34375 L 11.796875 -16.34375 L 11.796875 -6.796875 C 11.796875 -5.210938 11.960938 -4.015625 12.296875 -3.203125 C 12.640625 -2.390625 13.148438 -1.84375 13.828125 -1.5625 C 14.515625 -1.289062 15.5 -1.15625 16.78125 -1.15625 L 16.78125 0 L 1.671875 0 L 1.671875 -1.15625 C 2.910156 -1.15625 3.867188 -1.289062 4.546875 -1.5625 C 5.234375 -1.84375 5.734375 -2.378906 6.046875 -3.171875 C 6.367188 -3.960938 6.53125 -5.171875 6.53125 -6.796875 L 6.53125 -37.421875 C 6.53125 -38.921875 6.296875 -39.988281 5.828125 -40.625 C 5.359375 -41.269531 4.546875 -41.59375 3.390625 -41.59375 C 3.179688 -41.59375 2.945312 -41.566406 2.6875 -41.515625 C 2.4375 -41.472656 2.222656 -41.410156 2.046875 -41.328125 L 1.671875 -42.421875 L 10.703125 -45.9375 Z M 11.796875 -45.9375 "/></g></g></g><g fill="#ffffff" fill-opacity="1"><g transform="translate(250.888814, 186.986179)"><g><path d="M 11.796875 -8.453125 C 11.796875 -6.921875 12.265625 -5.660156 13.203125 -4.671875 C 14.140625 -3.691406 15.289062 -3.203125 16.65625 -3.203125 C 17.894531 -3.203125 19.175781 -3.53125 20.5 -4.1875 C 21.820312 -4.851562 23.082031 -5.828125 24.28125 -7.109375 L 24.28125 -24.859375 C 24.28125 -27.335938 22.828125 -28.578125 19.921875 -28.578125 L 19.28125 -28.578125 L 19.28125 -29.734375 L 29.546875 -29.734375 L 29.546875 -6.921875 C 29.546875 -6.148438 29.769531 -5.367188 30.21875 -4.578125 C 30.664062 -3.785156 31.378906 -3.390625 32.359375 -3.390625 C 32.910156 -3.390625 33.613281 -3.5625 34.46875 -3.90625 L 34.46875 -2.6875 L 25.5 0.765625 L 24.28125 0.765625 L 24.28125 -5.515625 L 24.15625 -5.515625 C 20.695312 -1.242188 17.363281 0.890625 14.15625 0.890625 C 12.53125 0.890625 11.140625 0.472656 9.984375 -0.359375 C 8.835938 -1.191406 7.972656 -2.25 7.390625 -3.53125 C 6.816406 -4.8125 6.53125 -6.113281 6.53125 -7.4375 L 6.53125 -24.34375 C 6.53125 -26.007812 6.15625 -27.128906 5.40625 -27.703125 C 4.664062 -28.285156 3.503906 -28.578125 1.921875 -28.578125 L 1.15625 -28.578125 L 1.15625 -29.734375 L 11.796875 -29.734375 Z M 11.796875 -8.453125 "/></g></g></g><g fill="#ffffff" fill-opacity="1"><g transform="translate(286.253424, 186.986179)"><g><path d="M 11.59375 -45.9375 L 11.59375 -6.734375 C 11.59375 -4.597656 11.898438 -3.132812 12.515625 -2.34375 C 13.140625 -1.550781 14.265625 -1.15625 15.890625 -1.15625 L 15.890625 0 L 1.46875 0 L 1.46875 -1.15625 C 2.664062 -1.15625 3.601562 -1.28125 4.28125 -1.53125 C 4.96875 -1.789062 5.484375 -2.328125 5.828125 -3.140625 C 6.171875 -3.953125 6.34375 -5.148438 6.34375 -6.734375 L 6.34375 -37.03125 C 6.34375 -39.894531 5.335938 -41.328125 3.328125 -41.328125 C 2.773438 -41.328125 2.285156 -41.222656 1.859375 -41.015625 L 1.46875 -42.09375 L 10.4375 -45.9375 Z M 11.59375 -45.9375 "/></g></g></g><g clip-path="url(#d609961c1b)"><path fill="#ffffff" d="M 112.238281 210.738281 C 112.675781 211.351562 113.765625 211.742188 114.765625 211.976562 C 114.921875 212.011719 115.082031 212.042969 115.242188 212.078125 C 115.082031 212.105469 114.921875 212.140625 114.765625 212.175781 C 113.765625 212.410156 112.675781 212.800781 112.238281 213.414062 C 111.800781 212.800781 110.707031 212.410156 109.707031 212.175781 C 109.550781 212.140625 109.394531 212.105469 109.234375 212.078125 C 109.394531 212.042969 109.550781 212.011719 109.707031 211.976562 C 110.707031 211.742188 111.800781 211.351562 112.238281 210.738281 Z M 112.238281 210.738281 " fill-opacity="1" fill-rule="evenodd"/></g><g clip-path="url(#84b1c3127b)"><path fill="#ffffff" d="M 103.238281 210.960938 C 104.109375 211.472656 106.292969 211.800781 108.289062 211.992188 C 108.597656 212.023438 108.914062 212.050781 109.234375 212.078125 C 108.914062 212.101562 108.597656 212.128906 108.289062 212.160156 C 106.292969 212.351562 104.109375 212.679688 103.238281 213.191406 C 96.953125 212.605469 79.988281 212.265625 65.394531 212.078125 C 79.988281 211.886719 96.953125 211.546875 103.238281 210.960938 Z M 103.238281 210.960938 " fill-opacity="1" fill-rule="evenodd"/></g><g clip-path="url(#1ca8056231)"><path fill="#ffffff" d="M 119.359375 212.078125 C 118.410156 211.640625 117.8125 210.546875 117.457031 209.546875 C 117.398438 209.390625 117.347656 209.234375 117.300781 209.074219 C 117.253906 209.234375 117.199219 209.390625 117.144531 209.546875 C 116.789062 210.546875 116.1875 211.640625 115.242188 212.078125 C 116.1875 212.511719 116.789062 213.605469 117.144531 214.605469 C 117.199219 214.761719 117.253906 214.917969 117.300781 215.082031 C 117.347656 214.917969 117.398438 214.761719 117.457031 214.605469 C 117.8125 213.605469 118.410156 212.511719 119.359375 212.078125 Z M 118.378906 212.078125 C 117.925781 211.671875 117.574219 211.144531 117.300781 210.59375 C 117.027344 211.144531 116.675781 211.671875 116.222656 212.078125 C 116.675781 212.480469 117.027344 213.007812 117.300781 213.558594 C 117.574219 213.007812 117.925781 212.480469 118.378906 212.078125 Z M 118.378906 212.078125 " fill-opacity="1" fill-rule="evenodd"/></g><g clip-path="url(#fe27a6b4de)"><path fill="#ffffff" d="M 262.398438 213.890625 C 261.960938 214.507812 260.867188 214.898438 259.867188 215.128906 C 259.714844 215.164062 259.554688 215.199219 259.394531 215.230469 C 259.554688 215.261719 259.714844 215.296875 259.867188 215.332031 C 260.867188 215.5625 261.960938 215.953125 262.398438 216.570312 C 262.835938 215.953125 263.929688 215.5625 264.929688 215.332031 C 265.082031 215.296875 265.242188 215.261719 265.402344 215.230469 C 265.242188 215.199219 265.082031 215.164062 264.929688 215.128906 C 263.929688 214.898438 262.835938 214.507812 262.398438 213.890625 Z M 262.398438 213.890625 " fill-opacity="1" fill-rule="evenodd"/></g><g clip-path="url(#fa45e236f5)"><path fill="#ffffff" d="M 271.398438 214.113281 C 270.527344 214.628906 268.34375 214.953125 266.347656 215.144531 C 266.039062 215.175781 265.722656 215.203125 265.402344 215.230469 C 265.722656 215.257812 266.039062 215.285156 266.347656 215.3125 C 268.34375 215.507812 270.527344 215.832031 271.398438 216.347656 C 277.683594 215.757812 294.648438 215.417969 309.238281 215.230469 C 294.648438 215.042969 277.683594 214.703125 271.398438 214.113281 Z M 271.398438 214.113281 " fill-opacity="1" fill-rule="evenodd"/></g><g clip-path="url(#2febd9175f)"><path fill="#ffffff" d="M 255.277344 215.230469 C 256.222656 214.792969 256.824219 213.699219 257.179688 212.699219 C 257.234375 212.542969 257.289062 212.386719 257.335938 212.226562 C 257.382812 212.386719 257.433594 212.542969 257.492188 212.699219 C 257.847656 213.699219 258.445312 214.792969 259.394531 215.230469 C 258.445312 215.667969 257.847656 216.761719 257.492188 217.761719 C 257.433594 217.914062 257.382812 218.074219 257.335938 218.234375 C 257.289062 218.074219 257.234375 217.914062 257.179688 217.761719 C 256.824219 216.757812 256.222656 215.667969 255.277344 215.230469 Z M 256.257812 215.230469 C 256.710938 214.828125 257.0625 214.300781 257.335938 213.746094 C 257.609375 214.300781 257.960938 214.828125 258.414062 215.230469 C 257.960938 215.632812 257.609375 216.160156 257.335938 216.714844 C 257.0625 216.160156 256.710938 215.632812 256.257812 215.230469 Z M 256.257812 215.230469 " fill-opacity="1" fill-rule="evenodd"/></g><g fill="#ffffff" fill-opacity="1"><g transform="translate(121.779402, 224.232393)"><g><path d="M 17.390625 -31.703125 C 20.253906 -31.703125 22.890625 -30.976562 25.296875 -29.53125 C 27.703125 -28.09375 29.613281 -26.128906 31.03125 -23.640625 C 32.445312 -21.160156 33.15625 -18.445312 33.15625 -15.5 C 33.15625 -12.570312 32.445312 -9.863281 31.03125 -7.375 C 29.613281 -4.894531 27.703125 -2.929688 25.296875 -1.484375 C 22.890625 -0.046875 20.253906 0.671875 17.390625 0.671875 C 14.523438 0.671875 11.890625 -0.046875 9.484375 -1.484375 C 7.078125 -2.929688 5.171875 -4.894531 3.765625 -7.375 C 2.367188 -9.863281 1.671875 -12.570312 1.671875 -15.5 C 1.671875 -18.445312 2.367188 -21.160156 3.765625 -23.640625 C 5.171875 -26.128906 7.078125 -28.09375 9.484375 -29.53125 C 11.890625 -30.976562 14.523438 -31.703125 17.390625 -31.703125 Z M 7.3125 -15.5 C 7.3125 -12.601562 7.722656 -10.0625 8.546875 -7.875 C 9.378906 -5.695312 10.554688 -4.007812 12.078125 -2.8125 C 13.597656 -1.625 15.367188 -1.03125 17.390625 -1.03125 C 19.410156 -1.03125 21.1875 -1.625 22.71875 -2.8125 C 24.257812 -4.007812 25.441406 -5.695312 26.265625 -7.875 C 27.097656 -10.0625 27.515625 -12.601562 27.515625 -15.5 C 27.515625 -18.320312 27.109375 -20.832031 26.296875 -23.03125 C 25.484375 -25.226562 24.316406 -26.9375 22.796875 -28.15625 C 21.273438 -29.382812 19.457031 -30 17.34375 -30 C 15.269531 -30 13.476562 -29.378906 11.96875 -28.140625 C 10.46875 -26.910156 9.316406 -25.191406 8.515625 -22.984375 C 7.710938 -20.785156 7.3125 -18.289062 7.3125 -15.5 Z M 7.3125 -15.5 "/></g></g></g><g fill="#ffffff" fill-opacity="1"><g transform="translate(157.097867, 224.232393)"><g><path d="M 8.078125 -17.03125 C 9.648438 -18.71875 10.929688 -19.875 11.921875 -20.5 C 12.921875 -21.132812 14.019531 -21.453125 15.21875 -21.453125 C 16.539062 -21.453125 17.609375 -21.097656 18.421875 -20.390625 C 19.242188 -19.679688 19.832031 -18.816406 20.1875 -17.796875 C 20.550781 -16.773438 20.734375 -15.765625 20.734375 -14.765625 L 20.734375 -4.78125 C 20.734375 -3.25 20.972656 -2.21875 21.453125 -1.6875 C 21.929688 -1.164062 22.757812 -0.875 23.9375 -0.8125 L 23.9375 0 L 13.375 0 L 13.375 -0.8125 C 14.332031 -0.8125 15.066406 -0.914062 15.578125 -1.125 C 16.097656 -1.34375 16.46875 -1.726562 16.6875 -2.28125 C 16.914062 -2.832031 17.03125 -3.664062 17.03125 -4.78125 L 17.03125 -14.953125 C 17.03125 -15.910156 16.710938 -16.789062 16.078125 -17.59375 C 15.441406 -18.394531 14.570312 -18.796875 13.46875 -18.796875 C 12.53125 -18.796875 11.640625 -18.546875 10.796875 -18.046875 C 9.953125 -17.546875 9.046875 -16.785156 8.078125 -15.765625 L 8.078125 -4.78125 C 8.078125 -3.21875 8.332031 -2.171875 8.84375 -1.640625 C 9.363281 -1.117188 10.253906 -0.84375 11.515625 -0.8125 L 11.515625 0 L 1.125 0 L 1.125 -0.8125 C 2.0625 -0.90625 2.753906 -1.070312 3.203125 -1.3125 C 3.660156 -1.550781 3.96875 -1.925781 4.125 -2.4375 C 4.289062 -2.945312 4.375 -3.6875 4.375 -4.65625 L 4.375 -15.90625 C 4.375 -16.59375 4.222656 -17.191406 3.921875 -17.703125 C 3.628906 -18.210938 3.148438 -18.46875 2.484375 -18.46875 C 2.179688 -18.46875 1.898438 -18.414062 1.640625 -18.3125 C 1.390625 -18.207031 1.21875 -18.140625 1.125 -18.109375 L 0.8125 -18.96875 L 7.3125 -21.453125 L 8.078125 -21.453125 Z M 8.078125 -17.03125 "/></g></g></g><g fill="#ffffff" fill-opacity="1"><g transform="translate(182.525387, 224.232393)"><g><path d="M 8.171875 -32.390625 L 8.171875 -4.75 C 8.171875 -3.238281 8.390625 -2.203125 8.828125 -1.640625 C 9.265625 -1.085938 10.054688 -0.8125 11.203125 -0.8125 L 11.203125 0 L 1.03125 0 L 1.03125 -0.8125 C 1.875 -0.8125 2.535156 -0.898438 3.015625 -1.078125 C 3.503906 -1.265625 3.867188 -1.644531 4.109375 -2.21875 C 4.347656 -2.789062 4.46875 -3.632812 4.46875 -4.75 L 4.46875 -26.109375 C 4.46875 -28.128906 3.757812 -29.140625 2.34375 -29.140625 C 1.957031 -29.140625 1.613281 -29.0625 1.3125 -28.90625 L 1.03125 -29.671875 L 7.359375 -32.390625 Z M 8.171875 -32.390625 "/></g></g></g><g fill="#ffffff" fill-opacity="1"><g transform="translate(195.261796, 224.232393)"><g><path d="M 6.140625 -32.53125 C 6.804688 -32.53125 7.363281 -32.300781 7.8125 -31.84375 C 8.269531 -31.394531 8.5 -30.851562 8.5 -30.21875 C 8.5 -29.550781 8.269531 -28.992188 7.8125 -28.546875 C 7.363281 -28.097656 6.804688 -27.875 6.140625 -27.875 C 5.503906 -27.875 4.960938 -28.097656 4.515625 -28.546875 C 4.066406 -28.992188 3.84375 -29.550781 3.84375 -30.21875 C 3.84375 -30.851562 4.066406 -31.394531 4.515625 -31.84375 C 4.960938 -32.300781 5.503906 -32.53125 6.140625 -32.53125 Z M 8.125 -4.703125 C 8.125 -3.222656 8.363281 -2.210938 8.84375 -1.671875 C 9.332031 -1.128906 10.117188 -0.84375 11.203125 -0.8125 L 11.203125 0 L 1.03125 0 L 1.03125 -0.8125 C 2.269531 -0.8125 3.144531 -1.097656 3.65625 -1.671875 C 4.164062 -2.242188 4.421875 -3.28125 4.421875 -4.78125 L 4.421875 -15.71875 C 4.421875 -16.53125 4.238281 -17.191406 3.875 -17.703125 C 3.519531 -18.210938 2.96875 -18.46875 2.21875 -18.46875 C 1.882812 -18.46875 1.582031 -18.394531 1.3125 -18.25 L 1.03125 -19.0625 L 7.3125 -21.453125 L 8.125 -21.453125 Z M 8.125 -4.703125 "/></g></g></g><g fill="#ffffff" fill-opacity="1"><g transform="translate(207.998211, 224.232393)"><g><path d="M 8.078125 -17.03125 C 9.648438 -18.71875 10.929688 -19.875 11.921875 -20.5 C 12.921875 -21.132812 14.019531 -21.453125 15.21875 -21.453125 C 16.539062 -21.453125 17.609375 -21.097656 18.421875 -20.390625 C 19.242188 -19.679688 19.832031 -18.816406 20.1875 -17.796875 C 20.550781 -16.773438 20.734375 -15.765625 20.734375 -14.765625 L 20.734375 -4.78125 C 20.734375 -3.25 20.972656 -2.21875 21.453125 -1.6875 C 21.929688 -1.164062 22.757812 -0.875 23.9375 -0.8125 L 23.9375 0 L 13.375 0 L 13.375 -0.8125 C 14.332031 -0.8125 15.066406 -0.914062 15.578125 -1.125 C 16.097656 -1.34375 16.46875 -1.726562 16.6875 -2.28125 C 16.914062 -2.832031 17.03125 -3.664062 17.03125 -4.78125 L 17.03125 -14.953125 C 17.03125 -15.910156 16.710938 -16.789062 16.078125 -17.59375 C 15.441406 -18.394531 14.570312 -18.796875 13.46875 -18.796875 C 12.53125 -18.796875 11.640625 -18.546875 10.796875 -18.046875 C 9.953125 -17.546875 9.046875 -16.785156 8.078125 -15.765625 L 8.078125 -4.78125 C 8.078125 -3.21875 8.332031 -2.171875 8.84375 -1.640625 C 9.363281 -1.117188 10.253906 -0.84375 11.515625 -0.8125 L 11.515625 0 L 1.125 0 L 1.125 -0.8125 C 2.0625 -0.90625 2.753906 -1.070312 3.203125 -1.3125 C 3.660156 -1.550781 3.96875 -1.925781 4.125 -2.4375 C 4.289062 -2.945312 4.375 -3.6875 4.375 -4.65625 L 4.375 -15.90625 C 4.375 -16.59375 4.222656 -17.191406 3.921875 -17.703125 C 3.628906 -18.210938 3.148438 -18.46875 2.484375 -18.46875 C 2.179688 -18.46875 1.898438 -18.414062 1.640625 -18.3125 C 1.390625 -18.207031 1.21875 -18.140625 1.125 -18.109375 L 0.8125 -18.96875 L 7.3125 -21.453125 L 8.078125 -21.453125 Z M 8.078125 -17.03125 "/></g></g></g><g fill="#ffffff" fill-opacity="1"><g transform="translate(233.425734, 224.232393)"><g><path d="M 10.609375 -21.453125 C 12.960938 -21.453125 14.867188 -20.671875 16.328125 -19.109375 C 17.785156 -17.546875 18.515625 -15.515625 18.515625 -13.015625 L 4.34375 -13.015625 L 4.34375 -12.421875 C 4.34375 -10.828125 4.65625 -9.296875 5.28125 -7.828125 C 5.914062 -6.367188 6.804688 -5.1875 7.953125 -4.28125 C 9.097656 -3.382812 10.390625 -2.9375 11.828125 -2.9375 C 14.691406 -2.9375 16.695312 -4.53125 17.84375 -7.71875 L 18.515625 -7.359375 C 18.035156 -4.890625 17.039062 -2.941406 15.53125 -1.515625 C 14.03125 -0.0859375 12.226562 0.625 10.125 0.625 C 8.550781 0.625 7.09375 0.21875 5.75 -0.59375 C 4.414062 -1.40625 3.332031 -2.625 2.5 -4.25 C 1.675781 -5.875 1.265625 -7.84375 1.265625 -10.15625 C 1.265625 -12.382812 1.65625 -14.359375 2.4375 -16.078125 C 3.21875 -17.796875 4.316406 -19.117188 5.734375 -20.046875 C 7.148438 -20.984375 8.773438 -21.453125 10.609375 -21.453125 Z M 9.34375 -19.875 C 8.082031 -19.875 6.992188 -19.375 6.078125 -18.375 C 5.160156 -17.382812 4.609375 -16.0625 4.421875 -14.40625 L 13.875 -14.40625 C 13.8125 -16.03125 13.394531 -17.347656 12.625 -18.359375 C 11.851562 -19.367188 10.757812 -19.875 9.34375 -19.875 Z M 9.34375 -19.875 "/></g></g></g></svg>