<svg width="101" height="47" viewBox="0 0 101 47" fill="none" xmlns="http://www.w3.org/2000/svg">
<path d="M99.0863 45.0252H93.5238V2.43118C93.5238 1.40388 92.6918 0.571777 91.6644 0.571777H82.4144C81.3871 0.571777 80.555 1.40381 80.555 2.43118V45.0252H75.0081V7.97818C75.0081 6.95088 74.1761 6.11878 73.1487 6.11878H63.8987C62.8714 6.11878 62.0393 6.95081 62.0393 7.97818V45.0092H56.4924V22.7902C56.4846 21.7941 55.6916 20.9816 54.6955 20.9464H45.3205C44.2932 20.9464 43.4611 21.7784 43.4611 22.8058V45.0248H37.9767V32.0558C37.9767 31.0285 37.1447 30.1964 36.1173 30.1964H26.8673C25.84 30.1964 25.0079 31.0284 25.0079 32.0558V45.0248H19.4454V39.4623C19.4454 38.435 18.6134 37.6029 17.586 37.6029H8.33599C7.30869 37.6029 6.47659 38.4349 6.47659 39.4623V45.0248H0.92969C0.41797 45.0248 0 45.4428 0 45.9545C0 46.4662 0.41797 46.8842 0.92969 46.8842H99.0857C99.5974 46.8842 100.015 46.4662 100.015 45.9545C100.015 45.4428 99.598 45.0252 99.0863 45.0252Z" fill="url(#paint0_linear_0_1)"/>
<path d="M6.03928 23.0721L17.5083 11.6031L25.3208 19.3219L26.6489 20.6813L28.2114 19.6501L51.7894 4.16606L50.9144 10.2442C50.8402 10.7481 51.1917 11.2168 51.6956 11.2911C52.1995 11.3653 52.6683 11.0137 52.7425 10.5098L53.7425 3.13481L54.0082 1.30671L52.1801 1.04109L44.852 0.00989213C44.348 -0.0643269 43.8793 0.287232 43.8051 0.791142C43.7308 1.29505 44.0824 1.7638 44.5863 1.83804L50.5707 2.69742L26.8207 18.3224L18.7582 10.2912L17.4457 8.99432L16.1488 10.2912L4.6958 21.7752C4.34033 22.1346 4.34033 22.7127 4.6958 23.0721C4.87158 23.2557 5.11377 23.3612 5.36768 23.3612C5.62159 23.3612 5.86349 23.2557 6.03928 23.0721Z" fill="black"/>
<defs>
<linearGradient id="paint0_linear_0_1" x1="50.0077" y1="0.571777" x2="50.0077" y2="46.8842" gradientUnits="userSpaceOnUse">
<stop stop-color="#4377B2"/>
<stop offset="1" stop-color="#285384"/>
</linearGradient>
</defs>
</svg>
