<svg width="88" height="77" viewBox="0 0 88 77" fill="none" xmlns="http://www.w3.org/2000/svg">
<path fill-rule="evenodd" clip-rule="evenodd" d="M5.49975 36.9805V58.6681C5.49975 59.6786 6.32476 60.5002 7.33192 60.5002C8.33909 60.5002 9.16409 59.6787 9.16409 58.6681L9.16753 38.8954L12.8354 40.8101L12.832 63.25C12.832 66.4194 15.1523 69.5132 19.4423 71.8884C24.9802 74.9616 33.9175 77 43.9997 77C54.0819 77 63.0193 74.9616 68.5572 71.8884C72.8472 69.5132 75.1675 66.4194 75.1675 63.25V40.8066L87.0203 34.626C87.6253 34.3097 88 33.6841 88 33C88 32.3159 87.6253 31.6903 87.0203 31.374L76.2578 25.7606C75.3607 25.2931 74.2504 25.6403 73.7828 26.5375C73.3153 27.4347 73.6625 28.5415 74.5631 29.0125L82.2082 32.9999L44.0001 52.9301L12.1448 36.3096L17.3148 33.7212C18.2223 33.2674 18.5901 32.1675 18.1398 31.2633C17.6895 30.3592 16.5826 29.9915 15.682 30.4418L8.12975 34.2162L5.79228 32.9993L44.0004 13.0691L46.8225 14.5404C47.7128 15.0079 48.8197 14.6607 49.2873 13.7635C49.7548 12.8663 49.4076 11.7595 48.5173 11.292L44.8494 9.37727C44.3166 9.09883 43.6841 9.09883 43.1547 9.37727L0.986574 31.3772C0.374698 31.69 0 32.3156 0 32.9998C0 33.6839 0.374689 34.3095 0.990006 34.6257L5.49975 36.9805ZM71.5002 42.7211L44.8527 56.6259C44.3199 56.9044 43.6874 56.9044 43.158 56.6259L16.5 42.7211V63.2497C16.5 65.3465 18.3803 67.11 21.2197 68.6809C26.3554 71.5272 34.6504 73.3319 44.0004 73.3319C53.3505 73.3319 61.6454 71.5272 66.7811 68.6809C69.6206 67.11 71.5009 65.3465 71.5009 63.2497L71.5002 42.7211ZM49.39 25.0314C49.1253 24.3095 48.4379 23.8317 47.6679 23.8317C46.8978 23.8317 46.2104 24.3095 45.9457 25.0279L43.7628 30.9301L37.8675 33.1129C37.1422 33.381 36.6678 34.0651 36.6678 34.8316C36.6678 35.5982 37.1456 36.2857 37.8675 36.5504L43.7628 38.7332L45.9457 44.6353C46.2104 45.3538 46.8978 45.8316 47.6679 45.8316C48.4379 45.8316 49.1253 45.3538 49.39 44.6353L51.5729 38.7332L57.4682 36.5504C58.1901 36.2857 58.6679 35.6016 58.6679 34.8316C58.6679 34.0651 58.1901 33.3811 57.4648 33.1129L51.5694 30.9301L49.3866 25.0279L49.39 25.0314ZM47.6679 30.9508L48.4275 32.9961C48.6097 33.4979 49.005 33.8932 49.5104 34.0789L51.5523 34.8317L49.507 35.588C49.0016 35.7736 48.6098 36.1689 48.4241 36.6708L47.6679 38.7161L46.915 36.6708C46.7225 36.1689 46.3272 35.7736 45.8253 35.588L43.78 34.8317L45.8253 34.0755C46.3306 33.8898 46.7225 33.4945 46.915 32.9926L47.6679 30.9508ZM65.8523 1.19627C65.5876 0.47783 64.9001 0 64.1404 0C63.3704 0 62.6829 0.477813 62.4148 1.19627L58.0045 13.1176L46.0795 17.5279C45.3645 17.796 44.8867 18.48 44.8867 19.2466C44.8867 20.0132 45.3645 20.7006 46.0795 20.9653L58.0045 25.3756L62.4148 37.297C62.6795 38.0154 63.367 38.4932 64.137 38.4932C64.8967 38.4932 65.5841 38.0154 65.8523 37.297L70.2695 25.3756L82.1874 20.9653C82.9127 20.6972 83.3871 20.0132 83.3871 19.2466C83.3871 18.48 82.9093 17.7926 82.1874 17.5279L70.2695 13.1176L65.8523 1.19627ZM64.137 7.11566L67.1173 15.1801C67.3098 15.6819 67.7051 16.0772 68.207 16.2629L76.268 19.25L68.2105 22.2338C67.7052 22.4194 67.3134 22.8147 67.1208 23.3166L64.1405 31.381L61.1533 23.3166C60.9711 22.8147 60.5758 22.4194 60.0705 22.2338L52.0026 19.25L60.0705 16.2663C60.5758 16.0807 60.9676 15.6854 61.1533 15.1835L64.137 7.11566ZM76.9727 5.50008H75.1406C74.1231 5.50008 73.3084 6.32163 73.3084 7.33223C73.3084 8.34282 74.1231 9.16439 75.1406 9.16439H76.9727V10.9965C76.9727 12.0071 77.7874 12.8287 78.8049 12.8287C79.8121 12.8287 80.6371 12.0071 80.6371 10.9965V9.16439H82.4692C83.4764 9.16439 84.3014 8.34283 84.3014 7.33223C84.3014 6.32164 83.4764 5.50008 82.4692 5.50008H80.6371V3.66792C80.6371 2.65733 79.8121 1.83576 78.8049 1.83576C77.7874 1.83576 76.9727 2.65732 76.9727 3.66792V5.50008Z" fill="url(#paint0_linear_123_5988)"/>
<defs>
<linearGradient id="paint0_linear_123_5988" x1="44" y1="0" x2="44" y2="77" gradientUnits="userSpaceOnUse">
<stop stop-color="#4377B2"/>
<stop offset="1" stop-color="#285384"/>
</linearGradient>
</defs>
</svg>
