<svg width="93" height="94" viewBox="0 0 93 94" fill="none" xmlns="http://www.w3.org/2000/svg">
<path d="M37.7425 21C38.3871 20.1929 39.1475 19.4813 40 18.8873C37.6454 18.0667 35.6042 16.5587 34.1516 14.5667C32.699 12.5747 31.9047 10.1943 31.8758 7.74648V1.40845C31.8758 1.03491 31.7243 0.676661 31.4547 0.412526C31.185 0.14839 30.8193 0 30.4379 0C30.0566 0 29.6908 0.14839 29.4212 0.412526C29.1515 0.676661 29 1.03491 29 1.40845V7.74648C29.0234 10.5405 29.8578 13.2703 31.4059 15.6171C32.9539 17.9639 35.1517 19.8309 37.7425 21Z" fill="url(#paint0_linear_123_6034)"/>
<path d="M55.2575 21C57.8483 19.8309 60.0461 17.9639 61.5941 15.6171C63.1422 13.2703 63.9766 10.5405 64 7.74648V1.40845C64 1.03491 63.8485 0.676661 63.5788 0.412526C63.3092 0.14839 62.9434 0 62.5621 0C62.1807 0 61.815 0.14839 61.5453 0.412526C61.2757 0.676661 61.1242 1.03491 61.1242 1.40845V7.74648C61.0924 10.1919 60.2968 12.5691 58.8443 14.5584C57.3919 16.5476 55.3523 18.0534 53 18.8732C53.8534 19.4716 54.6138 20.188 55.2575 21Z" fill="url(#paint1_linear_123_6034)"/>
<path d="M46.5 37C48.1811 37 49.8245 36.5308 51.2223 35.6518C52.6202 34.7727 53.7096 33.5233 54.353 32.0615C54.9963 30.5997 55.1646 28.9911 54.8367 27.4393C54.5087 25.8874 53.6992 24.462 52.5104 23.3431C51.3217 22.2243 49.8071 21.4624 48.1583 21.1537C46.5094 20.845 44.8004 21.0035 43.2472 21.609C41.694 22.2145 40.3665 23.2398 39.4325 24.5554C38.4985 25.871 38 27.4178 38 29C38 30.0506 38.2199 31.0909 38.647 32.0615C39.0742 33.0321 39.7003 33.914 40.4896 34.6569C42.0837 36.1571 44.2457 37 46.5 37ZM46.5 23.9091C47.5698 23.9091 48.6156 24.2077 49.5051 24.7671C50.3946 25.3265 51.0879 26.1216 51.4973 27.0518C51.9067 27.982 52.0139 29.0056 51.8052 29.9932C51.5964 30.9807 51.0813 31.8878 50.3248 32.5998C49.5683 33.3118 48.6045 33.7967 47.5553 33.9931C46.506 34.1895 45.4184 34.0887 44.43 33.7034C43.4416 33.3181 42.5969 32.6656 42.0025 31.8284C41.4081 30.9912 41.0909 30.0069 41.0909 29C41.0909 27.6498 41.6608 26.3549 42.6752 25.4002C43.6896 24.4455 45.0654 23.9091 46.5 23.9091Z" fill="url(#paint2_linear_123_6034)"/>
<path d="M67.6457 85.2813L67 85.6976V88.7626C67.2337 88.9181 67.4988 89 67.7687 89C68.0386 89 68.3037 88.9181 68.5375 88.7626L69.2293 88.3109C69.4045 88.1945 69.558 88.0396 69.6812 87.8549C69.8044 87.6702 69.8948 87.4593 69.9473 87.2343C69.9997 87.0094 70.0132 86.7747 69.987 86.5437C69.9607 86.3127 69.8953 86.0899 69.7943 85.8881C69.6934 85.6863 69.5589 85.5093 69.3986 85.3674C69.2383 85.2254 69.0553 85.1212 68.8601 85.0608C68.6649 85.0003 68.4612 84.9848 68.2608 85.015C68.0603 85.0452 67.867 85.1207 67.6919 85.237L67.6457 85.2813Z" fill="url(#paint3_linear_123_6034)"/>
<path d="M55.2575 73C54.6128 73.807 53.8524 74.5186 53 75.1127C55.3546 75.9333 57.3958 77.4413 58.8484 79.4333C60.301 81.4253 61.0953 83.8057 61.1242 86.2535V92.5915C61.1242 92.9651 61.2757 93.3233 61.5453 93.5875C61.815 93.8516 62.1807 94 62.5621 94C62.9434 94 63.3092 93.8516 63.5788 93.5875C63.8485 93.3233 64 92.9651 64 92.5915V86.2535C63.9766 83.4595 63.1422 80.7297 61.5941 78.3829C60.0461 76.0361 57.8483 74.1691 55.2575 73Z" fill="url(#paint4_linear_123_6034)"/>
<path d="M37.7425 73C35.1517 74.1691 32.9539 76.0361 31.4059 78.3829C29.8578 80.7297 29.0234 83.4595 29 86.2535V92.5915C29 92.9651 29.1515 93.3233 29.4212 93.5875C29.6908 93.8516 30.0566 94 30.4379 94C30.8193 94 31.185 93.8516 31.4547 93.5875C31.7243 93.3233 31.8758 92.9651 31.8758 92.5915V86.2535C31.9076 83.8081 32.7032 81.4309 34.1557 79.4416C35.6081 77.4524 37.6477 75.9466 40 75.1268C39.1465 74.5285 38.3861 73.8121 37.7425 73Z" fill="url(#paint5_linear_123_6034)"/>
<path d="M46.5 57C44.8189 57 43.1755 57.4692 41.7777 58.3482C40.3798 59.2273 39.2904 60.4767 38.647 61.9385C38.0037 63.4003 37.8354 65.0089 38.1633 66.5607C38.4913 68.1126 39.3008 69.538 40.4896 70.6569C41.6783 71.7757 43.1929 72.5376 44.8417 72.8463C46.4906 73.155 48.1996 72.9965 49.7528 72.391C51.306 71.7855 52.6335 70.7602 53.5675 69.4446C54.5015 68.129 55 66.5822 55 65C55 62.8783 54.1045 60.8434 52.5104 59.3431C50.9164 57.8429 48.7543 57 46.5 57ZM46.5 70.0909C45.4302 70.0909 44.3844 69.7923 43.4949 69.2329C42.6054 68.6735 41.9121 67.8785 41.5027 66.9482C41.0933 66.018 40.9861 64.9944 41.1948 64.0068C41.4036 63.0193 41.9187 62.1122 42.6752 61.4002C43.4317 60.6882 44.3955 60.2033 45.4447 60.0069C46.494 59.8105 47.5816 59.9113 48.57 60.2966C49.5584 60.6819 50.4031 61.3344 50.9975 62.1716C51.5919 63.0088 51.9091 63.9931 51.9091 65C51.9091 66.3502 51.3392 67.6451 50.3248 68.5998C49.3104 69.5545 47.9346 70.0909 46.5 70.0909Z" fill="url(#paint6_linear_123_6034)"/>
<path d="M85.6531 67H85.2096L85.1076 67.4041C85.0509 67.6108 85.0157 67.838 85.0042 68.0722C84.9927 68.3064 85.005 68.5427 85.0404 68.7673C85.0759 68.9919 85.1337 69.2 85.2105 69.3795C85.2873 69.5589 85.3816 69.7059 85.4876 69.8119C85.5937 69.9178 85.7094 69.9804 85.8279 69.9961C85.9464 70.0118 86.0652 69.9801 86.1775 69.903C86.2897 69.826 86.3929 69.705 86.4811 69.5474C86.5693 69.3898 86.6406 69.1987 86.6907 68.9854L86.8947 68.1684C86.9915 67.8109 87.0228 67.3981 86.9834 67H85.6531Z" fill="url(#paint7_linear_123_6034)"/>
<path d="M91.5906 61.3856H85.2483C82.8013 61.3567 80.4224 60.6334 78.4318 59.313C76.4413 57.9926 74.9345 56.1385 74.1141 54C73.5196 54.7749 72.8076 55.4662 72 56.0523C73.1689 58.4056 75.0349 60.4022 77.3806 61.8093C79.7263 63.2165 82.4549 63.9763 85.2483 64H91.5906C91.9644 64 92.3229 63.8623 92.5872 63.6171C92.8515 63.372 93 63.0395 93 62.6928C93 62.3461 92.8515 62.0136 92.5872 61.7685C92.3229 61.5233 91.9644 61.3856 91.5906 61.3856Z" fill="url(#paint8_linear_123_6034)"/>
<path d="M74.1268 40C74.9466 37.8615 76.4524 36.0074 78.4416 34.687C80.4309 33.3666 82.8081 32.6433 85.2535 32.6144H91.5915C91.9651 32.6144 92.3233 32.4767 92.5875 32.2315C92.8516 31.9864 93 31.6539 93 31.3072C93 30.9605 92.8516 30.628 92.5875 30.3829C92.3233 30.1377 91.9651 30 91.5915 30H85.2535C82.4595 30.0213 79.7297 30.7799 77.3829 32.1872C75.0361 33.5945 73.1691 35.5924 72 37.9477C72.8121 38.5328 73.5285 39.2241 74.1268 40Z" fill="url(#paint9_linear_123_6034)"/>
<path d="M65 38C63.4178 38 61.871 38.5278 60.5554 39.5168C59.2398 40.5057 58.2145 41.9113 57.609 43.5558C57.0035 45.2004 56.845 47.01 57.1537 48.7558C57.4624 50.5016 58.2243 52.1053 59.3431 53.364C60.462 54.6226 61.8874 55.4798 63.4393 55.8271C64.9911 56.1743 66.5997 55.9961 68.0615 55.3149C69.5233 54.6337 70.7727 53.4802 71.6518 52.0001C72.5308 50.5201 73 48.78 73 47C73 44.6131 72.1571 42.3239 70.6569 40.636C69.1566 38.9482 67.1217 38 65 38ZM65 52.7273C63.9931 52.7273 63.0088 52.3914 62.1716 51.7621C61.3344 51.1327 60.6819 50.2383 60.2966 49.1917C59.9113 48.1452 59.8105 46.9936 60.0069 45.8827C60.2033 44.7717 60.6882 43.7512 61.4002 42.9502C62.1122 42.1492 63.0193 41.6038 64.0068 41.3828C64.9944 41.1618 66.018 41.2752 66.9482 41.7087C67.8785 42.1422 68.6735 42.8763 69.2329 43.8181C69.7923 44.7599 70.0909 45.8673 70.0909 47C70.0909 48.519 69.5545 49.9757 68.5998 51.0498C67.6451 52.1239 66.3502 52.7273 65 52.7273Z" fill="url(#paint10_linear_123_6034)"/>
<path d="M7.45821 67.0196H5L5.29214 67.8926C5.43367 68.2953 5.67096 68.6194 5.96464 68.811C6.25833 69.0026 6.59077 69.0502 6.90683 68.9461C7.22289 68.8419 7.50359 68.5921 7.70237 68.2381C7.90115 67.8842 8.00607 67.4473 7.99973 67L7.45821 67.0196Z" fill="url(#paint11_linear_123_6034)"/>
<path d="M1.4094 32.6144H7.75168C10.1988 32.6433 12.5776 33.3666 14.5682 34.687C16.5587 36.0074 18.0655 37.8615 18.8859 40C19.4803 39.225 20.1924 38.5338 21 37.9477C19.8311 35.5944 17.9651 33.5978 15.6194 32.1907C13.2737 30.7835 10.5451 30.0237 7.75168 30H1.4094C1.0356 30 0.677116 30.1377 0.412803 30.3829C0.14849 30.628 0 30.9605 0 31.3072C0 31.6539 0.14849 31.9864 0.412803 32.2315C0.677116 32.4767 1.0356 32.6144 1.4094 32.6144Z" fill="url(#paint12_linear_123_6034)"/>
<path d="M18.8732 54C18.0534 56.1385 16.5476 57.9926 14.5584 59.313C12.5691 60.6334 10.1919 61.3567 7.74648 61.3856H1.40845C1.03491 61.3856 0.676661 61.5233 0.412526 61.7685C0.14839 62.0136 0 62.3461 0 62.6928C0 63.0395 0.14839 63.372 0.412526 63.6171C0.676661 63.8623 1.03491 64 1.40845 64H7.74648C10.5405 63.9787 13.2703 63.2201 15.6171 61.8128C17.9639 60.4055 19.8309 58.4076 21 56.0523C20.188 55.4671 19.4716 54.7759 18.8732 54Z" fill="url(#paint13_linear_123_6034)"/>
<path d="M36 47C36 45.22 35.5308 43.4799 34.6518 41.9999C33.7727 40.5198 32.5233 39.3663 31.0615 38.6851C29.5997 38.0039 27.9911 37.8257 26.4393 38.1729C24.8874 38.5202 23.462 39.3774 22.3431 40.636C21.2243 41.8947 20.4624 43.4984 20.1537 45.2442C19.845 46.99 20.0035 48.7996 20.609 50.4442C21.2145 52.0887 22.2398 53.4943 23.5554 54.4832C24.871 55.4722 26.4178 56 28 56C29.0506 56 30.0909 55.7672 31.0615 55.3149C32.0321 54.8626 32.914 54.1997 33.6569 53.364C34.3997 52.5282 34.989 51.5361 35.391 50.4442C35.7931 49.3522 36 48.1819 36 47ZM28 52.7273C26.9931 52.7273 26.0088 52.3914 25.1716 51.7621C24.3344 51.1327 23.6819 50.2383 23.2966 49.1917C22.9113 48.1452 22.8105 46.9937 23.0069 45.8827C23.2033 44.7717 23.6882 43.7512 24.4002 42.9502C25.1122 42.1492 26.0193 41.6038 27.0068 41.3828C27.9944 41.1618 29.018 41.2752 29.9482 41.7087C30.8784 42.1422 31.6735 42.8763 32.2329 43.8181C32.7923 44.7599 33.0909 45.8673 33.0909 47C33.0909 48.519 32.5545 49.9757 31.5998 51.0498C30.6451 52.1239 29.3502 52.7273 28 52.7273Z" fill="url(#paint14_linear_123_6034)"/>
<path d="M46.5 53C46.8647 53 47.2144 52.842 47.4723 52.5607C47.7301 52.2794 47.875 51.8978 47.875 51.5V48.5H50.625C50.9897 48.5 51.3394 48.342 51.5973 48.0607C51.8551 47.7794 52 47.3978 52 47C52 46.6022 51.8551 46.2206 51.5973 45.9393C51.3394 45.658 50.9897 45.5 50.625 45.5H47.875V42.5C47.875 42.1022 47.7301 41.7206 47.4723 41.4393C47.2144 41.158 46.8647 41 46.5 41C46.1353 41 45.7856 41.158 45.5277 41.4393C45.2699 41.7206 45.125 42.1022 45.125 42.5V45.5H42.375C42.0103 45.5 41.6606 45.658 41.4027 45.9393C41.1449 46.2206 41 46.6022 41 47C41 47.3978 41.1449 47.7794 41.4027 48.0607C41.6606 48.342 42.0103 48.5 42.375 48.5H45.125V51.5C45.125 51.8978 45.2699 52.2794 45.5277 52.5607C45.7856 52.842 46.1353 53 46.5 53Z" fill="url(#paint15_linear_123_6034)"/>
<defs>
<linearGradient id="paint0_linear_123_6034" x1="34.5" y1="0" x2="34.5" y2="21" gradientUnits="userSpaceOnUse">
<stop stop-color="#4377B2"/>
<stop offset="1" stop-color="#285384"/>
</linearGradient>
<linearGradient id="paint1_linear_123_6034" x1="58.5" y1="0" x2="58.5" y2="21" gradientUnits="userSpaceOnUse">
<stop stop-color="#4377B2"/>
<stop offset="1" stop-color="#285384"/>
</linearGradient>
<linearGradient id="paint2_linear_123_6034" x1="46.5" y1="21" x2="46.5" y2="37" gradientUnits="userSpaceOnUse">
<stop stop-color="#4377B2"/>
<stop offset="1" stop-color="#285384"/>
</linearGradient>
<linearGradient id="paint3_linear_123_6034" x1="68.5" y1="85" x2="68.5" y2="89" gradientUnits="userSpaceOnUse">
<stop stop-color="#4377B2"/>
<stop offset="1" stop-color="#285384"/>
</linearGradient>
<linearGradient id="paint4_linear_123_6034" x1="58.5" y1="73" x2="58.5" y2="94" gradientUnits="userSpaceOnUse">
<stop stop-color="#4377B2"/>
<stop offset="1" stop-color="#285384"/>
</linearGradient>
<linearGradient id="paint5_linear_123_6034" x1="34.5" y1="73" x2="34.5" y2="94" gradientUnits="userSpaceOnUse">
<stop stop-color="#4377B2"/>
<stop offset="1" stop-color="#285384"/>
</linearGradient>
<linearGradient id="paint6_linear_123_6034" x1="46.5" y1="57" x2="46.5" y2="73" gradientUnits="userSpaceOnUse">
<stop stop-color="#4377B2"/>
<stop offset="1" stop-color="#285384"/>
</linearGradient>
<linearGradient id="paint7_linear_123_6034" x1="86" y1="67" x2="86" y2="70" gradientUnits="userSpaceOnUse">
<stop stop-color="#4377B2"/>
<stop offset="1" stop-color="#285384"/>
</linearGradient>
<linearGradient id="paint8_linear_123_6034" x1="82.5" y1="54" x2="82.5" y2="64" gradientUnits="userSpaceOnUse">
<stop stop-color="#4377B2"/>
<stop offset="1" stop-color="#285384"/>
</linearGradient>
<linearGradient id="paint9_linear_123_6034" x1="82.5" y1="30" x2="82.5" y2="40" gradientUnits="userSpaceOnUse">
<stop stop-color="#4377B2"/>
<stop offset="1" stop-color="#285384"/>
</linearGradient>
<linearGradient id="paint10_linear_123_6034" x1="65" y1="38" x2="65" y2="56" gradientUnits="userSpaceOnUse">
<stop stop-color="#4377B2"/>
<stop offset="1" stop-color="#285384"/>
</linearGradient>
<linearGradient id="paint11_linear_123_6034" x1="6.5" y1="67" x2="6.5" y2="69" gradientUnits="userSpaceOnUse">
<stop stop-color="#4377B2"/>
<stop offset="1" stop-color="#285384"/>
</linearGradient>
<linearGradient id="paint12_linear_123_6034" x1="10.5" y1="30" x2="10.5" y2="40" gradientUnits="userSpaceOnUse">
<stop stop-color="#4377B2"/>
<stop offset="1" stop-color="#285384"/>
</linearGradient>
<linearGradient id="paint13_linear_123_6034" x1="10.5" y1="54" x2="10.5" y2="64" gradientUnits="userSpaceOnUse">
<stop stop-color="#4377B2"/>
<stop offset="1" stop-color="#285384"/>
</linearGradient>
<linearGradient id="paint14_linear_123_6034" x1="28" y1="38" x2="28" y2="56" gradientUnits="userSpaceOnUse">
<stop stop-color="#4377B2"/>
<stop offset="1" stop-color="#285384"/>
</linearGradient>
<linearGradient id="paint15_linear_123_6034" x1="46.5" y1="41" x2="46.5" y2="53" gradientUnits="userSpaceOnUse">
<stop stop-color="#4377B2"/>
<stop offset="1" stop-color="#285384"/>
</linearGradient>
</defs>
</svg>
