<svg width="90" height="94" viewBox="0 0 90 94" fill="none" xmlns="http://www.w3.org/2000/svg">
<path fill-rule="evenodd" clip-rule="evenodd" d="M60.6997 93.7501V89.5587C60.6997 83.211 57.0786 79.1567 52.438 77.3827C50.5982 76.6796 48.5903 76.328 46.5825 76.328C44.5747 76.328 42.5708 76.6796 40.727 77.3827C36.0903 79.1561 32.4692 83.2147 32.4692 89.5587V93.7501H60.6997ZM44.5117 47.3791C43.8789 47.3791 43.3672 46.8674 43.3672 46.2346C43.3672 45.6018 43.879 45.0901 44.5117 45.0901H80.8007V2.2851H36.9767C36.3439 2.2851 35.8322 1.77338 35.8322 1.1406C35.8361 0.51169 36.344 0 36.9767 0H81.9417C82.5746 0 83.0862 0.51172 83.0862 1.1445V46.2385C83.0862 46.8713 82.5745 47.383 81.9417 47.383L44.5117 47.3791ZM33.6327 52.7385C34.0195 52.7385 34.3554 52.6018 34.6288 52.3244C34.9023 52.051 35.039 51.7151 35.039 51.3284L34.9687 33.1093C37.6367 33.7695 46.1717 30.746 52.0197 28.8398C59.5041 26.3984 57.3127 19.6523 51.1056 21.6093L39.4576 25.2851C35.9342 25.9844 35.6646 25.3711 31.0435 23.0273C24.8873 20.8007 18.8955 22.004 13.6915 26.0781C7.13292 31.2109 5.70322 36.5042 1.08952 43.5981C-2.50428 49.5005 3.69892 53.1059 6.60902 48.3521L13.8434 36.5201V50.864C13.8434 51.8952 14.6833 52.7351 15.7145 52.7351L33.6327 52.7385ZM23.9491 20.6795C19.746 20.6795 16.3397 17.2733 16.3397 13.0701C16.3397 8.867 19.7459 5.4607 23.9491 5.4607C28.1522 5.4607 31.5585 8.8669 31.5585 13.0701C31.5546 17.2732 28.1483 20.6795 23.9491 20.6795ZM46.5861 75.0075C48.5197 75.0075 50.2697 74.2223 51.5353 72.9567C52.8009 71.6911 53.5861 69.9411 53.5861 68.0075C53.5861 66.0739 52.801 64.3239 51.5353 63.0583C50.2697 61.7927 48.5197 61.0075 46.5861 61.0075C44.6525 61.0075 42.9025 61.7927 41.6369 63.0583C40.3713 64.3239 39.5861 66.0739 39.5861 68.0075C39.5861 69.9411 40.3713 71.6911 41.6369 72.9567C42.9025 74.2223 44.6525 75.0075 46.5861 75.0075ZM17.8981 70.8044C19.8317 70.8044 21.5817 70.0192 22.8473 68.7536C24.1129 67.488 24.8981 65.738 24.8981 63.8044C24.8981 61.8708 24.113 60.1208 22.8473 58.8552C21.5817 57.5896 19.8317 56.8044 17.8981 56.8044C15.9645 56.8044 14.2145 57.5896 12.9489 58.8552C11.6833 60.1208 10.8981 61.8708 10.8981 63.8044C10.8981 65.738 11.6833 67.488 12.9489 68.7536C14.2145 70.0231 15.9645 70.8044 17.8981 70.8044ZM75.2731 70.8044C77.2067 70.8044 78.9567 70.0192 80.2223 68.7536C81.4879 67.488 82.2731 65.738 82.2731 63.8044C82.2731 61.8708 81.488 60.1208 80.2223 58.8552C78.9567 57.5896 77.2067 56.8044 75.2731 56.8044C73.3395 56.8044 71.5895 57.5896 70.3239 58.8552C69.0583 60.1208 68.2731 61.8708 68.2731 63.8044C68.2731 65.738 69.0583 67.488 70.3239 68.7536C71.5895 70.0231 73.3395 70.8044 75.2731 70.8044ZM29.4181 89.5504C29.4181 86.3356 30.1799 83.5934 31.4728 81.3277C30.2267 76.98 26.9064 74.1754 22.9884 72.9097C20.7931 72.1988 18.4064 71.9683 16.0822 72.2183C13.7736 72.4644 11.5353 73.1831 9.61344 74.3785C6.19934 76.4957 3.78144 80.1558 3.78144 85.3555V89.5469H29.4184L29.4181 89.5504ZM61.6951 81.3277C62.9881 83.5933 63.7498 86.3316 63.7498 89.5465H89.3868V85.3551C89.3868 80.152 86.9688 76.4957 83.5548 74.3781C81.6329 73.1867 79.3946 72.464 77.086 72.2179C74.7618 71.9679 72.3751 72.1984 70.1798 72.9093C66.2618 74.1749 62.9412 76.98 61.6951 81.3277Z" fill="url(#paint0_linear_123_5992)"/>
<defs>
<linearGradient id="paint0_linear_123_5992" x1="44.6934" y1="0" x2="44.6934" y2="93.7501" gradientUnits="userSpaceOnUse">
<stop stop-color="#4377B2"/>
<stop offset="1" stop-color="#285384"/>
</linearGradient>
</defs>
</svg>
