<?xml version="1.0" encoding="utf-8"?>
<!-- Generator: Adobe Illustrator 24.3.0, SVG Export Plug-In . SVG Version: 6.00 Build 0)  -->
<svg version="1.1" id="Layer_1" xmlns="http://www.w3.org/2000/svg" xmlns:xlink="http://www.w3.org/1999/xlink" x="0px" y="0px"
	 viewBox="0 0 48 60" style="enable-background:new 0 0 48 60;" xml:space="preserve">
<style type="text/css">
	.st0{fill:#4377B2;}
</style>
<path class="st0" d="M36,35v2.2c-1.2,0.5-2.6,0.8-4,0.8s-2.8-0.3-4-0.8V35c0-2.2,1.8-4,4-4S36,32.8,36,35z M32,18
	c-5.5,0-10,4.5-10,10c0,3.3,1.6,6.2,4,8v-1c0-2.3,1.3-4.2,3.1-5.3C28.4,29,28,28.1,28,27c0-2.2,1.8-4,4-4s4,1.8,4,4
	c0,1.1-0.4,2-1.1,2.7c1.9,1,3.1,3,3.1,5.3v1c2.4-1.8,4-4.7,4-8C42,22.5,37.5,18,32,18z M34,27c0-1.1-0.9-2-2-2s-2,0.9-2,2s0.9,2,2,2
	S34,28.1,34,27z M46,5v38c0,1.7-1.3,3-3,3H5c-1.7,0-3-1.3-3-3V5c0-1.7,1.3-3,3-3h38C44.7,2,46,3.3,46,5z M4,14h40V9H23.5l-1.7,2.6
	C21.6,11.8,21.3,12,21,12H4V14z M4,40h40V16H4V40z M4,5v5h16.5l1.7-2.6C22.4,7.2,22.7,7,23,7h21V5c0-0.6-0.4-1-1-1H5
	C4.4,4,4,4.4,4,5z M44,43v-1H4v1c0,0.6,0.4,1,1,1h38C43.6,44,44,43.6,44,43z M17,8h2c0.6,0,1-0.4,1-1s-0.4-1-1-1h-2
	c-0.6,0-1,0.4-1,1S16.4,8,17,8z M12,8h2c0.6,0,1-0.4,1-1s-0.4-1-1-1h-2c-0.6,0-1,0.4-1,1S11.4,8,12,8z M7,8h2c0.6,0,1-0.4,1-1
	S9.6,6,9,6H7C6.4,6,6,6.4,6,7S6.4,8,7,8z M15,33H7c-0.6,0-1,0.4-1,1s0.4,1,1,1h8c0.6,0,1-0.4,1-1S15.6,33,15,33z M15,30H7
	c-0.6,0-1,0.4-1,1s0.4,1,1,1h8c0.6,0,1-0.4,1-1S15.6,30,15,30z M15,27H7c-0.6,0-1,0.4-1,1s0.4,1,1,1h8c0.6,0,1-0.4,1-1
	S15.6,27,15,27z M15,24H7c-0.6,0-1,0.4-1,1s0.4,1,1,1h8c0.6,0,1-0.4,1-1S15.6,24,15,24z M15,21H7c-0.6,0-1,0.4-1,1s0.4,1,1,1h8
	c0.6,0,1-0.4,1-1S15.6,21,15,21z M19,33h-1c-0.6,0-1,0.4-1,1s0.4,1,1,1h1c0.6,0,1-0.4,1-1S19.6,33,19,33z M19,30h-1
	c-0.6,0-1,0.4-1,1s0.4,1,1,1h1c0.6,0,1-0.4,1-1S19.6,30,19,30z M19,27h-1c-0.6,0-1,0.4-1,1s0.4,1,1,1h1c0.6,0,1-0.4,1-1
	S19.6,27,19,27z M19,24h-1c-0.6,0-1,0.4-1,1s0.4,1,1,1h1c0.6,0,1-0.4,1-1S19.6,24,19,24z M19,21h-1c-0.6,0-1,0.4-1,1s0.4,1,1,1h1
	c0.6,0,1-0.4,1-1S19.6,21,19,21z"/>
</svg>
