<?xml version="1.0" encoding="utf-8"?>
<!-- Generator: Adobe Illustrator 24.3.0, SVG Export Plug-In . SVG Version: 6.00 Build 0)  -->
<svg version="1.1" id="Layer_1" xmlns="http://www.w3.org/2000/svg" xmlns:xlink="http://www.w3.org/1999/xlink" x="0px" y="0px"
	 viewBox="0 0 110 135" style="enable-background:new 0 0 110 135;" xml:space="preserve">
<style type="text/css">
	.st0{fill-rule:evenodd;clip-rule:evenodd;fill:#4377B2;}
</style>
<path class="st0" d="M42.6,15.8c5.5,0,10.4,3.3,12.5,8.3c2.1,5,0.9,10.8-2.9,14.7c-3.9,3.9-9.7,5-14.7,2.9c-5-2.1-8.3-7-8.3-12.5
	C29.1,21.8,35.1,15.8,42.6,15.8L42.6,15.8z M62.8,44c-4.8-1.2-8.5,2.6-7.4,7.4l0,0c0.6,2.5-0.4,5.1-2.7,6.5c-1.9,1-3.1,3-3.1,5.2
	s1.2,4.2,3.1,5.2c2.2,1.3,3.3,3.9,2.7,6.5c-1.2,4.8,2.6,8.5,7.4,7.4h0c2.5-0.7,5.1,0.4,6.5,2.7c1,1.9,3,3.1,5.2,3.1
	c2.2,0,4.2-1.2,5.2-3.1c1.3-2.2,3.9-3.3,6.5-2.7c4.8,1.2,8.5-2.6,7.4-7.4c-0.7-2.5,0.4-5.1,2.7-6.5c1.9-1,3.1-3,3.1-5.2
	c0-2.2-1.2-4.2-3.1-5.2c-2.2-1.3-3.3-3.9-2.7-6.5c1.2-4.8-2.6-8.5-7.4-7.4c-2.5,0.6-5.1-0.4-6.5-2.7c-1-1.9-3-3.1-5.2-3.1
	c-2.2,0-4.2,1.2-5.2,3.1C67.9,43.5,65.3,44.6,62.8,44L62.8,44z M74.4,46.5c4.4,0,8.5,1.7,11.6,4.8c3.1,3.1,4.8,7.3,4.8,11.6
	c0,4.4-1.7,8.5-4.8,11.6c-3.1,3.1-7.3,4.8-11.6,4.8c-4.4,0-8.5-1.7-11.6-4.8C59.7,71.5,58,67.3,58,63c0-4.4,1.7-8.5,4.8-11.6
	C65.9,48.3,70.1,46.5,74.4,46.5L74.4,46.5z M74.4,49.6c5.4,0,10.3,3.3,12.4,8.3c2.1,5,0.9,10.7-2.9,14.6c-3.8,3.8-9.6,5-14.6,2.9
	c-5-2.1-8.2-6.9-8.2-12.4c0-3.5,1.4-6.9,3.9-9.4C67.5,51,70.9,49.6,74.4,49.6L74.4,49.6z M76.3,53.2l2.1,4.6l5,0.6l0,0
	c0.8,0.1,1.5,0.6,1.7,1.4c0.2,0.8,0,1.6-0.6,2.2l-3.7,3.4l1,4.9v0c0.2,0.8-0.1,1.6-0.8,2.1c-0.7,0.5-1.5,0.5-2.2,0.1l-4.4-2.5
	L70,72.4h0c-0.7,0.4-1.6,0.3-2.2-0.1c-0.7-0.5-1-1.3-0.8-2.1l1-4.9l-3.7-3.4v0c-0.6-0.5-0.8-1.4-0.6-2.1s0.9-1.3,1.7-1.4l5-0.6
	l2.1-4.6c0.3-0.7,1.1-1.2,1.9-1.2C75.2,52,76,52.4,76.3,53.2L76.3,53.2z M75.9,59.8c0.2,0.5,0.7,0.9,1.3,0.9l3.6,0.4l-2.7,2.5h0
	c-0.4,0.4-0.6,1-0.4,1.5l0.7,3.5l-3.2-1.8c-0.5-0.3-1.1-0.3-1.5,0l-3.2,1.8l0.7-3.6c0.1-0.5-0.1-1.1-0.5-1.4l-2.7-2.5l3.6-0.4v0
	c0.5-0.1,1-0.4,1.2-0.9l1.5-3.3L75.9,59.8L75.9,59.8z M85.6,85.1v19.2l-11.2-7.7l-11.2,7.7V85.1c0.1,0,0.2,0,0.3-0.1v0
	c1.2-0.3,2.5,0.2,3.1,1.3c1.6,2.9,4.6,4.6,7.8,4.6c3.3,0,6.3-1.8,7.8-4.6c0.6-1.1,1.9-1.6,3.1-1.3C85.4,85,85.5,85,85.6,85.1
	L85.6,85.1z M50.6,43.8c1,0.3,2,0.6,2.9,0.9c-1.4,2.2-1.8,4.9-1.1,7.4c0.3,1.2-0.2,2.5-1.3,3.1c-2.9,1.6-4.6,4.6-4.6,7.8
	s1.8,6.3,4.6,7.8c0.3,0.2,0.6,0.4,0.8,0.7H10.8c0.7-6.5,3.3-12.6,7.6-17.6c4.3-4.9,9.9-8.5,16.2-10.1C39.6,46.5,45.6,46.5,50.6,43.8
	L50.6,43.8z"/>
</svg>
