<?xml version="1.0" encoding="utf-8"?>
<!-- Generator: Adobe Illustrator 24.3.0, SVG Export Plug-In . SVG Version: 6.00 Build 0)  -->
<svg version="1.1" id="Layer_1" xmlns="http://www.w3.org/2000/svg" xmlns:xlink="http://www.w3.org/1999/xlink" x="0px" y="0px"
	 viewBox="0 0 52 71.2" style="enable-background:new 0 0 52 71.2;" xml:space="preserve">
<g>
	<g fill="#4377B2">
		<path d="M0,8.1v15c0,0.6,0.4,1,1,1h17v-17H1C0.4,7.1,0,7.6,0,8.1z M4.3,15.4c0.4-0.4,1-0.4,1.4,0L8,17.7l6.3-6.3
			c0.4-0.4,1-0.4,1.4,0c0.4,0.4,0.4,1,0,1.4l-7,7C8.5,20,8.3,20.1,8,20.1c-0.3,0-0.5-0.1-0.7-0.3l-3-3C3.9,16.4,3.9,15.8,4.3,15.4z"
			/>
		<path d="M51,7.1H20v17h31c0.6,0,1-0.4,1-1v-15C52,7.6,51.6,7.1,51,7.1z M23,12.1h17c0.6,0,1,0.4,1,1s-0.4,1-1,1H23
			c-0.6,0-1-0.4-1-1S22.4,12.1,23,12.1z M26,19.1h-3c-0.6,0-1-0.4-1-1s0.4-1,1-1h3c0.6,0,1,0.4,1,1S26.6,19.1,26,19.1z M47,19.1H30
			c-0.6,0-1-0.4-1-1s0.4-1,1-1h17c0.6,0,1,0.4,1,1S47.6,19.1,47,19.1z M47,14.1h-3c-0.6,0-1-0.4-1-1s0.4-1,1-1h3c0.6,0,1,0.4,1,1
			S47.6,14.1,47,14.1z"/>
		<path d="M0,28.1v15c0,0.6,0.4,1,1,1h17v-17H1C0.4,27.1,0,27.6,0,28.1z M4.3,35.4c0.4-0.4,1-0.4,1.4,0L8,37.7l6.3-6.3
			c0.4-0.4,1-0.4,1.4,0c0.4,0.4,0.4,1,0,1.4l-7,7C8.5,40,8.3,40.1,8,40.1c-0.3,0-0.5-0.1-0.7-0.3l-3-3C3.9,36.4,3.9,35.8,4.3,35.4z"
			/>
		<path d="M51,27.1H20v17h31c0.6,0,1-0.4,1-1v-15C52,27.6,51.6,27.1,51,27.1z M23,32.1h17c0.6,0,1,0.4,1,1s-0.4,1-1,1H23
			c-0.6,0-1-0.4-1-1S22.4,32.1,23,32.1z M26,39.1h-3c-0.6,0-1-0.4-1-1s0.4-1,1-1h3c0.6,0,1,0.4,1,1S26.6,39.1,26,39.1z M47,39.1H30
			c-0.6,0-1-0.4-1-1s0.4-1,1-1h17c0.6,0,1,0.4,1,1S47.6,39.1,47,39.1z M47,34.1h-3c-0.6,0-1-0.4-1-1s0.4-1,1-1h3c0.6,0,1,0.4,1,1
			S47.6,34.1,47,34.1z"/>
		<path d="M0,48.1v15c0,0.6,0.4,1,1,1h17v-17H1C0.4,47.1,0,47.6,0,48.1z M4.3,55.4c0.4-0.4,1-0.4,1.4,0L8,57.7l6.3-6.3
			c0.4-0.4,1-0.4,1.4,0c0.4,0.4,0.4,1,0,1.4l-7,7C8.5,60,8.3,60.1,8,60.1c-0.3,0-0.5-0.1-0.7-0.3l-3-3C3.9,56.4,3.9,55.8,4.3,55.4z"
			/>
		<path d="M51,47.1H20v17h31c0.6,0,1-0.4,1-1v-15C52,47.6,51.6,47.1,51,47.1z M23,52.1h17c0.6,0,1,0.4,1,1s-0.4,1-1,1H23
			c-0.6,0-1-0.4-1-1S22.4,52.1,23,52.1z M26,59.1h-3c-0.6,0-1-0.4-1-1s0.4-1,1-1h3c0.6,0,1,0.4,1,1S26.6,59.1,26,59.1z M47,59.1H30
			c-0.6,0-1-0.4-1-1s0.4-1,1-1h17c0.6,0,1,0.4,1,1S47.6,59.1,47,59.1z M47,54.1h-3c-0.6,0-1-0.4-1-1s0.4-1,1-1h3c0.6,0,1,0.4,1,1
			S47.6,54.1,47,54.1z"/>
	</g>
</g>
</svg>
