<?xml version="1.0" encoding="utf-8"?>
<!-- Generator: Adobe Illustrator 24.3.0, SVG Export Plug-In . SVG Version: 6.00 Build 0)  -->
<svg version="1.1" id="Layer_1" xmlns="http://www.w3.org/2000/svg" xmlns:xlink="http://www.w3.org/1999/xlink" x="0px" y="0px"
	 viewBox="0 0 110 135" style="enable-background:new 0 0 110 135;" xml:space="preserve">
<style type="text/css">
	.st0{fill-rule:evenodd;clip-rule:evenodd;fill:#4377B2;}
</style>
<path class="st0" d="M11.2,58.3v24.6c0,1.1,0.9,2.1,2.1,2.1s2.1-0.9,2.1-2.1l0-22.5l4.2,2.2l0,25.5c0,3.6,2.6,7.1,7.5,9.8
	c6.3,3.5,16.4,5.8,27.9,5.8s21.6-2.3,27.9-5.8c4.9-2.7,7.5-6.2,7.5-9.8V62.6l13.5-7c0.7-0.4,1.1-1.1,1.1-1.8s-0.4-1.5-1.1-1.8
	l-12.2-6.4c-1-0.5-2.3-0.1-2.8,0.9s-0.1,2.3,0.9,2.8l8.7,4.5L55,76.4L18.8,57.5l5.9-2.9c1-0.5,1.4-1.8,0.9-2.8s-1.8-1.4-2.8-0.9
	l-8.6,4.3l-2.7-1.4L55,31.1l3.2,1.7c1,0.5,2.3,0.1,2.8-0.9c0.5-1,0.1-2.3-0.9-2.8L56,26.9c-0.6-0.3-1.3-0.3-1.9,0l-47.9,25
	C5.4,52.3,5,53,5,53.7s0.4,1.5,1.1,1.8L11.2,58.3z M86.2,64.8L56,80.6c-0.6,0.3-1.3,0.3-1.9,0L23.8,64.8v23.3c0,2.4,2.1,4.4,5.4,6.2
	c5.8,3.2,15.3,5.3,25.9,5.3s20.1-2.1,25.9-5.3c3.2-1.8,5.4-3.8,5.4-6.2L86.2,64.8z M61.1,44.7c-0.3-0.8-1.1-1.4-2-1.4
	s-1.7,0.5-2,1.4l-2.5,6.7L48,53.9c-0.8,0.3-1.4,1.1-1.4,2c0,0.9,0.5,1.7,1.4,2l6.7,2.5l2.5,6.7c0.3,0.8,1.1,1.4,2,1.4s1.7-0.5,2-1.4
	l2.5-6.7l6.7-2.5c0.8-0.3,1.4-1.1,1.4-2c0-0.9-0.5-1.6-1.4-2l-6.7-2.5L61.1,44.7L61.1,44.7z M59.2,51.4l0.9,2.3
	c0.2,0.6,0.7,1,1.2,1.2l2.3,0.9l-2.3,0.9c-0.6,0.2-1,0.7-1.2,1.2l-0.9,2.3l-0.9-2.3c-0.2-0.6-0.7-1-1.2-1.2l-2.3-0.9l2.3-0.9
	c0.6-0.2,1-0.7,1.2-1.2L59.2,51.4z M79.8,17.6c-0.3-0.8-1.1-1.4-1.9-1.4c-0.9,0-1.7,0.5-2,1.4l-5,13.5l-13.6,5
	c-0.8,0.3-1.4,1.1-1.4,2c0,0.9,0.5,1.7,1.4,2l13.6,5l5,13.5c0.3,0.8,1.1,1.4,2,1.4c0.9,0,1.6-0.5,1.9-1.4l5-13.5l13.5-5
	c0.8-0.3,1.4-1.1,1.4-2c0-0.9-0.5-1.7-1.4-2l-13.5-5C84.9,31.2,79.8,17.6,79.8,17.6z M77.9,24.3l3.4,9.2c0.2,0.6,0.7,1,1.2,1.2
	l9.2,3.4l-9.2,3.4c-0.6,0.2-1,0.7-1.2,1.2l-3.4,9.2l-3.4-9.2c-0.2-0.6-0.7-1-1.2-1.2l-9.2-3.4l9.2-3.4c0.6-0.2,1-0.7,1.2-1.2
	L77.9,24.3z M92.5,22.5h-2.1c-1.2,0-2.1,0.9-2.1,2.1c0,1.1,0.9,2.1,2.1,2.1h2.1v2.1c0,1.1,0.9,2.1,2.1,2.1c1.1,0,2.1-0.9,2.1-2.1
	v-2.1h2.1c1.1,0,2.1-0.9,2.1-2.1c0-1.1-0.9-2.1-2.1-2.1h-2.1v-2.1c0-1.1-0.9-2.1-2.1-2.1c-1.2,0-2.1,0.9-2.1,2.1V22.5z"/>
</svg>
