<?xml version="1.0" encoding="utf-8"?>
<!-- Generator: Adobe Illustrator 24.3.0, SVG Export Plug-In . SVG Version: 6.00 Build 0)  -->
<svg version="1.1" id="Layer_1" xmlns:xodm="http://www.corel.com/coreldraw/odm/2003"
	 xmlns="http://www.w3.org/2000/svg" xmlns:xlink="http://www.w3.org/1999/xlink" x="0px" y="0px" viewBox="0 0 8.5 10.6"
	 style="enable-background:new 0 0 8.5 10.6;" xml:space="preserve">
<style type="text/css">
	.st0{fill-rule:evenodd;clip-rule:evenodd;}
</style>
<g fill="#4377B2">
	<path class="st0" d="M3.2,7.5h2.1c0.1,0,0.1,0.1,0.1,0.1v0.2L3.1,7.9V7.6C3.1,7.5,3.1,7.5,3.2,7.5z M5.4,8v0.3L3.1,8.4
		c0,0,0-0.1,0-0.1V8.1C3.1,8.1,5.4,8,5.4,8z M5.4,8.5c0,0.1-0.1,0.2-0.2,0.3C5.1,9,5,9.1,4.8,9.1H3.7C3.5,9.1,3.4,9,3.3,8.8
		c0-0.1-0.1-0.1-0.1-0.2L5.4,8.5z M3.2,2.5c0.1,0,0.1,0,0.2,0s0,0.1,0,0.2C3.1,2.8,2.9,3.1,2.7,3.3C2.6,3.6,2.5,3.9,2.5,4.2
		c0,0.1-0.1,0.1-0.1,0.1S2.2,4.2,2.2,4.2c0-0.4,0.1-0.7,0.3-1C2.7,2.9,2.9,2.6,3.2,2.5z M2.3,4.5c0-0.1,0-0.1,0.1-0.2
		c0.1,0,0.1,0,0.2,0.1c0,0.1,0,0.2,0.1,0.2c0,0.1,0.1,0.2,0.1,0.2c0,0.1,0,0.1-0.1,0.2s-0.1,0-0.2-0.1C2.4,5,2.4,4.9,2.4,4.8
		C2.3,4.7,2.3,4.6,2.3,4.5z M5.3,7.3H3.2c0,0-0.1,0-0.1-0.1c-0.2-0.4-0.4-0.7-0.6-1C2,5.6,1.5,5.1,1.5,4.2c0-0.7,0.3-1.4,0.8-1.9
		l0,0c0.5-0.5,1.2-0.8,1.9-0.8c0.7,0,1.4,0.3,1.9,0.8l0,0c0.5,0.5,0.8,1.2,0.8,1.9c0,0.9-0.4,1.5-0.9,2.1c-0.2,0.3-0.5,0.6-0.6,1
		C5.4,7.3,5.3,7.3,5.3,7.3z"/>
</g>
</svg>
