<?xml version="1.0" encoding="utf-8"?>
<!-- Generator: Adobe Illustrator 24.3.0, SVG Export Plug-In . SVG Version: 6.00 Build 0)  -->
<svg version="1.1"
	 id="Layer_1" xmlns:cc="http://creativecommons.org/ns#" xmlns:dc="http://purl.org/dc/elements/1.1/" xmlns:inkscape="http://www.inkscape.org/namespaces/inkscape" xmlns:rdf="http://www.w3.org/1999/02/22-rdf-syntax-ns#" xmlns:sodipodi="http://sodipodi.sourceforge.net/DTD/sodipodi-0.dtd" xmlns:svg="http://www.w3.org/2000/svg"
	 xmlns="http://www.w3.org/2000/svg" xmlns:xlink="http://www.w3.org/1999/xlink" x="0px" y="0px" viewBox="0 0 16.9 21.2"
	 style="enable-background:new 0 0 16.9 21.2;" xml:space="preserve">
<style type="text/css">
	.st0{fill-rule:evenodd;clip-rule:evenodd;}
</style>
<g fill="#4377B2">
	<path class="st0" d="M1.1,4.5c-0.1,0-0.3,0.1-0.3,0.3c0,0,0,0,0,0v9.6c0,0.1,0.1,0.3,0.3,0.3c0,0,0,0,0,0h14.8
		c0.1,0,0.3-0.1,0.3-0.3c0,0,0,0,0,0V4.7c0-0.1-0.1-0.3-0.3-0.3c0,0,0,0,0,0H1.1z M4.8,6.7c0.1,0,0.1,0,0.2,0.1
		c0.1,0.1,0.1,0.3,0,0.4c-1.4,1.3-1.4,3.5,0,4.9c0.1,0.1,0.1,0.3,0,0.4c-0.1,0.1-0.3,0.1-0.4,0c0,0,0,0,0,0C3,10.8,3,8.3,4.6,6.7
		C4.6,6.7,4.7,6.7,4.8,6.7z M12.2,6.7c0.1,0,0.1,0,0.2,0.1c1.6,1.5,1.6,4.1,0,5.6c-0.1,0.1-0.3,0.1-0.4,0c-0.1-0.1-0.1-0.3,0-0.4
		c1.4-1.3,1.4-3.5,0-4.9c-0.1-0.1-0.1-0.3,0-0.4C12,6.7,12.1,6.7,12.2,6.7z M6.1,8C6.2,8,6.2,8,6.3,8c0.1,0.1,0.1,0.3,0,0.4
		c0,0,0,0,0,0C5.6,9,5.6,10,6.3,10.7c0.1,0.1,0.1,0.3,0,0.4c0,0,0,0,0,0c-0.1,0.1-0.3,0.1-0.4,0c0,0,0,0,0,0c-0.9-0.8-0.9-2.2,0-3v0
		C6,8,6,8,6.1,8z M10.8,8C10.9,8,11,8,11,8c0.9,0.8,0.9,2.2,0,3c-0.1,0.1-0.3,0.1-0.4,0c0,0,0,0,0,0c-0.1-0.1-0.1-0.3,0-0.4
		c0,0,0,0,0,0c0.7-0.6,0.7-1.6,0-2.3c-0.1-0.1-0.1-0.3,0-0.4c0,0,0,0,0,0C10.7,8,10.8,8,10.8,8z M8.6,8.3c0.7,0,1.3,0.6,1.3,1.3
		c0,0.7-0.6,1.3-1.3,1.3s-1.3-0.6-1.3-1.3C7.3,8.8,7.9,8.3,8.6,8.3z M6.3,15.1c-0.1,0-0.2,0-0.2,0.1l-0.6,0.9H4.1
		c-0.1,0-0.3,0.1-0.3,0.3c0,0.1,0.1,0.3,0.3,0.3c0,0,0,0,0,0h8.7c0.1,0,0.3-0.1,0.3-0.3c0-0.1-0.1-0.3-0.3-0.3h-1.4l-0.6-0.9
		c0-0.1-0.1-0.1-0.2-0.1H6.3z"/>
</g>
</svg>
